<svg width="71" height="70" viewBox="0 0 71 70" fill="none" xmlns="http://www.w3.org/2000/svg">
<path d="M23.333 17.5392L15.5551 5.89862C22.2878 1.39993 30.3722 -0.625097 38.4306 0.168589C46.4891 0.962275 54.023 4.52556 59.7487 10.2513L49.8493 20.1508C46.4138 16.7154 41.8934 14.5774 37.0584 14.1012C32.2233 13.625 27.3727 14.84 23.333 17.5392Z" fill="#EA4335"/>
<path d="M15.5985 43.0364L2.66423 48.394C-0.434529 40.9129 -0.843464 32.5889 1.5071 24.8401C3.85766 17.0913 8.82228 10.3973 15.555 5.89862L23.333 17.5392C19.2934 20.2384 16.3146 24.2548 14.9043 28.9041C13.4939 33.5533 13.7393 38.5478 15.5985 43.0364Z" fill="#FBBC05"/>
<path d="M51.2332 48.3223L62.0554 57.2038C56.9184 63.4633 49.77 67.7478 41.8282 69.3276C33.8863 70.9073 25.6424 69.6844 18.5011 65.8673C11.3598 62.0502 5.763 55.8751 2.66425 48.394L15.5986 43.0364C17.4578 47.5251 20.8159 51.2302 25.1007 53.5204C29.3855 55.8107 34.3318 56.5444 39.0969 55.5966C43.862 54.6487 48.1511 52.078 51.2332 48.3223Z" fill="#34A853"/>
<path d="M38 29.0001H70C70.299 33.7531 70.2849 36.4889 69.5 41.0001H38V29.0001Z" fill="#4285F4"/>
<path d="M70.0001 35.0001C70.0001 43.0975 67.1924 50.9444 62.0554 57.2038L51.2333 48.3223C54.3155 44.5667 56.0001 39.8585 56.0001 35.0001H70.0001Z" fill="#4285F4"/>
</svg>
