<svg width="904" height="806" viewBox="0 0 904 806" fill="none" xmlns="http://www.w3.org/2000/svg">
<g filter="url(#filter0_d_21_62)">
<rect x="37.5" y="411.5" width="829" height="357" fill="white"/>
</g>
<path d="M360.881 681.663V665.763H363.761V681.663H360.881ZM362.321 662.703C361.761 662.703 361.291 662.523 360.911 662.163C360.551 661.803 360.371 661.363 360.371 660.843C360.371 660.303 360.551 659.853 360.911 659.493C361.291 659.133 361.761 658.953 362.321 658.953C362.881 658.953 363.341 659.133 363.701 659.493C364.081 659.833 364.271 660.263 364.271 660.783C364.271 661.323 364.091 661.783 363.731 662.163C363.371 662.523 362.901 662.703 362.321 662.703ZM377.75 665.613C379.05 665.613 380.19 665.863 381.17 666.363C382.17 666.863 382.95 667.623 383.51 668.643C384.07 669.663 384.35 670.953 384.35 672.513V681.663H381.47V672.843C381.47 671.303 381.09 670.143 380.33 669.363C379.59 668.583 378.54 668.193 377.18 668.193C376.16 668.193 375.27 668.393 374.51 668.793C373.75 669.193 373.16 669.783 372.74 670.563C372.34 671.343 372.14 672.313 372.14 673.473V681.663H369.26V665.763H372.02V670.053L371.57 668.913C372.09 667.873 372.89 667.063 373.97 666.483C375.05 665.903 376.31 665.613 377.75 665.613ZM396.61 681.843C394.99 681.843 393.54 681.493 392.26 680.793C391 680.093 390.01 679.133 389.29 677.913C388.57 676.693 388.21 675.293 388.21 673.713C388.21 672.133 388.57 670.733 389.29 669.513C390.01 668.293 391 667.343 392.26 666.663C393.54 665.963 394.99 665.613 396.61 665.613C398.05 665.613 399.33 665.903 400.45 666.483C401.59 667.043 402.47 667.883 403.09 669.003L400.9 670.413C400.38 669.633 399.74 669.063 398.98 668.703C398.24 668.323 397.44 668.133 396.58 668.133C395.54 668.133 394.61 668.363 393.79 668.823C392.97 669.283 392.32 669.933 391.84 670.773C391.36 671.593 391.12 672.573 391.12 673.713C391.12 674.853 391.36 675.843 391.84 676.683C392.32 677.523 392.97 678.173 393.79 678.633C394.61 679.093 395.54 679.323 396.58 679.323C397.44 679.323 398.24 679.143 398.98 678.783C399.74 678.403 400.38 677.823 400.9 677.043L403.09 678.423C402.47 679.523 401.59 680.373 400.45 680.973C399.33 681.553 398.05 681.843 396.61 681.843ZM406.613 681.663V659.403H409.493V681.663H406.613ZM421.682 681.843C420.322 681.843 419.122 681.593 418.082 681.093C417.062 680.593 416.262 679.833 415.682 678.813C415.122 677.773 414.842 676.473 414.842 674.913V665.763H417.722V674.583C417.722 676.143 418.092 677.313 418.832 678.093C419.592 678.873 420.652 679.263 422.012 679.263C423.012 679.263 423.882 679.063 424.622 678.663C425.362 678.243 425.932 677.643 426.332 676.863C426.732 676.063 426.932 675.103 426.932 673.983V665.763H429.812V681.663H427.082V677.373L427.532 678.513C427.012 679.573 426.232 680.393 425.192 680.973C424.152 681.553 422.982 681.843 421.682 681.843ZM435.985 687.663C435.225 687.663 434.485 687.533 433.765 687.273C433.045 687.033 432.425 686.673 431.905 686.193L433.135 684.033C433.535 684.413 433.975 684.703 434.455 684.903C434.935 685.103 435.445 685.203 435.985 685.203C436.685 685.203 437.265 685.023 437.725 684.663C438.185 684.303 438.615 683.663 439.015 682.743L440.005 680.553L440.305 680.193L446.545 665.763H449.365L441.655 683.253C441.195 684.373 440.675 685.253 440.095 685.893C439.535 686.533 438.915 686.983 438.235 687.243C437.555 687.523 436.805 687.663 435.985 687.663ZM439.765 682.173L432.505 665.763H435.505L441.685 679.923L439.765 682.173ZM458.693 681.843C456.993 681.843 455.493 681.493 454.193 680.793C452.913 680.093 451.913 679.133 451.193 677.913C450.493 676.693 450.143 675.293 450.143 673.713C450.143 672.133 450.483 670.733 451.163 669.513C451.863 668.293 452.813 667.343 454.013 666.663C455.233 665.963 456.603 665.613 458.123 665.613C459.663 665.613 461.023 665.953 462.203 666.633C463.383 667.313 464.303 668.273 464.963 669.513C465.643 670.733 465.983 672.163 465.983 673.803C465.983 673.923 465.973 674.063 465.953 674.223C465.953 674.383 465.943 674.533 465.923 674.673H452.393V672.603H464.423L463.253 673.323C463.273 672.303 463.063 671.393 462.623 670.593C462.183 669.793 461.573 669.173 460.793 668.733C460.033 668.273 459.143 668.043 458.123 668.043C457.123 668.043 456.233 668.273 455.453 668.733C454.673 669.173 454.063 669.803 453.623 670.623C453.183 671.423 452.963 672.343 452.963 673.383V673.863C452.963 674.923 453.203 675.873 453.683 676.713C454.183 677.533 454.873 678.173 455.753 678.633C456.633 679.093 457.643 679.323 458.783 679.323C459.723 679.323 460.573 679.163 461.333 678.843C462.113 678.523 462.793 678.043 463.373 677.403L464.963 679.263C464.243 680.103 463.343 680.743 462.263 681.183C461.203 681.623 460.013 681.843 458.693 681.843ZM478.459 681.663V660.663H481.459V681.663H478.459ZM493.601 681.663L484.361 660.663H487.601L496.091 680.043H494.231L502.781 660.663H505.781L496.571 681.663H493.601ZM504.605 681.663L514.115 660.663H517.085L526.625 681.663H523.475L514.985 662.343H516.185L507.695 681.663H504.605ZM508.655 676.413L509.465 674.013H521.285L522.155 676.413H508.655Z" fill="#C90302"/>
<path d="M476.66 647.5L486.56 619.24H489.17L479.27 647.5H476.66ZM499.254 644.5V623.5H501.714L511.134 639.37H509.814L519.114 623.5H521.574L521.604 644.5H518.724L518.694 628.03H519.384L511.104 641.95H509.724L501.384 628.03H502.134V644.5H499.254ZM534.566 644.68C532.866 644.68 531.366 644.33 530.066 643.63C528.786 642.93 527.786 641.97 527.066 640.75C526.366 639.53 526.016 638.13 526.016 636.55C526.016 634.97 526.356 633.57 527.036 632.35C527.736 631.13 528.686 630.18 529.886 629.5C531.106 628.8 532.476 628.45 533.996 628.45C535.536 628.45 536.896 628.79 538.076 629.47C539.256 630.15 540.176 631.11 540.836 632.35C541.516 633.57 541.856 635 541.856 636.64C541.856 636.76 541.846 636.9 541.826 637.06C541.826 637.22 541.816 637.37 541.796 637.51H528.266V635.44H540.296L539.126 636.16C539.146 635.14 538.936 634.23 538.496 633.43C538.056 632.63 537.446 632.01 536.666 631.57C535.906 631.11 535.016 630.88 533.996 630.88C532.996 630.88 532.106 631.11 531.326 631.57C530.546 632.01 529.936 632.64 529.496 633.46C529.056 634.26 528.836 635.18 528.836 636.22V636.7C528.836 637.76 529.076 638.71 529.556 639.55C530.056 640.37 530.746 641.01 531.626 641.47C532.506 641.93 533.516 642.16 534.656 642.16C535.596 642.16 536.446 642 537.206 641.68C537.986 641.36 538.666 640.88 539.246 640.24L540.836 642.1C540.116 642.94 539.216 643.58 538.136 644.02C537.076 644.46 535.886 644.68 534.566 644.68ZM554.345 628.45C555.645 628.45 556.785 628.7 557.765 629.2C558.765 629.7 559.545 630.46 560.105 631.48C560.665 632.5 560.945 633.79 560.945 635.35V644.5H558.065V635.68C558.065 634.14 557.685 632.98 556.925 632.2C556.185 631.42 555.135 631.03 553.775 631.03C552.755 631.03 551.865 631.23 551.105 631.63C550.345 632.03 549.755 632.62 549.335 633.4C548.935 634.18 548.735 635.15 548.735 636.31V644.5H545.855V628.6H548.615V632.89L548.165 631.75C548.685 630.71 549.485 629.9 550.565 629.32C551.645 628.74 552.905 628.45 554.345 628.45ZM570.835 644.68C569.515 644.68 568.255 644.5 567.055 644.14C565.875 643.78 564.945 643.34 564.265 642.82L565.465 640.54C566.145 641 566.985 641.39 567.985 641.71C568.985 642.03 570.005 642.19 571.045 642.19C572.385 642.19 573.345 642 573.925 641.62C574.525 641.24 574.825 640.71 574.825 640.03C574.825 639.53 574.645 639.14 574.285 638.86C573.925 638.58 573.445 638.37 572.845 638.23C572.265 638.09 571.615 637.97 570.895 637.87C570.175 637.75 569.455 637.61 568.735 637.45C568.015 637.27 567.355 637.03 566.755 636.73C566.155 636.41 565.675 635.98 565.315 635.44C564.955 634.88 564.775 634.14 564.775 633.22C564.775 632.26 565.045 631.42 565.585 630.7C566.125 629.98 566.885 629.43 567.865 629.05C568.865 628.65 570.045 628.45 571.405 628.45C572.445 628.45 573.495 628.58 574.555 628.84C575.635 629.08 576.515 629.43 577.195 629.89L575.965 632.17C575.245 631.69 574.495 631.36 573.715 631.18C572.935 631 572.155 630.91 571.375 630.91C570.115 630.91 569.175 631.12 568.555 631.54C567.935 631.94 567.625 632.46 567.625 633.1C567.625 633.64 567.805 634.06 568.165 634.36C568.545 634.64 569.025 634.86 569.605 635.02C570.205 635.18 570.865 635.32 571.585 635.44C572.305 635.54 573.025 635.68 573.745 635.86C574.465 636.02 575.115 636.25 575.695 636.55C576.295 636.85 576.775 637.27 577.135 637.81C577.515 638.35 577.705 639.07 577.705 639.97C577.705 640.93 577.425 641.76 576.865 642.46C576.305 643.16 575.515 643.71 574.495 644.11C573.475 644.49 572.255 644.68 570.835 644.68ZM587.994 644.68C586.634 644.68 585.434 644.43 584.394 643.93C583.374 643.43 582.574 642.67 581.994 641.65C581.434 640.61 581.154 639.31 581.154 637.75V628.6H584.034V637.42C584.034 638.98 584.404 640.15 585.144 640.93C585.904 641.71 586.964 642.1 588.324 642.1C589.324 642.1 590.194 641.9 590.934 641.5C591.674 641.08 592.244 640.48 592.644 639.7C593.044 638.9 593.244 637.94 593.244 636.82V628.6H596.124V644.5H593.394V640.21L593.844 641.35C593.324 642.41 592.544 643.23 591.504 643.81C590.464 644.39 589.294 644.68 587.994 644.68ZM611.477 644.5V641.14L611.327 640.51V634.78C611.327 633.56 610.967 632.62 610.247 631.96C609.547 631.28 608.487 630.94 607.067 630.94C606.127 630.94 605.207 631.1 604.307 631.42C603.407 631.72 602.647 632.13 602.027 632.65L600.827 630.49C601.647 629.83 602.627 629.33 603.767 628.99C604.927 628.63 606.137 628.45 607.397 628.45C609.577 628.45 611.257 628.98 612.437 630.04C613.617 631.1 614.207 632.72 614.207 634.9V644.5H611.477ZM606.257 644.68C605.077 644.68 604.037 644.48 603.137 644.08C602.257 643.68 601.577 643.13 601.097 642.43C600.617 641.71 600.377 640.9 600.377 640C600.377 639.14 600.577 638.36 600.977 637.66C601.397 636.96 602.067 636.4 602.987 635.98C603.927 635.56 605.187 635.35 606.767 635.35H611.807V637.42H606.887C605.447 637.42 604.477 637.66 603.977 638.14C603.477 638.62 603.227 639.2 603.227 639.88C603.227 640.66 603.537 641.29 604.157 641.77C604.777 642.23 605.637 642.46 606.737 642.46C607.817 642.46 608.757 642.22 609.557 641.74C610.377 641.26 610.967 640.56 611.327 639.64L611.897 641.62C611.517 642.56 610.847 643.31 609.887 643.87C608.927 644.41 607.717 644.68 606.257 644.68ZM619.537 644.5V622.24H622.417V644.5H619.537Z" fill="#C90302"/>
<path d="M324.001 651.972C320.417 651.972 316.982 651.503 313.697 650.564C310.411 649.583 307.766 648.324 305.761 646.788L309.281 638.98C311.201 640.345 313.462 641.476 316.065 642.372C318.71 643.225 321.377 643.652 324.065 643.652C326.113 643.652 327.755 643.46 328.993 643.076C330.273 642.649 331.211 642.073 331.809 641.348C332.406 640.623 332.705 639.791 332.705 638.852C332.705 637.657 332.235 636.719 331.297 636.036C330.358 635.311 329.121 634.735 327.585 634.308C326.049 633.839 324.342 633.412 322.465 633.028C320.63 632.601 318.774 632.089 316.897 631.492C315.062 630.895 313.377 630.127 311.841 629.188C310.305 628.249 309.046 627.012 308.065 625.476C307.126 623.94 306.657 621.977 306.657 619.588C306.657 617.028 307.339 614.703 308.705 612.612C310.113 610.479 312.203 608.793 314.977 607.556C317.793 606.276 321.313 605.636 325.537 605.636C328.353 605.636 331.126 605.977 333.857 606.66C336.587 607.3 338.998 608.281 341.089 609.604L337.889 617.476C335.798 616.281 333.707 615.407 331.617 614.852C329.526 614.255 327.478 613.956 325.473 613.956C323.467 613.956 321.825 614.191 320.545 614.66C319.265 615.129 318.347 615.748 317.793 616.516C317.238 617.241 316.961 618.095 316.961 619.076C316.961 620.228 317.43 621.167 318.369 621.892C319.307 622.575 320.545 623.129 322.081 623.556C323.617 623.983 325.302 624.409 327.137 624.836C329.014 625.263 330.87 625.753 332.705 626.308C334.582 626.863 336.289 627.609 337.825 628.548C339.361 629.487 340.598 630.724 341.537 632.26C342.518 633.796 343.009 635.737 343.009 638.084C343.009 640.601 342.305 642.905 340.897 644.996C339.489 647.087 337.377 648.772 334.561 650.052C331.787 651.332 328.267 651.972 324.001 651.972ZM321.569 658.884V598.724H327.969V658.884H321.569ZM347.39 641.796V634.82L368.51 606.404H379.39L358.718 634.82L353.662 633.348H388.926V641.796H347.39ZM371.518 651.204V641.796L371.838 633.348V624.964H381.63V651.204H371.518ZM407.259 651.972C404.145 651.972 401.051 651.567 397.979 650.756C394.95 649.903 392.347 648.708 390.171 647.172L394.267 639.236C395.974 640.473 397.937 641.455 400.155 642.18C402.417 642.905 404.699 643.268 407.003 643.268C409.606 643.268 411.654 642.756 413.147 641.732C414.641 640.708 415.387 639.279 415.387 637.444C415.387 636.292 415.089 635.268 414.491 634.372C413.894 633.476 412.827 632.793 411.291 632.324C409.798 631.855 407.686 631.62 404.955 631.62H393.499L395.803 606.404H423.131V614.724H399.515L404.891 609.988L403.291 627.972L397.915 623.236H407.387C411.825 623.236 415.387 623.855 418.075 625.092C420.806 626.287 422.79 627.929 424.027 630.02C425.265 632.111 425.883 634.479 425.883 637.124C425.883 639.769 425.222 642.223 423.899 644.484C422.577 646.703 420.529 648.516 417.755 649.924C415.025 651.289 411.526 651.972 407.259 651.972ZM449.29 651.972C445.62 651.972 442.335 651.076 439.434 649.284C436.532 647.449 434.25 644.804 432.586 641.348C430.922 637.892 430.09 633.711 430.09 628.804C430.09 623.897 430.922 619.716 432.586 616.26C434.25 612.804 436.532 610.18 439.434 608.388C442.335 606.553 445.62 605.636 449.29 605.636C453.002 605.636 456.287 606.553 459.146 608.388C462.047 610.18 464.33 612.804 465.994 616.26C467.658 619.716 468.49 623.897 468.49 628.804C468.49 633.711 467.658 637.892 465.994 641.348C464.33 644.804 462.047 647.449 459.146 649.284C456.287 651.076 453.002 651.972 449.29 651.972ZM449.29 643.204C451.039 643.204 452.554 642.713 453.834 641.732C455.156 640.751 456.18 639.193 456.906 637.06C457.674 634.927 458.058 632.175 458.058 628.804C458.058 625.433 457.674 622.681 456.906 620.548C456.18 618.415 455.156 616.857 453.834 615.876C452.554 614.895 451.039 614.404 449.29 614.404C447.583 614.404 446.068 614.895 444.746 615.876C443.466 616.857 442.442 618.415 441.674 620.548C440.948 622.681 440.586 625.433 440.586 628.804C440.586 632.175 440.948 634.927 441.674 637.06C442.442 639.193 443.466 640.751 444.746 641.732C446.068 642.713 447.583 643.204 449.29 643.204Z" fill="#C90302"/>
<path d="M350.662 516.5V495.5H359.752C361.632 495.5 363.252 495.81 364.612 496.43C365.972 497.03 367.022 497.9 367.762 499.04C368.502 500.18 368.872 501.54 368.872 503.12C368.872 504.68 368.502 506.03 367.762 507.17C367.022 508.31 365.972 509.19 364.612 509.81C363.252 510.41 361.632 510.71 359.752 510.71H353.362L355.522 508.52V516.5H350.662ZM355.522 509.06L353.362 506.75H359.482C360.982 506.75 362.102 506.43 362.842 505.79C363.582 505.15 363.952 504.26 363.952 503.12C363.952 501.96 363.582 501.06 362.842 500.42C362.102 499.78 360.982 499.46 359.482 499.46H353.362L355.522 497.15V509.06ZM372.342 516.5V495.5H377.202V512.54H387.732V516.5H372.342ZM387.804 516.5L397.164 495.5H401.964L411.354 516.5H406.254L398.574 497.96H400.494L392.784 516.5H387.804ZM392.484 512L393.774 508.31H404.574L405.894 512H392.484ZM413.533 516.5V495.5H417.553L429.943 510.62H427.993V495.5H432.793V516.5H428.803L416.383 501.38H418.333V516.5H413.533ZM453.158 516.86C451.478 516.86 449.868 516.64 448.328 516.2C446.788 515.74 445.548 515.15 444.608 514.43L446.258 510.77C447.158 511.41 448.218 511.94 449.438 512.36C450.678 512.76 451.928 512.96 453.188 512.96C454.148 512.96 454.918 512.87 455.498 512.69C456.098 512.49 456.538 512.22 456.818 511.88C457.098 511.54 457.238 511.15 457.238 510.71C457.238 510.15 457.018 509.71 456.578 509.39C456.138 509.05 455.558 508.78 454.838 508.58C454.118 508.36 453.318 508.16 452.438 507.98C451.578 507.78 450.708 507.54 449.828 507.26C448.968 506.98 448.178 506.62 447.458 506.18C446.738 505.74 446.148 505.16 445.688 504.44C445.248 503.72 445.028 502.8 445.028 501.68C445.028 500.48 445.348 499.39 445.988 498.41C446.648 497.41 447.628 496.62 448.928 496.04C450.248 495.44 451.898 495.14 453.878 495.14C455.198 495.14 456.498 495.3 457.778 495.62C459.058 495.92 460.188 496.38 461.168 497L459.668 500.69C458.688 500.13 457.708 499.72 456.728 499.46C455.748 499.18 454.788 499.04 453.848 499.04C452.908 499.04 452.138 499.15 451.538 499.37C450.938 499.59 450.508 499.88 450.248 500.24C449.988 500.58 449.858 500.98 449.858 501.44C449.858 501.98 450.078 502.42 450.518 502.76C450.958 503.08 451.538 503.34 452.258 503.54C452.978 503.74 453.768 503.94 454.628 504.14C455.508 504.34 456.378 504.57 457.238 504.83C458.118 505.09 458.918 505.44 459.638 505.88C460.358 506.32 460.938 506.9 461.378 507.62C461.838 508.34 462.068 509.25 462.068 510.35C462.068 511.53 461.738 512.61 461.078 513.59C460.418 514.57 459.428 515.36 458.108 515.96C456.808 516.56 455.158 516.86 453.158 516.86ZM465.388 516.5V495.5H469.408L478.348 510.32H476.218L485.008 495.5H488.998L489.058 516.5H484.498L484.468 502.49H485.308L478.288 514.28H476.098L468.928 502.49H469.948V516.5H465.388ZM491.281 516.5L500.641 495.5H505.441L514.831 516.5H509.731L502.051 497.96H503.971L496.261 516.5H491.281ZM495.961 512L497.251 508.31H508.051L509.371 512H495.961ZM517.01 516.5V495.5H526.1C527.98 495.5 529.6 495.81 530.96 496.43C532.32 497.03 533.37 497.9 534.11 499.04C534.85 500.18 535.22 501.54 535.22 503.12C535.22 504.68 534.85 506.03 534.11 507.17C533.37 508.29 532.32 509.15 530.96 509.75C529.6 510.35 527.98 510.65 526.1 510.65H519.71L521.87 508.52V516.5H517.01ZM530.36 516.5L525.11 508.88H530.3L535.61 516.5H530.36ZM521.87 509.06L519.71 506.78H525.83C527.33 506.78 528.45 506.46 529.19 505.82C529.93 505.16 530.3 504.26 530.3 503.12C530.3 501.96 529.93 501.06 529.19 500.42C528.45 499.78 527.33 499.46 525.83 499.46H519.71L521.87 497.15V509.06ZM543.127 516.5V499.46H536.407V495.5H554.707V499.46H547.987V516.5H543.127Z" fill="#C90302"/>
<path d="M284.378 537.681L620.28 537.681" stroke="#C90302" stroke-width="4"/>
<g filter="url(#filter1_d_21_62)">
<rect x="37.5" y="37.5" width="829" height="357" fill="white"/>
</g>
<path d="M365.058 144.5V123.5H374.148C376.028 123.5 377.648 123.81 379.008 124.43C380.368 125.03 381.418 125.9 382.158 127.04C382.898 128.18 383.268 129.54 383.268 131.12C383.268 132.68 382.898 134.03 382.158 135.17C381.418 136.31 380.368 137.19 379.008 137.81C377.648 138.41 376.028 138.71 374.148 138.71H367.758L369.918 136.52V144.5H365.058ZM369.918 137.06L367.758 134.75H373.878C375.378 134.75 376.498 134.43 377.238 133.79C377.978 133.15 378.348 132.26 378.348 131.12C378.348 129.96 377.978 129.06 377.238 128.42C376.498 127.78 375.378 127.46 373.878 127.46H367.758L369.918 125.15V137.06ZM386.738 144.5V123.5H391.598V140.54H402.128V144.5H386.738ZM402.2 144.5L411.56 123.5H416.36L425.75 144.5H420.65L412.97 125.96H414.89L407.18 144.5H402.2ZM406.88 140L408.17 136.31H418.97L420.29 140H406.88ZM427.929 144.5V123.5H431.949L444.339 138.62H442.389V123.5H447.189V144.5H443.199L430.779 129.38H432.729V144.5H427.929ZM460.654 144.5V123.5H469.744C471.624 123.5 473.244 123.81 474.604 124.43C475.964 125.03 477.014 125.9 477.754 127.04C478.494 128.18 478.864 129.54 478.864 131.12C478.864 132.68 478.494 134.03 477.754 135.17C477.014 136.31 475.964 137.19 474.604 137.81C473.244 138.41 471.624 138.71 469.744 138.71H463.354L465.514 136.52V144.5H460.654ZM465.514 137.06L463.354 134.75H469.474C470.974 134.75 472.094 134.43 472.834 133.79C473.574 133.15 473.944 132.26 473.944 131.12C473.944 129.96 473.574 129.06 472.834 128.42C472.094 127.78 470.974 127.46 469.474 127.46H463.354L465.514 125.15V137.06ZM482.333 144.5V123.5H487.193V140.54H497.723V144.5H482.333ZM509.534 144.86C506.554 144.86 504.224 144.03 502.544 142.37C500.864 140.71 500.024 138.34 500.024 135.26V123.5H504.884V135.08C504.884 137.08 505.294 138.52 506.114 139.4C506.934 140.28 508.084 140.72 509.564 140.72C511.044 140.72 512.194 140.28 513.014 139.4C513.834 138.52 514.244 137.08 514.244 135.08V123.5H519.044V135.26C519.044 138.34 518.204 140.71 516.524 142.37C514.844 144.03 512.514 144.86 509.534 144.86ZM530.747 144.86C529.067 144.86 527.457 144.64 525.917 144.2C524.377 143.74 523.137 143.15 522.197 142.43L523.847 138.77C524.747 139.41 525.807 139.94 527.027 140.36C528.267 140.76 529.517 140.96 530.777 140.96C531.737 140.96 532.507 140.87 533.087 140.69C533.687 140.49 534.127 140.22 534.407 139.88C534.687 139.54 534.827 139.15 534.827 138.71C534.827 138.15 534.607 137.71 534.167 137.39C533.727 137.05 533.147 136.78 532.427 136.58C531.707 136.36 530.907 136.16 530.027 135.98C529.167 135.78 528.297 135.54 527.417 135.26C526.557 134.98 525.767 134.62 525.047 134.18C524.327 133.74 523.737 133.16 523.277 132.44C522.837 131.72 522.617 130.8 522.617 129.68C522.617 128.48 522.937 127.39 523.577 126.41C524.237 125.41 525.217 124.62 526.517 124.04C527.837 123.44 529.487 123.14 531.467 123.14C532.787 123.14 534.087 123.3 535.367 123.62C536.647 123.92 537.777 124.38 538.757 125L537.257 128.69C536.277 128.13 535.297 127.72 534.317 127.46C533.337 127.18 532.377 127.04 531.437 127.04C530.497 127.04 529.727 127.15 529.127 127.37C528.527 127.59 528.097 127.88 527.837 128.24C527.577 128.58 527.447 128.98 527.447 129.44C527.447 129.98 527.667 130.42 528.107 130.76C528.547 131.08 529.127 131.34 529.847 131.54C530.567 131.74 531.357 131.94 532.217 132.14C533.097 132.34 533.967 132.57 534.827 132.83C535.707 133.09 536.507 133.44 537.227 133.88C537.947 134.32 538.527 134.9 538.967 135.62C539.427 136.34 539.657 137.25 539.657 138.35C539.657 139.53 539.327 140.61 538.667 141.59C538.007 142.57 537.017 143.36 535.697 143.96C534.397 144.56 532.747 144.86 530.747 144.86Z" fill="#C90302"/>
<path d="M284.404 159.5L620.307 159.5" stroke="#C90302" stroke-width="4"/>
<path d="M465.66 278.5L475.56 250.24H478.17L468.27 278.5H465.66ZM488.254 275.5V254.5H490.714L500.134 270.37H498.814L508.114 254.5H510.574L510.604 275.5H507.724L507.694 259.03H508.384L500.104 272.95H498.724L490.384 259.03H491.134V275.5H488.254ZM523.566 275.68C521.866 275.68 520.366 275.33 519.066 274.63C517.786 273.93 516.786 272.97 516.066 271.75C515.366 270.53 515.016 269.13 515.016 267.55C515.016 265.97 515.356 264.57 516.036 263.35C516.736 262.13 517.686 261.18 518.886 260.5C520.106 259.8 521.476 259.45 522.996 259.45C524.536 259.45 525.896 259.79 527.076 260.47C528.256 261.15 529.176 262.11 529.836 263.35C530.516 264.57 530.856 266 530.856 267.64C530.856 267.76 530.846 267.9 530.826 268.06C530.826 268.22 530.816 268.37 530.796 268.51H517.266V266.44H529.296L528.126 267.16C528.146 266.14 527.936 265.23 527.496 264.43C527.056 263.63 526.446 263.01 525.666 262.57C524.906 262.11 524.016 261.88 522.996 261.88C521.996 261.88 521.106 262.11 520.326 262.57C519.546 263.01 518.936 263.64 518.496 264.46C518.056 265.26 517.836 266.18 517.836 267.22V267.7C517.836 268.76 518.076 269.71 518.556 270.55C519.056 271.37 519.746 272.01 520.626 272.47C521.506 272.93 522.516 273.16 523.656 273.16C524.596 273.16 525.446 273 526.206 272.68C526.986 272.36 527.666 271.88 528.246 271.24L529.836 273.1C529.116 273.94 528.216 274.58 527.136 275.02C526.076 275.46 524.886 275.68 523.566 275.68ZM543.345 259.45C544.645 259.45 545.785 259.7 546.765 260.2C547.765 260.7 548.545 261.46 549.105 262.48C549.665 263.5 549.945 264.79 549.945 266.35V275.5H547.065V266.68C547.065 265.14 546.685 263.98 545.925 263.2C545.185 262.42 544.135 262.03 542.775 262.03C541.755 262.03 540.865 262.23 540.105 262.63C539.345 263.03 538.755 263.62 538.335 264.4C537.935 265.18 537.735 266.15 537.735 267.31V275.5H534.855V259.6H537.615V263.89L537.165 262.75C537.685 261.71 538.485 260.9 539.565 260.32C540.645 259.74 541.905 259.45 543.345 259.45ZM559.835 275.68C558.515 275.68 557.255 275.5 556.055 275.14C554.875 274.78 553.945 274.34 553.265 273.82L554.465 271.54C555.145 272 555.985 272.39 556.985 272.71C557.985 273.03 559.005 273.19 560.045 273.19C561.385 273.19 562.345 273 562.925 272.62C563.525 272.24 563.825 271.71 563.825 271.03C563.825 270.53 563.645 270.14 563.285 269.86C562.925 269.58 562.445 269.37 561.845 269.23C561.265 269.09 560.615 268.97 559.895 268.87C559.175 268.75 558.455 268.61 557.735 268.45C557.015 268.27 556.355 268.03 555.755 267.73C555.155 267.41 554.675 266.98 554.315 266.44C553.955 265.88 553.775 265.14 553.775 264.22C553.775 263.26 554.045 262.42 554.585 261.7C555.125 260.98 555.885 260.43 556.865 260.05C557.865 259.65 559.045 259.45 560.405 259.45C561.445 259.45 562.495 259.58 563.555 259.84C564.635 260.08 565.515 260.43 566.195 260.89L564.965 263.17C564.245 262.69 563.495 262.36 562.715 262.18C561.935 262 561.155 261.91 560.375 261.91C559.115 261.91 558.175 262.12 557.555 262.54C556.935 262.94 556.625 263.46 556.625 264.1C556.625 264.64 556.805 265.06 557.165 265.36C557.545 265.64 558.025 265.86 558.605 266.02C559.205 266.18 559.865 266.32 560.585 266.44C561.305 266.54 562.025 266.68 562.745 266.86C563.465 267.02 564.115 267.25 564.695 267.55C565.295 267.85 565.775 268.27 566.135 268.81C566.515 269.35 566.705 270.07 566.705 270.97C566.705 271.93 566.425 272.76 565.865 273.46C565.305 274.16 564.515 274.71 563.495 275.11C562.475 275.49 561.255 275.68 559.835 275.68ZM576.994 275.68C575.634 275.68 574.434 275.43 573.394 274.93C572.374 274.43 571.574 273.67 570.994 272.65C570.434 271.61 570.154 270.31 570.154 268.75V259.6H573.034V268.42C573.034 269.98 573.404 271.15 574.144 271.93C574.904 272.71 575.964 273.1 577.324 273.1C578.324 273.1 579.194 272.9 579.934 272.5C580.674 272.08 581.244 271.48 581.644 270.7C582.044 269.9 582.244 268.94 582.244 267.82V259.6H585.124V275.5H582.394V271.21L582.844 272.35C582.324 273.41 581.544 274.23 580.504 274.81C579.464 275.39 578.294 275.68 576.994 275.68ZM600.477 275.5V272.14L600.327 271.51V265.78C600.327 264.56 599.967 263.62 599.247 262.96C598.547 262.28 597.487 261.94 596.067 261.94C595.127 261.94 594.207 262.1 593.307 262.42C592.407 262.72 591.647 263.13 591.027 263.65L589.827 261.49C590.647 260.83 591.627 260.33 592.767 259.99C593.927 259.63 595.137 259.45 596.397 259.45C598.577 259.45 600.257 259.98 601.437 261.04C602.617 262.1 603.207 263.72 603.207 265.9V275.5H600.477ZM595.257 275.68C594.077 275.68 593.037 275.48 592.137 275.08C591.257 274.68 590.577 274.13 590.097 273.43C589.617 272.71 589.377 271.9 589.377 271C589.377 270.14 589.577 269.36 589.977 268.66C590.397 267.96 591.067 267.4 591.987 266.98C592.927 266.56 594.187 266.35 595.767 266.35H600.807V268.42H595.887C594.447 268.42 593.477 268.66 592.977 269.14C592.477 269.62 592.227 270.2 592.227 270.88C592.227 271.66 592.537 272.29 593.157 272.77C593.777 273.23 594.637 273.46 595.737 273.46C596.817 273.46 597.757 273.22 598.557 272.74C599.377 272.26 599.967 271.56 600.327 270.64L600.897 272.62C600.517 273.56 599.847 274.31 598.887 274.87C597.927 275.41 596.717 275.68 595.257 275.68ZM608.537 275.5V253.24H611.417V275.5H608.537Z" fill="#C90302"/>
<path d="M268.032 276.268C264.448 276.268 261.013 275.799 257.728 274.86C254.443 273.879 251.797 272.62 249.792 271.084L253.312 263.276C255.232 264.641 257.493 265.772 260.096 266.668C262.741 267.521 265.408 267.948 268.096 267.948C270.144 267.948 271.787 267.756 273.024 267.372C274.304 266.945 275.243 266.369 275.84 265.644C276.437 264.919 276.736 264.087 276.736 263.148C276.736 261.953 276.267 261.015 275.328 260.332C274.389 259.607 273.152 259.031 271.616 258.604C270.08 258.135 268.373 257.708 266.496 257.324C264.661 256.897 262.805 256.385 260.928 255.788C259.093 255.191 257.408 254.423 255.872 253.484C254.336 252.545 253.077 251.308 252.096 249.772C251.157 248.236 250.688 246.273 250.688 243.884C250.688 241.324 251.371 238.999 252.736 236.908C254.144 234.775 256.235 233.089 259.008 231.852C261.824 230.572 265.344 229.932 269.568 229.932C272.384 229.932 275.157 230.273 277.888 230.956C280.619 231.596 283.029 232.577 285.12 233.9L281.92 241.772C279.829 240.577 277.739 239.703 275.648 239.148C273.557 238.551 271.509 238.252 269.504 238.252C267.499 238.252 265.856 238.487 264.576 238.956C263.296 239.425 262.379 240.044 261.824 240.812C261.269 241.537 260.992 242.391 260.992 243.372C260.992 244.524 261.461 245.463 262.4 246.188C263.339 246.871 264.576 247.425 266.112 247.852C267.648 248.279 269.333 248.705 271.168 249.132C273.045 249.559 274.901 250.049 276.736 250.604C278.613 251.159 280.32 251.905 281.856 252.844C283.392 253.783 284.629 255.02 285.568 256.556C286.549 258.092 287.04 260.033 287.04 262.38C287.04 264.897 286.336 267.201 284.928 269.292C283.52 271.383 281.408 273.068 278.592 274.348C275.819 275.628 272.299 276.268 268.032 276.268ZM265.6 283.18V223.02H272V283.18H265.6ZM297.595 275.5V234.54L302.076 239.02H288.636V230.7H307.964V275.5H297.595ZM316.13 285.356L320.354 269.996L321.762 275.756C319.927 275.756 318.413 275.223 317.218 274.156C316.066 273.089 315.49 271.617 315.49 269.74C315.49 267.863 316.087 266.369 317.282 265.26C318.477 264.151 319.949 263.596 321.698 263.596C323.49 263.596 324.962 264.172 326.114 265.324C327.266 266.433 327.842 267.905 327.842 269.74C327.842 270.295 327.799 270.849 327.714 271.404C327.629 271.916 327.458 272.556 327.202 273.324C326.989 274.049 326.626 274.988 326.114 276.14L322.466 285.356H316.13ZM350.884 276.268C347.214 276.268 343.929 275.372 341.028 273.58C338.126 271.745 335.844 269.1 334.18 265.644C332.516 262.188 331.684 258.007 331.684 253.1C331.684 248.193 332.516 244.012 334.18 240.556C335.844 237.1 338.126 234.476 341.028 232.684C343.929 230.849 347.214 229.932 350.884 229.932C354.596 229.932 357.881 230.849 360.74 232.684C363.641 234.476 365.924 237.1 367.588 240.556C369.252 244.012 370.084 248.193 370.084 253.1C370.084 258.007 369.252 262.188 367.588 265.644C365.924 269.1 363.641 271.745 360.74 273.58C357.881 275.372 354.596 276.268 350.884 276.268ZM350.884 267.5C352.633 267.5 354.148 267.009 355.428 266.028C356.75 265.047 357.774 263.489 358.5 261.356C359.268 259.223 359.652 256.471 359.652 253.1C359.652 249.729 359.268 246.977 358.5 244.844C357.774 242.711 356.75 241.153 355.428 240.172C354.148 239.191 352.633 238.7 350.884 238.7C349.177 238.7 347.662 239.191 346.34 240.172C345.06 241.153 344.036 242.711 343.268 244.844C342.542 246.977 342.18 249.729 342.18 253.1C342.18 256.471 342.542 259.223 343.268 261.356C344.036 263.489 345.06 265.047 346.34 266.028C347.662 267.009 349.177 267.5 350.884 267.5ZM394.321 276.268C390.652 276.268 387.366 275.372 384.465 273.58C381.564 271.745 379.281 269.1 377.617 265.644C375.953 262.188 375.121 258.007 375.121 253.1C375.121 248.193 375.953 244.012 377.617 240.556C379.281 237.1 381.564 234.476 384.465 232.684C387.366 230.849 390.652 229.932 394.321 229.932C398.033 229.932 401.318 230.849 404.177 232.684C407.078 234.476 409.361 237.1 411.025 240.556C412.689 244.012 413.521 248.193 413.521 253.1C413.521 258.007 412.689 262.188 411.025 265.644C409.361 269.1 407.078 271.745 404.177 273.58C401.318 275.372 398.033 276.268 394.321 276.268ZM394.321 267.5C396.07 267.5 397.585 267.009 398.865 266.028C400.188 265.047 401.212 263.489 401.937 261.356C402.705 259.223 403.089 256.471 403.089 253.1C403.089 249.729 402.705 246.977 401.937 244.844C401.212 242.711 400.188 241.153 398.865 240.172C397.585 239.191 396.07 238.7 394.321 238.7C392.614 238.7 391.1 239.191 389.777 240.172C388.497 241.153 387.473 242.711 386.705 244.844C385.98 246.977 385.617 249.729 385.617 253.1C385.617 256.471 385.98 259.223 386.705 261.356C387.473 263.489 388.497 265.047 389.777 266.028C391.1 267.009 392.614 267.5 394.321 267.5ZM437.759 276.268C434.089 276.268 430.804 275.372 427.903 273.58C425.001 271.745 422.719 269.1 421.055 265.644C419.391 262.188 418.559 258.007 418.559 253.1C418.559 248.193 419.391 244.012 421.055 240.556C422.719 237.1 425.001 234.476 427.903 232.684C430.804 230.849 434.089 229.932 437.759 229.932C441.471 229.932 444.756 230.849 447.615 232.684C450.516 234.476 452.799 237.1 454.463 240.556C456.127 244.012 456.959 248.193 456.959 253.1C456.959 258.007 456.127 262.188 454.463 265.644C452.799 269.1 450.516 271.745 447.615 273.58C444.756 275.372 441.471 276.268 437.759 276.268ZM437.759 267.5C439.508 267.5 441.023 267.009 442.303 266.028C443.625 265.047 444.649 263.489 445.375 261.356C446.143 259.223 446.527 256.471 446.527 253.1C446.527 249.729 446.143 246.977 445.375 244.844C444.649 242.711 443.625 241.153 442.303 240.172C441.023 239.191 439.508 238.7 437.759 238.7C436.052 238.7 434.537 239.191 433.215 240.172C431.935 241.153 430.911 242.711 430.143 244.844C429.417 246.977 429.055 249.729 429.055 253.1C429.055 256.471 429.417 259.223 430.143 261.356C430.911 263.489 431.935 265.047 433.215 266.028C434.537 267.009 436.052 267.5 437.759 267.5Z" fill="#C90302"/>
<path d="M390.648 312.5V296.6H393.528V312.5H390.648ZM392.088 293.54C391.528 293.54 391.058 293.36 390.678 293C390.318 292.64 390.138 292.2 390.138 291.68C390.138 291.14 390.318 290.69 390.678 290.33C391.058 289.97 391.528 289.79 392.088 289.79C392.648 289.79 393.108 289.97 393.468 290.33C393.848 290.67 394.038 291.1 394.038 291.62C394.038 292.16 393.858 292.62 393.498 293C393.138 293.36 392.668 293.54 392.088 293.54ZM399.027 312.5V296.6H401.787V300.89L401.337 299.75C401.857 298.71 402.657 297.9 403.737 297.32C404.817 296.74 406.077 296.45 407.517 296.45C408.817 296.45 409.957 296.7 410.937 297.2C411.937 297.7 412.717 298.46 413.277 299.48C413.837 300.5 414.117 301.79 414.117 303.35V312.5H411.237V303.68C411.237 302.14 410.857 300.98 410.097 300.2C409.357 299.42 408.307 299.03 406.947 299.03C405.927 299.03 405.037 299.23 404.277 299.63C403.517 300.03 402.927 300.62 402.507 301.4C402.107 302.18 401.907 303.15 401.907 304.31V312.5H399.027ZM426.377 312.68C424.757 312.68 423.307 312.33 422.027 311.63C420.767 310.93 419.777 309.97 419.057 308.75C418.337 307.53 417.977 306.13 417.977 304.55C417.977 302.97 418.337 301.57 419.057 300.35C419.777 299.13 420.767 298.18 422.027 297.5C423.307 296.8 424.757 296.45 426.377 296.45C427.817 296.45 429.097 296.74 430.217 297.32C431.357 297.88 432.237 298.72 432.857 299.84L430.667 301.25C430.147 300.47 429.507 299.9 428.747 299.54C428.007 299.16 427.207 298.97 426.347 298.97C425.307 298.97 424.377 299.2 423.557 299.66C422.737 300.12 422.087 300.77 421.607 301.61C421.127 302.43 420.887 303.41 420.887 304.55C420.887 305.69 421.127 306.68 421.607 307.52C422.087 308.36 422.737 309.01 423.557 309.47C424.377 309.93 425.307 310.16 426.347 310.16C427.207 310.16 428.007 309.98 428.747 309.62C429.507 309.24 430.147 308.66 430.667 307.88L432.857 309.26C432.237 310.36 431.357 311.21 430.217 311.81C429.097 312.39 427.817 312.68 426.377 312.68ZM436.38 312.5V290.24H439.26V312.5H436.38ZM451.449 312.68C450.089 312.68 448.889 312.43 447.849 311.93C446.829 311.43 446.029 310.67 445.449 309.65C444.889 308.61 444.609 307.31 444.609 305.75V296.6H447.489V305.42C447.489 306.98 447.859 308.15 448.599 308.93C449.359 309.71 450.419 310.1 451.779 310.1C452.779 310.1 453.649 309.9 454.389 309.5C455.129 309.08 455.699 308.48 456.099 307.7C456.499 306.9 456.699 305.94 456.699 304.82V296.6H459.579V312.5H456.849V308.21L457.299 309.35C456.779 310.41 455.999 311.23 454.959 311.81C453.919 312.39 452.749 312.68 451.449 312.68ZM465.693 318.5C464.933 318.5 464.193 318.37 463.473 318.11C462.753 317.87 462.133 317.51 461.613 317.03L462.843 314.87C463.243 315.25 463.683 315.54 464.163 315.74C464.643 315.94 465.153 316.04 465.693 316.04C466.393 316.04 466.973 315.86 467.433 315.5C467.893 315.14 468.323 314.5 468.723 313.58L469.713 311.39L470.013 311.03L476.253 296.6H479.073L471.363 314.09C470.903 315.21 470.383 316.09 469.803 316.73C469.243 317.37 468.623 317.82 467.943 318.08C467.263 318.36 466.513 318.5 465.693 318.5ZM469.473 313.01L462.213 296.6H465.213L471.393 310.76L469.473 313.01ZM488.402 312.68C486.702 312.68 485.202 312.33 483.902 311.63C482.622 310.93 481.622 309.97 480.902 308.75C480.202 307.53 479.852 306.13 479.852 304.55C479.852 302.97 480.192 301.57 480.872 300.35C481.572 299.13 482.522 298.18 483.722 297.5C484.942 296.8 486.312 296.45 487.832 296.45C489.372 296.45 490.732 296.79 491.912 297.47C493.092 298.15 494.012 299.11 494.672 300.35C495.352 301.57 495.692 303 495.692 304.64C495.692 304.76 495.682 304.9 495.662 305.06C495.662 305.22 495.652 305.37 495.632 305.51H482.102V303.44H494.132L492.962 304.16C492.982 303.14 492.772 302.23 492.332 301.43C491.892 300.63 491.282 300.01 490.502 299.57C489.742 299.11 488.852 298.88 487.832 298.88C486.832 298.88 485.942 299.11 485.162 299.57C484.382 300.01 483.772 300.64 483.332 301.46C482.892 302.26 482.672 303.18 482.672 304.22V304.7C482.672 305.76 482.912 306.71 483.392 307.55C483.892 308.37 484.582 309.01 485.462 309.47C486.342 309.93 487.352 310.16 488.492 310.16C489.432 310.16 490.282 310 491.042 309.68C491.822 309.36 492.502 308.88 493.082 308.24L494.672 310.1C493.952 310.94 493.052 311.58 491.972 312.02C490.912 312.46 489.722 312.68 488.402 312.68ZM508.168 312.5V291.5H511.168V312.5H508.168ZM523.075 312.5L513.835 291.5H517.075L525.565 310.88H523.705L532.255 291.5H535.255L526.045 312.5H523.075ZM534.079 312.5L543.589 291.5H546.559L556.099 312.5H552.949L544.459 293.18H545.659L537.169 312.5H534.079ZM538.129 307.25L538.939 304.85H550.759L551.629 307.25H538.129Z" fill="#C90302"/>
<defs>
<filter id="filter0_d_21_62" x="0" y="374" width="904" height="432" filterUnits="userSpaceOnUse" color-interpolation-filters="sRGB">
<feFlood flood-opacity="0" result="BackgroundImageFix"/>
<feColorMatrix in="SourceAlpha" type="matrix" values="0 0 0 0 0 0 0 0 0 0 0 0 0 0 0 0 0 0 127 0" result="hardAlpha"/>
<feOffset/>
<feGaussianBlur stdDeviation="18.75"/>
<feComposite in2="hardAlpha" operator="out"/>
<feColorMatrix type="matrix" values="0 0 0 0 0.788235 0 0 0 0 0.0117647 0 0 0 0 0.00784314 0 0 0 0.22 0"/>
<feBlend mode="normal" in2="BackgroundImageFix" result="effect1_dropShadow_21_62"/>
<feBlend mode="normal" in="SourceGraphic" in2="effect1_dropShadow_21_62" result="shape"/>
</filter>
<filter id="filter1_d_21_62" x="0" y="0" width="904" height="432" filterUnits="userSpaceOnUse" color-interpolation-filters="sRGB">
<feFlood flood-opacity="0" result="BackgroundImageFix"/>
<feColorMatrix in="SourceAlpha" type="matrix" values="0 0 0 0 0 0 0 0 0 0 0 0 0 0 0 0 0 0 127 0" result="hardAlpha"/>
<feOffset/>
<feGaussianBlur stdDeviation="18.75"/>
<feComposite in2="hardAlpha" operator="out"/>
<feColorMatrix type="matrix" values="0 0 0 0 0.788235 0 0 0 0 0.0117647 0 0 0 0 0.00784314 0 0 0 0.22 0"/>
<feBlend mode="normal" in2="BackgroundImageFix" result="effect1_dropShadow_21_62"/>
<feBlend mode="normal" in="SourceGraphic" in2="effect1_dropShadow_21_62" result="shape"/>
</filter>
</defs>
</svg>
