<svg width="1412" height="605" viewBox="0 0 1412 605" fill="none" xmlns="http://www.w3.org/2000/svg">
<g filter="url(#filter0_d_11_183)">
<rect x="933.5" y="37.5" width="441" height="530" fill="white"/>
</g>
<path d="M1072.63 398.205V382.305H1075.51V398.205H1072.63ZM1074.07 379.245C1073.51 379.245 1073.04 379.065 1072.66 378.705C1072.3 378.345 1072.12 377.905 1072.12 377.385C1072.12 376.845 1072.3 376.395 1072.66 376.035C1073.04 375.675 1073.51 375.495 1074.07 375.495C1074.63 375.495 1075.09 375.675 1075.45 376.035C1075.83 376.375 1076.02 376.805 1076.02 377.325C1076.02 377.865 1075.84 378.325 1075.48 378.705C1075.12 379.065 1074.65 379.245 1074.07 379.245ZM1089.5 382.155C1090.8 382.155 1091.94 382.405 1092.92 382.905C1093.92 383.405 1094.7 384.165 1095.26 385.185C1095.82 386.205 1096.1 387.495 1096.1 389.055V398.205H1093.22V389.385C1093.22 387.845 1092.84 386.685 1092.08 385.905C1091.34 385.125 1090.29 384.735 1088.93 384.735C1087.91 384.735 1087.02 384.935 1086.26 385.335C1085.5 385.735 1084.91 386.325 1084.49 387.105C1084.09 387.885 1083.89 388.855 1083.89 390.015V398.205H1081.01V382.305H1083.77V386.595L1083.32 385.455C1083.84 384.415 1084.64 383.605 1085.72 383.025C1086.8 382.445 1088.06 382.155 1089.5 382.155ZM1108.36 398.385C1106.74 398.385 1105.29 398.035 1104.01 397.335C1102.75 396.635 1101.76 395.675 1101.04 394.455C1100.32 393.235 1099.96 391.835 1099.96 390.255C1099.96 388.675 1100.32 387.275 1101.04 386.055C1101.76 384.835 1102.75 383.885 1104.01 383.205C1105.29 382.505 1106.74 382.155 1108.36 382.155C1109.8 382.155 1111.08 382.445 1112.2 383.025C1113.34 383.585 1114.22 384.425 1114.84 385.545L1112.65 386.955C1112.13 386.175 1111.49 385.605 1110.73 385.245C1109.99 384.865 1109.19 384.675 1108.33 384.675C1107.29 384.675 1106.36 384.905 1105.54 385.365C1104.72 385.825 1104.07 386.475 1103.59 387.315C1103.11 388.135 1102.87 389.115 1102.87 390.255C1102.87 391.395 1103.11 392.385 1103.59 393.225C1104.07 394.065 1104.72 394.715 1105.54 395.175C1106.36 395.635 1107.29 395.865 1108.33 395.865C1109.19 395.865 1109.99 395.685 1110.73 395.325C1111.49 394.945 1112.13 394.365 1112.65 393.585L1114.84 394.965C1114.22 396.065 1113.34 396.915 1112.2 397.515C1111.08 398.095 1109.8 398.385 1108.36 398.385ZM1118.36 398.205V375.945H1121.24V398.205H1118.36ZM1133.43 398.385C1132.07 398.385 1130.87 398.135 1129.83 397.635C1128.81 397.135 1128.01 396.375 1127.43 395.355C1126.87 394.315 1126.59 393.015 1126.59 391.455V382.305H1129.47V391.125C1129.47 392.685 1129.84 393.855 1130.58 394.635C1131.34 395.415 1132.4 395.805 1133.76 395.805C1134.76 395.805 1135.63 395.605 1136.37 395.205C1137.11 394.785 1137.68 394.185 1138.08 393.405C1138.48 392.605 1138.68 391.645 1138.68 390.525V382.305H1141.56V398.205H1138.83V393.915L1139.28 395.055C1138.76 396.115 1137.98 396.935 1136.94 397.515C1135.9 398.095 1134.73 398.385 1133.43 398.385ZM1147.73 404.205C1146.97 404.205 1146.23 404.075 1145.51 403.815C1144.79 403.575 1144.17 403.215 1143.65 402.735L1144.88 400.575C1145.28 400.955 1145.72 401.245 1146.2 401.445C1146.68 401.645 1147.19 401.745 1147.73 401.745C1148.43 401.745 1149.01 401.565 1149.47 401.205C1149.93 400.845 1150.36 400.205 1150.76 399.285L1151.75 397.095L1152.05 396.735L1158.29 382.305H1161.11L1153.4 399.795C1152.94 400.915 1152.42 401.795 1151.84 402.435C1151.28 403.075 1150.66 403.525 1149.98 403.785C1149.3 404.065 1148.55 404.205 1147.73 404.205ZM1151.51 398.715L1144.25 382.305H1147.25L1153.43 396.465L1151.51 398.715ZM1170.44 398.385C1168.74 398.385 1167.24 398.035 1165.94 397.335C1164.66 396.635 1163.66 395.675 1162.94 394.455C1162.24 393.235 1161.89 391.835 1161.89 390.255C1161.89 388.675 1162.23 387.275 1162.91 386.055C1163.61 384.835 1164.56 383.885 1165.76 383.205C1166.98 382.505 1168.35 382.155 1169.87 382.155C1171.41 382.155 1172.77 382.495 1173.95 383.175C1175.13 383.855 1176.05 384.815 1176.71 386.055C1177.39 387.275 1177.73 388.705 1177.73 390.345C1177.73 390.465 1177.72 390.605 1177.7 390.765C1177.7 390.925 1177.69 391.075 1177.67 391.215H1164.14V389.145H1176.17L1175 389.865C1175.02 388.845 1174.81 387.935 1174.37 387.135C1173.93 386.335 1173.32 385.715 1172.54 385.275C1171.78 384.815 1170.89 384.585 1169.87 384.585C1168.87 384.585 1167.98 384.815 1167.2 385.275C1166.42 385.715 1165.81 386.345 1165.37 387.165C1164.93 387.965 1164.71 388.885 1164.71 389.925V390.405C1164.71 391.465 1164.95 392.415 1165.43 393.255C1165.93 394.075 1166.62 394.715 1167.5 395.175C1168.38 395.635 1169.39 395.865 1170.53 395.865C1171.47 395.865 1172.32 395.705 1173.08 395.385C1173.86 395.065 1174.54 394.585 1175.12 393.945L1176.71 395.805C1175.99 396.645 1175.09 397.285 1174.01 397.725C1172.95 398.165 1171.76 398.385 1170.44 398.385ZM1190.21 398.205V377.205H1193.21V398.205H1190.21ZM1205.35 398.205L1196.11 377.205H1199.35L1207.84 396.585H1205.98L1214.53 377.205H1217.53L1208.32 398.205H1205.35ZM1216.35 398.205L1225.86 377.205H1228.83L1238.37 398.205H1235.22L1226.73 378.885H1227.93L1219.44 398.205H1216.35ZM1220.4 392.955L1221.21 390.555H1233.03L1233.9 392.955H1220.4Z" fill="#C90302"/>
<path d="M1216.66 350.211L1226.56 321.951H1229.17L1219.27 350.211H1216.66ZM1236.07 347.211L1245.58 326.211H1248.55L1258.09 347.211H1254.94L1246.45 327.891H1247.65L1239.16 347.211H1236.07ZM1240.12 341.961L1240.93 339.561H1252.75L1253.62 341.961H1240.12ZM1269.3 331.161C1270.6 331.161 1271.74 331.411 1272.72 331.911C1273.72 332.411 1274.5 333.171 1275.06 334.191C1275.62 335.211 1275.9 336.501 1275.9 338.061V347.211H1273.02V338.391C1273.02 336.851 1272.64 335.691 1271.88 334.911C1271.14 334.131 1270.09 333.741 1268.73 333.741C1267.71 333.741 1266.82 333.941 1266.06 334.341C1265.3 334.741 1264.71 335.331 1264.29 336.111C1263.89 336.891 1263.69 337.861 1263.69 339.021V347.211H1260.81V331.311H1263.57V335.601L1263.12 334.461C1263.64 333.421 1264.44 332.611 1265.52 332.031C1266.6 331.451 1267.86 331.161 1269.3 331.161ZM1287.92 347.391C1286.56 347.391 1285.36 347.141 1284.32 346.641C1283.3 346.141 1282.5 345.381 1281.92 344.361C1281.36 343.321 1281.08 342.021 1281.08 340.461V331.311H1283.96V340.131C1283.96 341.691 1284.33 342.861 1285.07 343.641C1285.83 344.421 1286.89 344.811 1288.25 344.811C1289.25 344.811 1290.12 344.611 1290.86 344.211C1291.6 343.791 1292.17 343.191 1292.57 342.411C1292.97 341.611 1293.17 340.651 1293.17 339.531V331.311H1296.05V347.211H1293.32V342.921L1293.77 344.061C1293.25 345.121 1292.47 345.941 1291.43 346.521C1290.39 347.101 1289.22 347.391 1287.92 347.391ZM1311.4 347.211V343.851L1311.25 343.221V337.491C1311.25 336.271 1310.89 335.331 1310.17 334.671C1309.47 333.991 1308.41 333.651 1306.99 333.651C1306.05 333.651 1305.13 333.811 1304.23 334.131C1303.33 334.431 1302.57 334.841 1301.95 335.361L1300.75 333.201C1301.57 332.541 1302.55 332.041 1303.69 331.701C1304.85 331.341 1306.06 331.161 1307.32 331.161C1309.5 331.161 1311.18 331.691 1312.36 332.751C1313.54 333.811 1314.13 335.431 1314.13 337.611V347.211H1311.4ZM1306.18 347.391C1305 347.391 1303.96 347.191 1303.06 346.791C1302.18 346.391 1301.5 345.841 1301.02 345.141C1300.54 344.421 1300.3 343.611 1300.3 342.711C1300.3 341.851 1300.5 341.071 1300.9 340.371C1301.32 339.671 1301.99 339.111 1302.91 338.691C1303.85 338.271 1305.11 338.061 1306.69 338.061H1311.73V340.131H1306.81C1305.37 340.131 1304.4 340.371 1303.9 340.851C1303.4 341.331 1303.15 341.911 1303.15 342.591C1303.15 343.371 1303.46 344.001 1304.08 344.481C1304.7 344.941 1305.56 345.171 1306.66 345.171C1307.74 345.171 1308.68 344.931 1309.48 344.451C1310.3 343.971 1310.89 343.271 1311.25 342.351L1311.82 344.331C1311.44 345.271 1310.77 346.021 1309.81 346.581C1308.85 347.121 1307.64 347.391 1306.18 347.391ZM1319.46 347.211V324.951H1322.34V347.211H1319.46Z" fill="#C90302"/>
<path d="M996.384 358.12V297.96H1002.78V358.12H996.384ZM998.688 351.208C995.104 351.208 991.67 350.738 988.384 349.8C985.099 348.818 982.454 347.56 980.448 346.024L983.968 338.216C985.888 339.581 988.15 340.712 990.752 341.608C993.398 342.461 996.064 342.888 998.752 342.888C1000.8 342.888 1002.44 342.696 1003.68 342.312C1004.96 341.885 1005.9 341.309 1006.5 340.584C1007.09 339.858 1007.39 339.026 1007.39 338.088C1007.39 336.893 1006.92 335.954 1005.98 335.272C1005.05 334.546 1003.81 333.97 1002.27 333.544C1000.74 333.074 999.03 332.648 997.152 332.264C995.318 331.837 993.462 331.325 991.584 330.728C989.75 330.13 988.064 329.362 986.528 328.424C984.992 327.485 983.734 326.248 982.752 324.712C981.814 323.176 981.344 321.213 981.344 318.824C981.344 316.264 982.027 313.938 983.392 311.848C984.8 309.714 986.891 308.029 989.664 306.792C992.48 305.512 996 304.872 1000.22 304.872C1003.04 304.872 1005.81 305.213 1008.54 305.896C1011.27 306.536 1013.69 307.517 1015.78 308.84L1012.58 316.712C1010.49 315.517 1008.39 314.642 1006.3 314.088C1004.21 313.49 1002.17 313.192 1000.16 313.192C998.155 313.192 996.512 313.426 995.232 313.896C993.952 314.365 993.035 314.984 992.48 315.752C991.926 316.477 991.648 317.33 991.648 318.312C991.648 319.464 992.118 320.402 993.056 321.128C993.995 321.81 995.232 322.365 996.768 322.792C998.304 323.218 999.99 323.645 1001.82 324.072C1003.7 324.498 1005.56 324.989 1007.39 325.544C1009.27 326.098 1010.98 326.845 1012.51 327.784C1014.05 328.722 1015.29 329.96 1016.22 331.496C1017.21 333.032 1017.7 334.973 1017.7 337.32C1017.7 339.837 1016.99 342.141 1015.58 344.232C1014.18 346.322 1012.06 348.008 1009.25 349.288C1006.47 350.568 1002.95 351.208 998.688 351.208ZM1036.31 351.208C1033.19 351.208 1030.1 350.802 1027.03 349.992C1023.95 349.138 1021.35 347.944 1019.22 346.408L1023.25 338.472C1024.96 339.709 1026.94 340.69 1029.2 341.416C1031.46 342.141 1033.75 342.504 1036.05 342.504C1038.65 342.504 1040.7 341.992 1042.19 340.968C1043.69 339.944 1044.43 338.536 1044.43 336.744C1044.43 335.037 1043.77 333.693 1042.45 332.712C1041.13 331.73 1038.99 331.24 1036.05 331.24H1031.31V324.392L1043.79 310.248L1044.95 313.96H1021.46V305.64H1052.82V312.36L1040.4 326.504L1035.15 323.496H1038.16C1043.67 323.496 1047.83 324.733 1050.64 327.208C1053.46 329.682 1054.87 332.861 1054.87 336.744C1054.87 339.261 1054.2 341.629 1052.88 343.848C1051.56 346.024 1049.53 347.794 1046.8 349.16C1044.07 350.525 1040.57 351.208 1036.31 351.208ZM1060.04 360.296L1064.26 344.936L1065.67 350.696C1063.83 350.696 1062.32 350.162 1061.12 349.096C1059.97 348.029 1059.4 346.557 1059.4 344.68C1059.4 342.802 1059.99 341.309 1061.19 340.2C1062.38 339.09 1063.85 338.536 1065.6 338.536C1067.4 338.536 1068.87 339.112 1070.02 340.264C1071.17 341.373 1071.75 342.845 1071.75 344.68C1071.75 345.234 1071.71 345.789 1071.62 346.344C1071.53 346.856 1071.36 347.496 1071.11 348.264C1070.89 348.989 1070.53 349.928 1070.02 351.08L1066.37 360.296H1060.04ZM1075.89 341.032V334.056L1097.01 305.64H1107.89L1087.22 334.056L1082.16 332.584H1117.43V341.032H1075.89ZM1100.02 350.44V341.032L1100.34 332.584V324.2H1110.13V350.44H1100.02ZM1139.71 351.208C1135.96 351.208 1132.67 350.653 1129.86 349.544C1127.04 348.392 1124.84 346.792 1123.26 344.744C1121.69 342.653 1120.9 340.221 1120.9 337.448C1120.9 334.674 1121.66 332.328 1123.2 330.408C1124.78 328.445 1126.98 326.973 1129.79 325.992C1132.61 324.968 1135.91 324.456 1139.71 324.456C1143.55 324.456 1146.88 324.968 1149.7 325.992C1152.55 326.973 1154.75 328.445 1156.29 330.408C1157.87 332.328 1158.66 334.674 1158.66 337.448C1158.66 340.221 1157.87 342.653 1156.29 344.744C1154.71 346.792 1152.49 348.392 1149.63 349.544C1146.82 350.653 1143.51 351.208 1139.71 351.208ZM1139.71 343.592C1142.31 343.592 1144.36 343.016 1145.86 341.864C1147.39 340.712 1148.16 339.133 1148.16 337.128C1148.16 335.122 1147.39 333.565 1145.86 332.456C1144.36 331.304 1142.31 330.728 1139.71 330.728C1137.15 330.728 1135.13 331.304 1133.63 332.456C1132.14 333.565 1131.39 335.122 1131.39 337.128C1131.39 339.133 1132.14 340.712 1133.63 341.864C1135.13 343.016 1137.15 343.592 1139.71 343.592ZM1139.71 329.704C1136.26 329.704 1133.23 329.234 1130.62 328.296C1128.06 327.357 1126.06 325.992 1124.61 324.2C1123.2 322.365 1122.5 320.189 1122.5 317.672C1122.5 315.026 1123.22 312.765 1124.67 310.888C1126.12 308.968 1128.15 307.496 1130.75 306.472C1133.35 305.405 1136.34 304.872 1139.71 304.872C1143.17 304.872 1146.18 305.405 1148.74 306.472C1151.34 307.496 1153.37 308.968 1154.82 310.888C1156.31 312.765 1157.06 315.026 1157.06 317.672C1157.06 320.189 1156.33 322.365 1154.88 324.2C1153.47 325.992 1151.47 327.357 1148.86 328.296C1146.26 329.234 1143.21 329.704 1139.71 329.704ZM1139.71 323.624C1141.89 323.624 1143.59 323.133 1144.83 322.152C1146.11 321.17 1146.75 319.826 1146.75 318.12C1146.75 316.328 1146.09 314.941 1144.77 313.96C1143.49 312.978 1141.8 312.488 1139.71 312.488C1137.66 312.488 1136 312.978 1134.72 313.96C1133.44 314.941 1132.8 316.328 1132.8 318.12C1132.8 319.826 1133.42 321.17 1134.66 322.152C1135.89 323.133 1137.58 323.624 1139.71 323.624ZM1182.6 351.208C1178.93 351.208 1175.65 350.312 1172.75 348.52C1169.84 346.685 1167.56 344.04 1165.9 340.584C1164.23 337.128 1163.4 332.946 1163.4 328.04C1163.4 323.133 1164.23 318.952 1165.9 315.496C1167.56 312.04 1169.84 309.416 1172.75 307.624C1175.65 305.789 1178.93 304.872 1182.6 304.872C1186.31 304.872 1189.6 305.789 1192.46 307.624C1195.36 309.416 1197.64 312.04 1199.31 315.496C1200.97 318.952 1201.8 323.133 1201.8 328.04C1201.8 332.946 1200.97 337.128 1199.31 340.584C1197.64 344.04 1195.36 346.685 1192.46 348.52C1189.6 350.312 1186.31 351.208 1182.6 351.208ZM1182.6 342.44C1184.35 342.44 1185.87 341.949 1187.15 340.968C1188.47 339.986 1189.49 338.429 1190.22 336.296C1190.99 334.162 1191.37 331.41 1191.37 328.04C1191.37 324.669 1190.99 321.917 1190.22 319.784C1189.49 317.65 1188.47 316.093 1187.15 315.112C1185.87 314.13 1184.35 313.64 1182.6 313.64C1180.9 313.64 1179.38 314.13 1178.06 315.112C1176.78 316.093 1175.75 317.65 1174.99 319.784C1174.26 321.917 1173.9 324.669 1173.9 328.04C1173.9 331.41 1174.26 334.162 1174.99 336.296C1175.75 338.429 1176.78 339.986 1178.06 340.968C1179.38 341.949 1180.9 342.44 1182.6 342.44Z" fill="#C90302"/>
<path d="M1053.6 211.5V190.5H1062.69C1064.57 190.5 1066.19 190.81 1067.55 191.43C1068.91 192.03 1069.96 192.9 1070.7 194.04C1071.44 195.18 1071.81 196.54 1071.81 198.12C1071.81 199.68 1071.44 201.03 1070.7 202.17C1069.96 203.31 1068.91 204.19 1067.55 204.81C1066.19 205.41 1064.57 205.71 1062.69 205.71H1056.3L1058.46 203.52V211.5H1053.6ZM1058.46 204.06L1056.3 201.75H1062.42C1063.92 201.75 1065.04 201.43 1065.78 200.79C1066.52 200.15 1066.89 199.26 1066.89 198.12C1066.89 196.96 1066.52 196.06 1065.78 195.42C1065.04 194.78 1063.92 194.46 1062.42 194.46H1056.3L1058.46 192.15V204.06ZM1075.28 211.5V190.5H1080.14V207.54H1090.67V211.5H1075.28ZM1090.74 211.5L1100.1 190.5H1104.9L1114.29 211.5H1109.19L1101.51 192.96H1103.43L1095.72 211.5H1090.74ZM1095.42 207L1096.71 203.31H1107.51L1108.83 207H1095.42ZM1116.47 211.5V190.5H1120.49L1132.88 205.62H1130.93V190.5H1135.73V211.5H1131.74L1119.32 196.38H1121.27V211.5H1116.47ZM1156.1 211.86C1154.42 211.86 1152.81 211.64 1151.27 211.2C1149.73 210.74 1148.49 210.15 1147.55 209.43L1149.2 205.77C1150.1 206.41 1151.16 206.94 1152.38 207.36C1153.62 207.76 1154.87 207.96 1156.13 207.96C1157.09 207.96 1157.86 207.87 1158.44 207.69C1159.04 207.49 1159.48 207.22 1159.76 206.88C1160.04 206.54 1160.18 206.15 1160.18 205.71C1160.18 205.15 1159.96 204.71 1159.52 204.39C1159.08 204.05 1158.5 203.78 1157.78 203.58C1157.06 203.36 1156.26 203.16 1155.38 202.98C1154.52 202.78 1153.65 202.54 1152.77 202.26C1151.91 201.98 1151.12 201.62 1150.4 201.18C1149.68 200.74 1149.09 200.16 1148.63 199.44C1148.19 198.72 1147.97 197.8 1147.97 196.68C1147.97 195.48 1148.29 194.39 1148.93 193.41C1149.59 192.41 1150.57 191.62 1151.87 191.04C1153.19 190.44 1154.84 190.14 1156.82 190.14C1158.14 190.14 1159.44 190.3 1160.72 190.62C1162 190.92 1163.13 191.38 1164.11 192L1162.61 195.69C1161.63 195.13 1160.65 194.72 1159.67 194.46C1158.69 194.18 1157.73 194.04 1156.79 194.04C1155.85 194.04 1155.08 194.15 1154.48 194.37C1153.88 194.59 1153.45 194.88 1153.19 195.24C1152.93 195.58 1152.8 195.98 1152.8 196.44C1152.8 196.98 1153.02 197.42 1153.46 197.76C1153.9 198.08 1154.48 198.34 1155.2 198.54C1155.92 198.74 1156.71 198.94 1157.57 199.14C1158.45 199.34 1159.32 199.57 1160.18 199.83C1161.06 200.09 1161.86 200.44 1162.58 200.88C1163.3 201.32 1163.88 201.9 1164.32 202.62C1164.78 203.34 1165.01 204.25 1165.01 205.35C1165.01 206.53 1164.68 207.61 1164.02 208.59C1163.36 209.57 1162.37 210.36 1161.05 210.96C1159.75 211.56 1158.1 211.86 1156.1 211.86ZM1168.33 211.5V190.5H1172.35L1181.29 205.32H1179.16L1187.95 190.5H1191.94L1192 211.5H1187.44L1187.41 197.49H1188.25L1181.23 209.28H1179.04L1171.87 197.49H1172.89V211.5H1168.33ZM1194.22 211.5L1203.58 190.5H1208.38L1217.77 211.5H1212.67L1204.99 192.96H1206.91L1199.2 211.5H1194.22ZM1198.9 207L1200.19 203.31H1210.99L1212.31 207H1198.9ZM1219.95 211.5V190.5H1229.04C1230.92 190.5 1232.54 190.81 1233.9 191.43C1235.26 192.03 1236.31 192.9 1237.05 194.04C1237.79 195.18 1238.16 196.54 1238.16 198.12C1238.16 199.68 1237.79 201.03 1237.05 202.17C1236.31 203.29 1235.26 204.15 1233.9 204.75C1232.54 205.35 1230.92 205.65 1229.04 205.65H1222.65L1224.81 203.52V211.5H1219.95ZM1233.3 211.5L1228.05 203.88H1233.24L1238.55 211.5H1233.3ZM1224.81 204.06L1222.65 201.78H1228.77C1230.27 201.78 1231.39 201.46 1232.13 200.82C1232.87 200.16 1233.24 199.26 1233.24 198.12C1233.24 196.96 1232.87 196.06 1232.13 195.42C1231.39 194.78 1230.27 194.46 1228.77 194.46H1222.65L1224.81 192.15V204.06ZM1246.07 211.5V194.46H1239.35V190.5H1257.65V194.46H1250.93V211.5H1246.07Z" fill="#C90302"/>
<path d="M1065.54 247.97L1244.22 247.97" stroke="#C90302" stroke-width="4"/>
<g filter="url(#filter1_d_11_183)">
<rect x="37.5" y="210.5" width="829" height="357" fill="white"/>
</g>
<path d="M365.058 317.5V296.5H374.148C376.028 296.5 377.648 296.81 379.008 297.43C380.368 298.03 381.418 298.9 382.158 300.04C382.898 301.18 383.268 302.54 383.268 304.12C383.268 305.68 382.898 307.03 382.158 308.17C381.418 309.31 380.368 310.19 379.008 310.81C377.648 311.41 376.028 311.71 374.148 311.71H367.758L369.918 309.52V317.5H365.058ZM369.918 310.06L367.758 307.75H373.878C375.378 307.75 376.498 307.43 377.238 306.79C377.978 306.15 378.348 305.26 378.348 304.12C378.348 302.96 377.978 302.06 377.238 301.42C376.498 300.78 375.378 300.46 373.878 300.46H367.758L369.918 298.15V310.06ZM386.738 317.5V296.5H391.598V313.54H402.128V317.5H386.738ZM402.2 317.5L411.56 296.5H416.36L425.75 317.5H420.65L412.97 298.96H414.89L407.18 317.5H402.2ZM406.88 313L408.17 309.31H418.97L420.29 313H406.88ZM427.929 317.5V296.5H431.949L444.339 311.62H442.389V296.5H447.189V317.5H443.199L430.779 302.38H432.729V317.5H427.929ZM460.654 317.5V296.5H469.744C471.624 296.5 473.244 296.81 474.604 297.43C475.964 298.03 477.014 298.9 477.754 300.04C478.494 301.18 478.864 302.54 478.864 304.12C478.864 305.68 478.494 307.03 477.754 308.17C477.014 309.31 475.964 310.19 474.604 310.81C473.244 311.41 471.624 311.71 469.744 311.71H463.354L465.514 309.52V317.5H460.654ZM465.514 310.06L463.354 307.75H469.474C470.974 307.75 472.094 307.43 472.834 306.79C473.574 306.15 473.944 305.26 473.944 304.12C473.944 302.96 473.574 302.06 472.834 301.42C472.094 300.78 470.974 300.46 469.474 300.46H463.354L465.514 298.15V310.06ZM482.333 317.5V296.5H487.193V313.54H497.723V317.5H482.333ZM509.534 317.86C506.554 317.86 504.224 317.03 502.544 315.37C500.864 313.71 500.024 311.34 500.024 308.26V296.5H504.884V308.08C504.884 310.08 505.294 311.52 506.114 312.4C506.934 313.28 508.084 313.72 509.564 313.72C511.044 313.72 512.194 313.28 513.014 312.4C513.834 311.52 514.244 310.08 514.244 308.08V296.5H519.044V308.26C519.044 311.34 518.204 313.71 516.524 315.37C514.844 317.03 512.514 317.86 509.534 317.86ZM530.747 317.86C529.067 317.86 527.457 317.64 525.917 317.2C524.377 316.74 523.137 316.15 522.197 315.43L523.847 311.77C524.747 312.41 525.807 312.94 527.027 313.36C528.267 313.76 529.517 313.96 530.777 313.96C531.737 313.96 532.507 313.87 533.087 313.69C533.687 313.49 534.127 313.22 534.407 312.88C534.687 312.54 534.827 312.15 534.827 311.71C534.827 311.15 534.607 310.71 534.167 310.39C533.727 310.05 533.147 309.78 532.427 309.58C531.707 309.36 530.907 309.16 530.027 308.98C529.167 308.78 528.297 308.54 527.417 308.26C526.557 307.98 525.767 307.62 525.047 307.18C524.327 306.74 523.737 306.16 523.277 305.44C522.837 304.72 522.617 303.8 522.617 302.68C522.617 301.48 522.937 300.39 523.577 299.41C524.237 298.41 525.217 297.62 526.517 297.04C527.837 296.44 529.487 296.14 531.467 296.14C532.787 296.14 534.087 296.3 535.367 296.62C536.647 296.92 537.777 297.38 538.757 298L537.257 301.69C536.277 301.13 535.297 300.72 534.317 300.46C533.337 300.18 532.377 300.04 531.437 300.04C530.497 300.04 529.727 300.15 529.127 300.37C528.527 300.59 528.097 300.88 527.837 301.24C527.577 301.58 527.447 301.98 527.447 302.44C527.447 302.98 527.667 303.42 528.107 303.76C528.547 304.08 529.127 304.34 529.847 304.54C530.567 304.74 531.357 304.94 532.217 305.14C533.097 305.34 533.967 305.57 534.827 305.83C535.707 306.09 536.507 306.44 537.227 306.88C537.947 307.32 538.527 307.9 538.967 308.62C539.427 309.34 539.657 310.25 539.657 311.35C539.657 312.53 539.327 313.61 538.667 314.59C538.007 315.57 537.017 316.36 535.697 316.96C534.397 317.56 532.747 317.86 530.747 317.86Z" fill="#C90302"/>
<path d="M284.404 332.5L620.307 332.5" stroke="#C90302" stroke-width="4"/>
<path d="M540.153 448.5L550.053 420.24H552.663L542.763 448.5H540.153ZM559.567 445.5L569.077 424.5H572.047L581.587 445.5H578.437L569.947 426.18H571.147L562.657 445.5H559.567ZM563.617 440.25L564.427 437.85H576.247L577.117 440.25H563.617ZM592.789 429.45C594.089 429.45 595.229 429.7 596.209 430.2C597.209 430.7 597.989 431.46 598.549 432.48C599.109 433.5 599.389 434.79 599.389 436.35V445.5H596.509V436.68C596.509 435.14 596.129 433.98 595.369 433.2C594.629 432.42 593.579 432.03 592.219 432.03C591.199 432.03 590.309 432.23 589.549 432.63C588.789 433.03 588.199 433.62 587.779 434.4C587.379 435.18 587.179 436.15 587.179 437.31V445.5H584.299V429.6H587.059V433.89L586.609 432.75C587.129 431.71 587.929 430.9 589.009 430.32C590.089 429.74 591.349 429.45 592.789 429.45ZM611.409 445.68C610.049 445.68 608.849 445.43 607.809 444.93C606.789 444.43 605.989 443.67 605.409 442.65C604.849 441.61 604.569 440.31 604.569 438.75V429.6H607.449V438.42C607.449 439.98 607.819 441.15 608.559 441.93C609.319 442.71 610.379 443.1 611.739 443.1C612.739 443.1 613.609 442.9 614.349 442.5C615.089 442.08 615.659 441.48 616.059 440.7C616.459 439.9 616.659 438.94 616.659 437.82V429.6H619.539V445.5H616.809V441.21L617.259 442.35C616.739 443.41 615.959 444.23 614.919 444.81C613.879 445.39 612.709 445.68 611.409 445.68ZM634.892 445.5V442.14L634.742 441.51V435.78C634.742 434.56 634.382 433.62 633.662 432.96C632.962 432.28 631.902 431.94 630.482 431.94C629.542 431.94 628.622 432.1 627.722 432.42C626.822 432.72 626.062 433.13 625.442 433.65L624.242 431.49C625.062 430.83 626.042 430.33 627.182 429.99C628.342 429.63 629.552 429.45 630.812 429.45C632.992 429.45 634.672 429.98 635.852 431.04C637.032 432.1 637.622 433.72 637.622 435.9V445.5H634.892ZM629.672 445.68C628.492 445.68 627.452 445.48 626.552 445.08C625.672 444.68 624.992 444.13 624.512 443.43C624.032 442.71 623.792 441.9 623.792 441C623.792 440.14 623.992 439.36 624.392 438.66C624.812 437.96 625.482 437.4 626.402 436.98C627.342 436.56 628.602 436.35 630.182 436.35H635.222V438.42H630.302C628.862 438.42 627.892 438.66 627.392 439.14C626.892 439.62 626.642 440.2 626.642 440.88C626.642 441.66 626.952 442.29 627.572 442.77C628.192 443.23 629.052 443.46 630.152 443.46C631.232 443.46 632.172 443.22 632.972 442.74C633.792 442.26 634.382 441.56 634.742 440.64L635.312 442.62C634.932 443.56 634.262 444.31 633.302 444.87C632.342 445.41 631.132 445.68 629.672 445.68ZM642.952 445.5V423.24H645.832V445.5H642.952Z" fill="#C90302"/>
<path d="M434.422 482.5V466.6H437.302V482.5H434.422ZM435.862 463.54C435.302 463.54 434.832 463.36 434.452 463C434.092 462.64 433.912 462.2 433.912 461.68C433.912 461.14 434.092 460.69 434.452 460.33C434.832 459.97 435.302 459.79 435.862 459.79C436.422 459.79 436.882 459.97 437.242 460.33C437.622 460.67 437.812 461.1 437.812 461.62C437.812 462.16 437.632 462.62 437.272 463C436.912 463.36 436.442 463.54 435.862 463.54ZM451.291 466.45C452.591 466.45 453.731 466.7 454.711 467.2C455.711 467.7 456.491 468.46 457.051 469.48C457.611 470.5 457.891 471.79 457.891 473.35V482.5H455.011V473.68C455.011 472.14 454.631 470.98 453.871 470.2C453.131 469.42 452.081 469.03 450.721 469.03C449.701 469.03 448.811 469.23 448.051 469.63C447.291 470.03 446.701 470.62 446.281 471.4C445.881 472.18 445.681 473.15 445.681 474.31V482.5H442.801V466.6H445.561V470.89L445.111 469.75C445.631 468.71 446.431 467.9 447.511 467.32C448.591 466.74 449.851 466.45 451.291 466.45ZM470.151 482.68C468.531 482.68 467.081 482.33 465.801 481.63C464.541 480.93 463.551 479.97 462.831 478.75C462.111 477.53 461.751 476.13 461.751 474.55C461.751 472.97 462.111 471.57 462.831 470.35C463.551 469.13 464.541 468.18 465.801 467.5C467.081 466.8 468.531 466.45 470.151 466.45C471.591 466.45 472.871 466.74 473.991 467.32C475.131 467.88 476.011 468.72 476.631 469.84L474.441 471.25C473.921 470.47 473.281 469.9 472.521 469.54C471.781 469.16 470.981 468.97 470.121 468.97C469.081 468.97 468.151 469.2 467.331 469.66C466.511 470.12 465.861 470.77 465.381 471.61C464.901 472.43 464.661 473.41 464.661 474.55C464.661 475.69 464.901 476.68 465.381 477.52C465.861 478.36 466.511 479.01 467.331 479.47C468.151 479.93 469.081 480.16 470.121 480.16C470.981 480.16 471.781 479.98 472.521 479.62C473.281 479.24 473.921 478.66 474.441 477.88L476.631 479.26C476.011 480.36 475.131 481.21 473.991 481.81C472.871 482.39 471.591 482.68 470.151 482.68ZM480.154 482.5V460.24H483.034V482.5H480.154ZM495.223 482.68C493.863 482.68 492.663 482.43 491.623 481.93C490.603 481.43 489.803 480.67 489.223 479.65C488.663 478.61 488.383 477.31 488.383 475.75V466.6H491.263V475.42C491.263 476.98 491.633 478.15 492.373 478.93C493.133 479.71 494.193 480.1 495.553 480.1C496.553 480.1 497.423 479.9 498.163 479.5C498.903 479.08 499.473 478.48 499.873 477.7C500.273 476.9 500.473 475.94 500.473 474.82V466.6H503.353V482.5H500.623V478.21L501.073 479.35C500.553 480.41 499.773 481.23 498.733 481.81C497.693 482.39 496.523 482.68 495.223 482.68ZM509.526 488.5C508.766 488.5 508.026 488.37 507.306 488.11C506.586 487.87 505.966 487.51 505.446 487.03L506.676 484.87C507.076 485.25 507.516 485.54 507.996 485.74C508.476 485.94 508.986 486.04 509.526 486.04C510.226 486.04 510.806 485.86 511.266 485.5C511.726 485.14 512.156 484.5 512.556 483.58L513.546 481.39L513.846 481.03L520.086 466.6H522.906L515.196 484.09C514.736 485.21 514.216 486.09 513.636 486.73C513.076 487.37 512.456 487.82 511.776 488.08C511.096 488.36 510.346 488.5 509.526 488.5ZM513.306 483.01L506.046 466.6H509.046L515.226 480.76L513.306 483.01ZM532.234 482.68C530.534 482.68 529.034 482.33 527.734 481.63C526.454 480.93 525.454 479.97 524.734 478.75C524.034 477.53 523.684 476.13 523.684 474.55C523.684 472.97 524.024 471.57 524.704 470.35C525.404 469.13 526.354 468.18 527.554 467.5C528.774 466.8 530.144 466.45 531.664 466.45C533.204 466.45 534.564 466.79 535.744 467.47C536.924 468.15 537.844 469.11 538.504 470.35C539.184 471.57 539.524 473 539.524 474.64C539.524 474.76 539.514 474.9 539.494 475.06C539.494 475.22 539.484 475.37 539.464 475.51H525.934V473.44H537.964L536.794 474.16C536.814 473.14 536.604 472.23 536.164 471.43C535.724 470.63 535.114 470.01 534.334 469.57C533.574 469.11 532.684 468.88 531.664 468.88C530.664 468.88 529.774 469.11 528.994 469.57C528.214 470.01 527.604 470.64 527.164 471.46C526.724 472.26 526.504 473.18 526.504 474.22V474.7C526.504 475.76 526.744 476.71 527.224 477.55C527.724 478.37 528.414 479.01 529.294 479.47C530.174 479.93 531.184 480.16 532.324 480.16C533.264 480.16 534.114 480 534.874 479.68C535.654 479.36 536.334 478.88 536.914 478.24L538.504 480.1C537.784 480.94 536.884 481.58 535.804 482.02C534.744 482.46 533.554 482.68 532.234 482.68ZM552 482.5V461.5H555V482.5H552ZM567.142 482.5L557.902 461.5H561.142L569.632 480.88H567.772L576.322 461.5H579.322L570.112 482.5H567.142ZM578.146 482.5L587.656 461.5H590.626L600.166 482.5H597.016L588.526 463.18H589.726L581.236 482.5H578.146ZM582.196 477.25L583.006 474.85H594.826L595.696 477.25H582.196Z" fill="#C90302"/>
<path d="M286.621 453.18V393.02H293.021V453.18H286.621ZM288.925 446.268C285.341 446.268 281.906 445.799 278.621 444.86C275.335 443.879 272.69 442.62 270.685 441.084L274.205 433.276C276.125 434.641 278.386 435.772 280.989 436.668C283.634 437.521 286.301 437.948 288.989 437.948C291.037 437.948 292.679 437.756 293.917 437.372C295.197 436.945 296.135 436.369 296.733 435.644C297.33 434.919 297.629 434.087 297.629 433.148C297.629 431.953 297.159 431.015 296.221 430.332C295.282 429.607 294.045 429.031 292.509 428.604C290.973 428.135 289.266 427.708 287.389 427.324C285.554 426.897 283.698 426.385 281.821 425.788C279.986 425.191 278.301 424.423 276.765 423.484C275.229 422.545 273.97 421.308 272.989 419.772C272.05 418.236 271.581 416.273 271.581 413.884C271.581 411.324 272.263 408.999 273.629 406.908C275.037 404.775 277.127 403.089 279.901 401.852C282.717 400.572 286.237 399.932 290.461 399.932C293.277 399.932 296.05 400.273 298.781 400.956C301.511 401.596 303.922 402.577 306.013 403.9L302.813 411.772C300.722 410.577 298.631 409.703 296.541 409.148C294.45 408.551 292.402 408.252 290.397 408.252C288.391 408.252 286.749 408.487 285.469 408.956C284.189 409.425 283.271 410.044 282.717 410.812C282.162 411.537 281.885 412.391 281.885 413.372C281.885 414.524 282.354 415.463 283.293 416.188C284.231 416.871 285.469 417.425 287.005 417.852C288.541 418.279 290.226 418.705 292.061 419.132C293.938 419.559 295.794 420.049 297.629 420.604C299.506 421.159 301.213 421.905 302.749 422.844C304.285 423.783 305.522 425.02 306.461 426.556C307.442 428.092 307.933 430.033 307.933 432.38C307.933 434.897 307.229 437.201 305.821 439.292C304.413 441.383 302.301 443.068 299.485 444.348C296.711 445.628 293.191 446.268 288.925 446.268ZM318.488 445.5V404.54L322.968 409.02H309.528V400.7H328.856V445.5H318.488ZM355.839 446.268C352.169 446.268 348.884 445.372 345.983 443.58C343.081 441.745 340.799 439.1 339.135 435.644C337.471 432.188 336.639 428.007 336.639 423.1C336.639 418.193 337.471 414.012 339.135 410.556C340.799 407.1 343.081 404.476 345.983 402.684C348.884 400.849 352.169 399.932 355.839 399.932C359.551 399.932 362.836 400.849 365.695 402.684C368.596 404.476 370.879 407.1 372.543 410.556C374.207 414.012 375.039 418.193 375.039 423.1C375.039 428.007 374.207 432.188 372.543 435.644C370.879 439.1 368.596 441.745 365.695 443.58C362.836 445.372 359.551 446.268 355.839 446.268ZM355.839 437.5C357.588 437.5 359.103 437.009 360.383 436.028C361.705 435.047 362.729 433.489 363.455 431.356C364.223 429.223 364.607 426.471 364.607 423.1C364.607 419.729 364.223 416.977 363.455 414.844C362.729 412.711 361.705 411.153 360.383 410.172C359.103 409.191 357.588 408.7 355.839 408.7C354.132 408.7 352.617 409.191 351.295 410.172C350.015 411.153 348.991 412.711 348.223 414.844C347.497 416.977 347.135 419.729 347.135 423.1C347.135 426.471 347.497 429.223 348.223 431.356C348.991 433.489 350.015 435.047 351.295 436.028C352.617 437.009 354.132 437.5 355.839 437.5ZM379.648 455.356L383.872 439.996L385.28 445.756C383.445 445.756 381.93 445.223 380.736 444.156C379.584 443.089 379.008 441.617 379.008 439.74C379.008 437.863 379.605 436.369 380.8 435.26C381.994 434.151 383.466 433.596 385.216 433.596C387.008 433.596 388.48 434.172 389.632 435.324C390.784 436.433 391.36 437.905 391.36 439.74C391.36 440.295 391.317 440.849 391.232 441.404C391.146 441.916 390.976 442.556 390.72 443.324C390.506 444.049 390.144 444.988 389.632 446.14L385.984 455.356H379.648ZM414.401 446.268C410.732 446.268 407.447 445.372 404.545 443.58C401.644 441.745 399.361 439.1 397.697 435.644C396.033 432.188 395.201 428.007 395.201 423.1C395.201 418.193 396.033 414.012 397.697 410.556C399.361 407.1 401.644 404.476 404.545 402.684C407.447 400.849 410.732 399.932 414.401 399.932C418.113 399.932 421.399 400.849 424.257 402.684C427.159 404.476 429.441 407.1 431.105 410.556C432.769 414.012 433.601 418.193 433.601 423.1C433.601 428.007 432.769 432.188 431.105 435.644C429.441 439.1 427.159 441.745 424.257 443.58C421.399 445.372 418.113 446.268 414.401 446.268ZM414.401 437.5C416.151 437.5 417.665 437.009 418.945 436.028C420.268 435.047 421.292 433.489 422.017 431.356C422.785 429.223 423.169 426.471 423.169 423.1C423.169 419.729 422.785 416.977 422.017 414.844C421.292 412.711 420.268 411.153 418.945 410.172C417.665 409.191 416.151 408.7 414.401 408.7C412.695 408.7 411.18 409.191 409.857 410.172C408.577 411.153 407.553 412.711 406.785 414.844C406.06 416.977 405.697 419.729 405.697 423.1C405.697 426.471 406.06 429.223 406.785 431.356C407.553 433.489 408.577 435.047 409.857 436.028C411.18 437.009 412.695 437.5 414.401 437.5ZM457.839 446.268C454.169 446.268 450.884 445.372 447.983 443.58C445.081 441.745 442.799 439.1 441.135 435.644C439.471 432.188 438.639 428.007 438.639 423.1C438.639 418.193 439.471 414.012 441.135 410.556C442.799 407.1 445.081 404.476 447.983 402.684C450.884 400.849 454.169 399.932 457.839 399.932C461.551 399.932 464.836 400.849 467.695 402.684C470.596 404.476 472.879 407.1 474.543 410.556C476.207 414.012 477.039 418.193 477.039 423.1C477.039 428.007 476.207 432.188 474.543 435.644C472.879 439.1 470.596 441.745 467.695 443.58C464.836 445.372 461.551 446.268 457.839 446.268ZM457.839 437.5C459.588 437.5 461.103 437.009 462.383 436.028C463.705 435.047 464.729 433.489 465.455 431.356C466.223 429.223 466.607 426.471 466.607 423.1C466.607 419.729 466.223 416.977 465.455 414.844C464.729 412.711 463.705 411.153 462.383 410.172C461.103 409.191 459.588 408.7 457.839 408.7C456.132 408.7 454.617 409.191 453.295 410.172C452.015 411.153 450.991 412.711 450.223 414.844C449.497 416.977 449.135 419.729 449.135 423.1C449.135 426.471 449.497 429.223 450.223 431.356C450.991 433.489 452.015 435.047 453.295 436.028C454.617 437.009 456.132 437.5 457.839 437.5ZM501.276 446.268C497.607 446.268 494.322 445.372 491.42 443.58C488.519 441.745 486.236 439.1 484.572 435.644C482.908 432.188 482.076 428.007 482.076 423.1C482.076 418.193 482.908 414.012 484.572 410.556C486.236 407.1 488.519 404.476 491.42 402.684C494.322 400.849 497.607 399.932 501.276 399.932C504.988 399.932 508.274 400.849 511.132 402.684C514.034 404.476 516.316 407.1 517.98 410.556C519.644 414.012 520.476 418.193 520.476 423.1C520.476 428.007 519.644 432.188 517.98 435.644C516.316 439.1 514.034 441.745 511.132 443.58C508.274 445.372 504.988 446.268 501.276 446.268ZM501.276 437.5C503.026 437.5 504.54 437.009 505.82 436.028C507.143 435.047 508.167 433.489 508.892 431.356C509.66 429.223 510.044 426.471 510.044 423.1C510.044 419.729 509.66 416.977 508.892 414.844C508.167 412.711 507.143 411.153 505.82 410.172C504.54 409.191 503.026 408.7 501.276 408.7C499.57 408.7 498.055 409.191 496.732 410.172C495.452 411.153 494.428 412.711 493.66 414.844C492.935 416.977 492.572 419.729 492.572 423.1C492.572 426.471 492.935 429.223 493.66 431.356C494.428 433.489 495.452 435.047 496.732 436.028C498.055 437.009 499.57 437.5 501.276 437.5Z" fill="#C90302"/>
<rect x="37.5" y="37.5" width="829" height="146" fill="#C90302"/>
<path d="M217.246 78.96H227.356V82.74H217.246V78.96ZM217.606 87.6H229.036V91.5H212.776V70.5H228.646V74.4H217.606V87.6ZM242.383 75.12C243.663 75.12 244.803 75.38 245.803 75.9C246.823 76.4 247.623 77.18 248.203 78.24C248.783 79.28 249.073 80.62 249.073 82.26V91.5H244.393V82.98C244.393 81.68 244.103 80.72 243.523 80.1C242.963 79.48 242.163 79.17 241.123 79.17C240.383 79.17 239.713 79.33 239.113 79.65C238.533 79.95 238.073 80.42 237.733 81.06C237.413 81.7 237.253 82.52 237.253 83.52V91.5H232.573V75.36H237.043V79.83L236.203 78.48C236.783 77.4 237.613 76.57 238.693 75.99C239.773 75.41 241.003 75.12 242.383 75.12ZM261.811 91.5V69.24H266.491V91.5H261.811ZM280.735 91.5V88.35L280.435 87.66V82.02C280.435 81.02 280.125 80.24 279.505 79.68C278.905 79.12 277.975 78.84 276.715 78.84C275.855 78.84 275.005 78.98 274.165 79.26C273.345 79.52 272.645 79.88 272.065 80.34L270.385 77.07C271.265 76.45 272.325 75.97 273.565 75.63C274.805 75.29 276.065 75.12 277.345 75.12C279.805 75.12 281.715 75.7 283.075 76.86C284.435 78.02 285.115 79.83 285.115 82.29V91.5H280.735ZM275.815 91.74C274.555 91.74 273.475 91.53 272.575 91.11C271.675 90.67 270.985 90.08 270.505 89.34C270.025 88.6 269.785 87.77 269.785 86.85C269.785 85.89 270.015 85.05 270.475 84.33C270.955 83.61 271.705 83.05 272.725 82.65C273.745 82.23 275.075 82.02 276.715 82.02H281.005V84.75H277.225C276.125 84.75 275.365 84.93 274.945 85.29C274.545 85.65 274.345 86.1 274.345 86.64C274.345 87.24 274.575 87.72 275.035 88.08C275.515 88.42 276.165 88.59 276.985 88.59C277.765 88.59 278.465 88.41 279.085 88.05C279.705 87.67 280.155 87.12 280.435 86.4L281.155 88.56C280.815 89.6 280.195 90.39 279.295 90.93C278.395 91.47 277.235 91.74 275.815 91.74ZM305.647 91.74C303.907 91.74 302.357 91.39 300.997 90.69C299.637 89.97 298.567 88.98 297.787 87.72C297.027 86.46 296.647 85.03 296.647 83.43C296.647 81.81 297.027 80.38 297.787 79.14C298.567 77.88 299.637 76.9 300.997 76.2C302.357 75.48 303.907 75.12 305.647 75.12C307.347 75.12 308.827 75.48 310.087 76.2C311.347 76.9 312.277 77.91 312.877 79.23L309.247 81.18C308.827 80.42 308.297 79.86 307.657 79.5C307.037 79.14 306.357 78.96 305.617 78.96C304.817 78.96 304.097 79.14 303.457 79.5C302.817 79.86 302.307 80.37 301.927 81.03C301.567 81.69 301.387 82.49 301.387 83.43C301.387 84.37 301.567 85.17 301.927 85.83C302.307 86.49 302.817 87 303.457 87.36C304.097 87.72 304.817 87.9 305.617 87.9C306.357 87.9 307.037 87.73 307.657 87.39C308.297 87.03 308.827 86.46 309.247 85.68L312.877 87.66C312.277 88.96 311.347 89.97 310.087 90.69C308.827 91.39 307.347 91.74 305.647 91.74ZM323.046 91.74C321.326 91.74 319.796 91.38 318.456 90.66C317.136 89.94 316.086 88.96 315.306 87.72C314.546 86.46 314.166 85.03 314.166 83.43C314.166 81.81 314.546 80.38 315.306 79.14C316.086 77.88 317.136 76.9 318.456 76.2C319.796 75.48 321.326 75.12 323.046 75.12C324.746 75.12 326.266 75.48 327.606 76.2C328.946 76.9 329.996 77.87 330.756 79.11C331.516 80.35 331.896 81.79 331.896 83.43C331.896 85.03 331.516 86.46 330.756 87.72C329.996 88.96 328.946 89.94 327.606 90.66C326.266 91.38 324.746 91.74 323.046 91.74ZM323.046 87.9C323.826 87.9 324.526 87.72 325.146 87.36C325.766 87 326.256 86.49 326.616 85.83C326.976 85.15 327.156 84.35 327.156 83.43C327.156 82.49 326.976 81.69 326.616 81.03C326.256 80.37 325.766 79.86 325.146 79.5C324.526 79.14 323.826 78.96 323.046 78.96C322.266 78.96 321.566 79.14 320.946 79.5C320.326 79.86 319.826 80.37 319.446 81.03C319.086 81.69 318.906 82.49 318.906 83.43C318.906 84.35 319.086 85.15 319.446 85.83C319.826 86.49 320.326 87 320.946 87.36C321.566 87.72 322.266 87.9 323.046 87.9ZM355.694 75.12C356.974 75.12 358.104 75.38 359.084 75.9C360.084 76.4 360.864 77.18 361.424 78.24C362.004 79.28 362.294 80.62 362.294 82.26V91.5H357.614V82.98C357.614 81.68 357.344 80.72 356.804 80.1C356.264 79.48 355.504 79.17 354.524 79.17C353.844 79.17 353.234 79.33 352.694 79.65C352.154 79.95 351.734 80.41 351.434 81.03C351.134 81.65 350.984 82.44 350.984 83.4V91.5H346.304V82.98C346.304 81.68 346.034 80.72 345.494 80.1C344.974 79.48 344.224 79.17 343.244 79.17C342.564 79.17 341.954 79.33 341.414 79.65C340.874 79.95 340.454 80.41 340.154 81.03C339.854 81.65 339.704 82.44 339.704 83.4V91.5H335.024V75.36H339.494V79.77L338.654 78.48C339.214 77.38 340.004 76.55 341.024 75.99C342.064 75.41 343.244 75.12 344.564 75.12C346.044 75.12 347.334 75.5 348.434 76.26C349.554 77 350.294 78.14 350.654 79.68L349.004 79.23C349.544 77.97 350.404 76.97 351.584 76.23C352.784 75.49 354.154 75.12 355.694 75.12ZM376.029 91.74C374.669 91.74 373.479 91.44 372.459 90.84C371.439 90.24 370.639 89.33 370.059 88.11C369.499 86.87 369.219 85.31 369.219 83.43C369.219 81.53 369.489 79.97 370.029 78.75C370.569 77.53 371.349 76.62 372.369 76.02C373.389 75.42 374.609 75.12 376.029 75.12C377.549 75.12 378.909 75.47 380.109 76.17C381.329 76.85 382.289 77.81 382.989 79.05C383.709 80.29 384.069 81.75 384.069 83.43C384.069 85.13 383.709 86.6 382.989 87.84C382.289 89.08 381.329 90.04 380.109 90.72C378.909 91.4 377.549 91.74 376.029 91.74ZM366.489 97.32V75.36H370.959V78.66L370.869 83.46L371.169 88.23V97.32H366.489ZM375.219 87.9C375.999 87.9 376.689 87.72 377.289 87.36C377.909 87 378.399 86.49 378.759 85.83C379.139 85.15 379.329 84.35 379.329 83.43C379.329 82.49 379.139 81.69 378.759 81.03C378.399 80.37 377.909 79.86 377.289 79.5C376.689 79.14 375.999 78.96 375.219 78.96C374.439 78.96 373.739 79.14 373.119 79.5C372.499 79.86 372.009 80.37 371.649 81.03C371.289 81.69 371.109 82.49 371.109 83.43C371.109 84.35 371.289 85.15 371.649 85.83C372.009 86.49 372.499 87 373.119 87.36C373.739 87.72 374.439 87.9 375.219 87.9ZM387.202 91.5V75.36H391.672V79.92L391.042 78.6C391.522 77.46 392.292 76.6 393.352 76.02C394.412 75.42 395.702 75.12 397.222 75.12V79.44C397.022 79.42 396.842 79.41 396.682 79.41C396.522 79.39 396.352 79.38 396.172 79.38C394.892 79.38 393.852 79.75 393.052 80.49C392.272 81.21 391.882 82.34 391.882 83.88V91.5H387.202ZM408.85 91.5V88.35L408.55 87.66V82.02C408.55 81.02 408.24 80.24 407.62 79.68C407.02 79.12 406.09 78.84 404.83 78.84C403.97 78.84 403.12 78.98 402.28 79.26C401.46 79.52 400.76 79.88 400.18 80.34L398.5 77.07C399.38 76.45 400.44 75.97 401.68 75.63C402.92 75.29 404.18 75.12 405.46 75.12C407.92 75.12 409.83 75.7 411.19 76.86C412.55 78.02 413.23 79.83 413.23 82.29V91.5H408.85ZM403.93 91.74C402.67 91.74 401.59 91.53 400.69 91.11C399.79 90.67 399.1 90.08 398.62 89.34C398.14 88.6 397.9 87.77 397.9 86.85C397.9 85.89 398.13 85.05 398.59 84.33C399.07 83.61 399.82 83.05 400.84 82.65C401.86 82.23 403.19 82.02 404.83 82.02H409.12V84.75H405.34C404.24 84.75 403.48 84.93 403.06 85.29C402.66 85.65 402.46 86.1 402.46 86.64C402.46 87.24 402.69 87.72 403.15 88.08C403.63 88.42 404.28 88.59 405.1 88.59C405.88 88.59 406.58 88.41 407.2 88.05C407.82 87.67 408.27 87.12 408.55 86.4L409.27 88.56C408.93 89.6 408.31 90.39 407.41 90.93C406.51 91.47 405.35 91.74 403.93 91.74ZM432.892 91.74C431.372 91.74 430.002 91.4 428.782 90.72C427.562 90.02 426.592 89.05 425.872 87.81C425.172 86.57 424.822 85.11 424.822 83.43C424.822 81.73 425.172 80.26 425.872 79.02C426.592 77.78 427.562 76.82 428.782 76.14C430.002 75.46 431.372 75.12 432.892 75.12C434.252 75.12 435.442 75.42 436.462 76.02C437.482 76.62 438.272 77.53 438.832 78.75C439.392 79.97 439.672 81.53 439.672 83.43C439.672 85.31 439.402 86.87 438.862 88.11C438.322 89.33 437.542 90.24 436.522 90.84C435.522 91.44 434.312 91.74 432.892 91.74ZM433.702 87.9C434.462 87.9 435.152 87.72 435.772 87.36C436.392 87 436.882 86.49 437.242 85.83C437.622 85.15 437.812 84.35 437.812 83.43C437.812 82.49 437.622 81.69 437.242 81.03C436.882 80.37 436.392 79.86 435.772 79.5C435.152 79.14 434.462 78.96 433.702 78.96C432.922 78.96 432.222 79.14 431.602 79.5C430.982 79.86 430.482 80.37 430.102 81.03C429.742 81.69 429.562 82.49 429.562 83.43C429.562 84.35 429.742 85.15 430.102 85.83C430.482 86.49 430.982 87 431.602 87.36C432.222 87.72 432.922 87.9 433.702 87.9ZM437.932 91.5V88.2L438.022 83.4L437.722 78.63V69.24H442.402V91.5H437.932ZM454.743 91.74C452.903 91.74 451.283 91.38 449.883 90.66C448.503 89.94 447.433 88.96 446.673 87.72C445.913 86.46 445.533 85.03 445.533 83.43C445.533 81.81 445.903 80.38 446.643 79.14C447.403 77.88 448.433 76.9 449.733 76.2C451.033 75.48 452.503 75.12 454.143 75.12C455.723 75.12 457.143 75.46 458.403 76.14C459.683 76.8 460.693 77.76 461.433 79.02C462.173 80.26 462.543 81.75 462.543 83.49C462.543 83.67 462.533 83.88 462.513 84.12C462.493 84.34 462.473 84.55 462.453 84.75H449.343V82.02H459.993L458.193 82.83C458.193 81.99 458.023 81.26 457.683 80.64C457.343 80.02 456.873 79.54 456.273 79.2C455.673 78.84 454.973 78.66 454.173 78.66C453.373 78.66 452.663 78.84 452.043 79.2C451.443 79.54 450.973 80.03 450.633 80.67C450.293 81.29 450.123 82.03 450.123 82.89V83.61C450.123 84.49 450.313 85.27 450.693 85.95C451.093 86.61 451.643 87.12 452.343 87.48C453.063 87.82 453.903 87.99 454.863 87.99C455.723 87.99 456.473 87.86 457.113 87.6C457.773 87.34 458.373 86.95 458.913 86.43L461.403 89.13C460.663 89.97 459.733 90.62 458.613 91.08C457.493 91.52 456.203 91.74 454.743 91.74ZM465.659 91.5V69.24H470.339V91.5H465.659ZM492.719 91.74C491.359 91.74 490.169 91.44 489.149 90.84C488.129 90.24 487.329 89.33 486.749 88.11C486.189 86.87 485.909 85.31 485.909 83.43C485.909 81.53 486.179 79.97 486.719 78.75C487.259 77.53 488.039 76.62 489.059 76.02C490.079 75.42 491.299 75.12 492.719 75.12C494.239 75.12 495.599 75.47 496.799 76.17C498.019 76.85 498.979 77.81 499.679 79.05C500.399 80.29 500.759 81.75 500.759 83.43C500.759 85.13 500.399 86.6 499.679 87.84C498.979 89.08 498.019 90.04 496.799 90.72C495.599 91.4 494.239 91.74 492.719 91.74ZM483.179 97.32V75.36H487.649V78.66L487.559 83.46L487.859 88.23V97.32H483.179ZM491.909 87.9C492.689 87.9 493.379 87.72 493.979 87.36C494.599 87 495.089 86.49 495.449 85.83C495.829 85.15 496.019 84.35 496.019 83.43C496.019 82.49 495.829 81.69 495.449 81.03C495.089 80.37 494.599 79.86 493.979 79.5C493.379 79.14 492.689 78.96 491.909 78.96C491.129 78.96 490.429 79.14 489.809 79.5C489.189 79.86 488.699 80.37 488.339 81.03C487.979 81.69 487.799 82.49 487.799 83.43C487.799 84.35 487.979 85.15 488.339 85.83C488.699 86.49 489.189 87 489.809 87.36C490.429 87.72 491.129 87.9 491.909 87.9ZM503.892 91.5V69.24H508.572V91.5H503.892ZM522.815 91.5V88.35L522.515 87.66V82.02C522.515 81.02 522.205 80.24 521.585 79.68C520.985 79.12 520.055 78.84 518.795 78.84C517.935 78.84 517.085 78.98 516.245 79.26C515.425 79.52 514.725 79.88 514.145 80.34L512.465 77.07C513.345 76.45 514.405 75.97 515.645 75.63C516.885 75.29 518.145 75.12 519.425 75.12C521.885 75.12 523.795 75.7 525.155 76.86C526.515 78.02 527.195 79.83 527.195 82.29V91.5H522.815ZM517.895 91.74C516.635 91.74 515.555 91.53 514.655 91.11C513.755 90.67 513.065 90.08 512.585 89.34C512.105 88.6 511.865 87.77 511.865 86.85C511.865 85.89 512.095 85.05 512.555 84.33C513.035 83.61 513.785 83.05 514.805 82.65C515.825 82.23 517.155 82.02 518.795 82.02H523.085V84.75H519.305C518.205 84.75 517.445 84.93 517.025 85.29C516.625 85.65 516.425 86.1 516.425 86.64C516.425 87.24 516.655 87.72 517.115 88.08C517.595 88.42 518.245 88.59 519.065 88.59C519.845 88.59 520.545 88.41 521.165 88.05C521.785 87.67 522.235 87.12 522.515 86.4L523.235 88.56C522.895 89.6 522.275 90.39 521.375 90.93C520.475 91.47 519.315 91.74 517.895 91.74ZM541.241 75.12C542.521 75.12 543.661 75.38 544.661 75.9C545.681 76.4 546.481 77.18 547.061 78.24C547.641 79.28 547.931 80.62 547.931 82.26V91.5H543.251V82.98C543.251 81.68 542.961 80.72 542.381 80.1C541.821 79.48 541.021 79.17 539.981 79.17C539.241 79.17 538.571 79.33 537.971 79.65C537.391 79.95 536.931 80.42 536.591 81.06C536.271 81.7 536.111 82.52 536.111 83.52V91.5H531.431V75.36H535.901V79.83L535.061 78.48C535.641 77.4 536.471 76.57 537.551 75.99C538.631 75.41 539.861 75.12 541.241 75.12ZM570.569 91.5V88.35L570.269 87.66V82.02C570.269 81.02 569.959 80.24 569.339 79.68C568.739 79.12 567.809 78.84 566.549 78.84C565.689 78.84 564.839 78.98 563.999 79.26C563.179 79.52 562.479 79.88 561.899 80.34L560.219 77.07C561.099 76.45 562.159 75.97 563.399 75.63C564.639 75.29 565.899 75.12 567.179 75.12C569.639 75.12 571.549 75.7 572.909 76.86C574.269 78.02 574.949 79.83 574.949 82.29V91.5H570.569ZM565.649 91.74C564.389 91.74 563.309 91.53 562.409 91.11C561.509 90.67 560.819 90.08 560.339 89.34C559.859 88.6 559.619 87.77 559.619 86.85C559.619 85.89 559.849 85.05 560.309 84.33C560.789 83.61 561.539 83.05 562.559 82.65C563.579 82.23 564.909 82.02 566.549 82.02H570.839V84.75H567.059C565.959 84.75 565.199 84.93 564.779 85.29C564.379 85.65 564.179 86.1 564.179 86.64C564.179 87.24 564.409 87.72 564.869 88.08C565.349 88.42 565.999 88.59 566.819 88.59C567.599 88.59 568.299 88.41 568.919 88.05C569.539 87.67 569.989 87.12 570.269 86.4L570.989 88.56C570.649 89.6 570.029 90.39 569.129 90.93C568.229 91.47 567.069 91.74 565.649 91.74ZM588.994 75.12C590.274 75.12 591.414 75.38 592.414 75.9C593.434 76.4 594.234 77.18 594.814 78.24C595.394 79.28 595.684 80.62 595.684 82.26V91.5H591.004V82.98C591.004 81.68 590.714 80.72 590.134 80.1C589.574 79.48 588.774 79.17 587.734 79.17C586.994 79.17 586.324 79.33 585.724 79.65C585.144 79.95 584.684 80.42 584.344 81.06C584.024 81.7 583.864 82.52 583.864 83.52V91.5H579.184V75.36H583.654V79.83L582.814 78.48C583.394 77.4 584.224 76.57 585.304 75.99C586.384 75.41 587.614 75.12 588.994 75.12ZM606.737 91.74C605.397 91.74 604.197 91.48 603.137 90.96C602.097 90.44 601.287 89.65 600.707 88.59C600.127 87.51 599.837 86.14 599.837 84.48V75.36H604.517V83.79C604.517 85.13 604.797 86.12 605.357 86.76C605.937 87.38 606.747 87.69 607.787 87.69C608.507 87.69 609.147 87.54 609.707 87.24C610.267 86.92 610.707 86.44 611.027 85.8C611.347 85.14 611.507 84.32 611.507 83.34V75.36H616.187V91.5H611.747V87.06L612.557 88.35C612.017 89.47 611.217 90.32 610.157 90.9C609.117 91.46 607.977 91.74 606.737 91.74ZM630.422 91.5V88.35L630.122 87.66V82.02C630.122 81.02 629.812 80.24 629.192 79.68C628.592 79.12 627.662 78.84 626.402 78.84C625.542 78.84 624.692 78.98 623.852 79.26C623.032 79.52 622.332 79.88 621.752 80.34L620.072 77.07C620.952 76.45 622.012 75.97 623.252 75.63C624.492 75.29 625.752 75.12 627.032 75.12C629.492 75.12 631.402 75.7 632.762 76.86C634.122 78.02 634.802 79.83 634.802 82.29V91.5H630.422ZM625.502 91.74C624.242 91.74 623.162 91.53 622.262 91.11C621.362 90.67 620.672 90.08 620.192 89.34C619.712 88.6 619.472 87.77 619.472 86.85C619.472 85.89 619.702 85.05 620.162 84.33C620.642 83.61 621.392 83.05 622.412 82.65C623.432 82.23 624.762 82.02 626.402 82.02H630.692V84.75H626.912C625.812 84.75 625.052 84.93 624.632 85.29C624.232 85.65 624.032 86.1 624.032 86.64C624.032 87.24 624.262 87.72 624.722 88.08C625.202 88.42 625.852 88.59 626.672 88.59C627.452 88.59 628.152 88.41 628.772 88.05C629.392 87.67 629.842 87.12 630.122 86.4L630.842 88.56C630.502 89.6 629.882 90.39 628.982 90.93C628.082 91.47 626.922 91.74 625.502 91.74ZM639.038 91.5V69.24H643.718V91.5H639.038ZM647.251 96.12L649.231 88.92L649.891 91.62C649.031 91.62 648.321 91.37 647.761 90.87C647.221 90.37 646.951 89.68 646.951 88.8C646.951 87.92 647.231 87.22 647.791 86.7C648.351 86.18 649.041 85.92 649.861 85.92C650.701 85.92 651.391 86.19 651.931 86.73C652.471 87.25 652.741 87.94 652.741 88.8C652.741 89.06 652.721 89.32 652.681 89.58C652.641 89.82 652.561 90.12 652.441 90.48C652.341 90.82 652.171 91.26 651.931 91.8L650.221 96.12H647.251ZM671.009 91.74C669.109 91.74 667.629 91.26 666.569 90.3C665.509 89.32 664.979 87.87 664.979 85.95V71.79H669.659V85.89C669.659 86.57 669.839 87.1 670.199 87.48C670.559 87.84 671.049 88.02 671.669 88.02C672.409 88.02 673.039 87.82 673.559 87.42L674.819 90.72C674.339 91.06 673.759 91.32 673.079 91.5C672.419 91.66 671.729 91.74 671.009 91.74ZM662.489 79.32V75.72H673.679V79.32H662.489ZM684.958 91.74C683.118 91.74 681.498 91.38 680.098 90.66C678.718 89.94 677.648 88.96 676.888 87.72C676.128 86.46 675.748 85.03 675.748 83.43C675.748 81.81 676.118 80.38 676.858 79.14C677.618 77.88 678.648 76.9 679.948 76.2C681.248 75.48 682.718 75.12 684.358 75.12C685.938 75.12 687.358 75.46 688.618 76.14C689.898 76.8 690.908 77.76 691.648 79.02C692.388 80.26 692.758 81.75 692.758 83.49C692.758 83.67 692.748 83.88 692.728 84.12C692.708 84.34 692.688 84.55 692.668 84.75H679.558V82.02H690.208L688.408 82.83C688.408 81.99 688.238 81.26 687.898 80.64C687.558 80.02 687.088 79.54 686.488 79.2C685.888 78.84 685.188 78.66 684.388 78.66C683.588 78.66 682.878 78.84 682.258 79.2C681.658 79.54 681.188 80.03 680.848 80.67C680.508 81.29 680.338 82.03 680.338 82.89V83.61C680.338 84.49 680.528 85.27 680.908 85.95C681.308 86.61 681.858 87.12 682.558 87.48C683.278 87.82 684.118 87.99 685.078 87.99C685.938 87.99 686.688 87.86 687.328 87.6C687.988 87.34 688.588 86.95 689.128 86.43L691.618 89.13C690.878 89.97 689.948 90.62 688.828 91.08C687.708 91.52 686.418 91.74 684.958 91.74ZM213.592 150.5V122.564H227.944C230.632 122.564 232.968 123.012 234.952 123.908C236.936 124.772 238.472 126.004 239.56 127.604C240.648 129.204 241.192 131.108 241.192 133.316C241.192 135.492 240.648 137.38 239.56 138.98C238.472 140.548 236.936 141.764 234.952 142.628C232.968 143.46 230.632 143.876 227.944 143.876H219.688L224.632 139.46V150.5H213.592ZM230.056 150.5L223.144 140.324H234.808L241.816 150.5H230.056ZM224.632 140.66L220.648 135.956H227.08C228.136 135.956 228.904 135.716 229.384 135.236C229.896 134.724 230.152 134.084 230.152 133.316C230.152 132.548 229.896 131.924 229.384 131.444C228.904 130.932 228.136 130.676 227.08 130.676H220.648L224.632 125.972V140.66ZM255.406 132.644H267.55V140.036H255.406V132.644ZM256.174 142.58H269.71V150.5H245.326V122.564H269.182V130.484H256.174V142.58ZM301.049 147.668C299.865 148.436 298.553 149.092 297.113 149.636C295.673 150.148 294.217 150.532 292.745 150.788C291.305 151.076 289.961 151.22 288.713 151.22C285.353 151.22 282.425 150.596 279.929 149.348C277.465 148.068 275.545 146.324 274.169 144.116C272.825 141.876 272.153 139.348 272.153 136.532C272.153 133.684 272.857 131.156 274.265 128.948C275.705 126.74 277.689 125.012 280.217 123.764C282.745 122.484 285.657 121.844 288.953 121.844C291.897 121.844 294.441 122.324 296.585 123.284C298.761 124.244 300.569 125.652 302.009 127.508L294.761 133.508C293.961 132.484 293.065 131.732 292.073 131.252C291.113 130.74 290.073 130.484 288.953 130.484C287.833 130.484 286.841 130.724 285.977 131.204C285.145 131.684 284.489 132.372 284.009 133.268C283.529 134.164 283.289 135.252 283.289 136.532C283.289 137.78 283.513 138.852 283.961 139.748C284.409 140.644 285.049 141.348 285.881 141.86C286.713 142.34 287.721 142.58 288.905 142.58C289.961 142.58 290.953 142.42 291.881 142.1C292.841 141.748 293.849 141.22 294.905 140.516L301.049 147.668ZM291.497 147.812V135.908H301.049V147.668L291.497 147.812ZM302.106 150.5L314.394 122.564H325.242L337.53 150.5H326.826L318.042 127.556H321.642L312.666 150.5H302.106ZM310.074 146.18L312.858 138.788H325.002L327.786 146.18H310.074ZM339.217 150.5V122.564H350.257V142.34H362.401V150.5H339.217ZM362.34 150.5L374.628 122.564H385.476L397.764 150.5H387.06L378.276 127.556H381.876L372.9 150.5H362.34ZM370.308 146.18L373.092 138.788H385.236L388.02 146.18H370.308ZM399.451 150.5V122.564H408.523L419.419 139.844H414.907L425.419 122.564H434.491L434.587 150.5H424.555L424.459 137.252H425.899L419.419 147.956H414.523L407.659 137.252H409.483V150.5H399.451ZM454.598 151.22C451.462 151.22 448.662 150.596 446.198 149.348C443.734 148.068 441.798 146.324 440.39 144.116C438.982 141.876 438.278 139.348 438.278 136.532C438.278 133.684 438.982 131.156 440.39 128.948C441.798 126.74 443.734 125.012 446.198 123.764C448.662 122.484 451.462 121.844 454.598 121.844C457.734 121.844 460.518 122.484 462.95 123.764C465.414 125.012 467.35 126.74 468.758 128.948C470.166 131.156 470.87 133.684 470.87 136.532C470.87 139.348 470.166 141.876 468.758 144.116C467.35 146.324 465.414 148.068 462.95 149.348C460.518 150.596 457.734 151.22 454.598 151.22ZM454.598 142.58C455.622 142.58 456.518 142.324 457.286 141.812C458.054 141.3 458.646 140.596 459.062 139.7C459.51 138.772 459.734 137.716 459.734 136.532C459.734 135.348 459.51 134.308 459.062 133.412C458.646 132.484 458.054 131.764 457.286 131.252C456.518 130.74 455.622 130.484 454.598 130.484C453.606 130.484 452.71 130.74 451.91 131.252C451.142 131.764 450.534 132.484 450.086 133.412C449.638 134.308 449.414 135.348 449.414 136.532C449.414 137.716 449.638 138.772 450.086 139.7C450.534 140.596 451.142 141.3 451.91 141.812C452.71 142.324 453.606 142.58 454.598 142.58ZM499.217 141.428C499.217 143.188 498.689 144.82 497.633 146.324C496.609 147.796 495.057 148.98 492.977 149.876C490.929 150.772 488.337 151.22 485.201 151.22C482.865 151.22 480.561 150.964 478.289 150.452C476.017 149.94 474.129 149.284 472.625 148.484L476.129 140.708C477.537 141.508 479.089 142.132 480.785 142.58C482.481 142.996 484.161 143.204 485.825 143.204C486.817 143.204 487.489 143.108 487.841 142.916C488.225 142.724 488.417 142.516 488.417 142.292C488.417 141.908 488.129 141.604 487.553 141.38C487.009 141.156 486.273 140.964 485.345 140.804C484.449 140.644 483.457 140.452 482.369 140.228C481.281 140.004 480.177 139.716 479.057 139.364C477.969 138.98 476.961 138.468 476.033 137.828C475.137 137.188 474.401 136.356 473.825 135.332C473.281 134.308 473.009 133.044 473.009 131.54C473.009 129.748 473.553 128.132 474.641 126.692C475.761 125.22 477.361 124.052 479.441 123.188C481.553 122.292 484.081 121.844 487.025 121.844C488.913 121.844 490.817 122.052 492.737 122.468C494.689 122.852 496.433 123.46 497.969 124.292L494.705 132.02C493.361 131.252 492.001 130.708 490.625 130.388C489.281 130.036 487.953 129.86 486.641 129.86C485.681 129.86 484.961 129.972 484.481 130.196C484.033 130.388 483.809 130.66 483.809 131.012C483.809 131.364 484.081 131.652 484.625 131.876C485.201 132.068 485.937 132.244 486.833 132.404C487.761 132.564 488.769 132.756 489.857 132.98C490.977 133.172 492.081 133.444 493.169 133.796C494.257 134.148 495.249 134.644 496.145 135.284C497.073 135.924 497.809 136.74 498.353 137.732C498.929 138.724 499.217 139.956 499.217 141.428ZM510.55 150.5V129.5H520.09C522.37 129.5 524.38 129.94 526.12 130.82C527.86 131.68 529.22 132.89 530.2 134.45C531.18 136.01 531.67 137.86 531.67 140C531.67 142.12 531.18 143.97 530.2 145.55C529.22 147.11 527.86 148.33 526.12 149.21C524.38 150.07 522.37 150.5 520.09 150.5H510.55ZM515.41 146.51H519.85C521.25 146.51 522.46 146.25 523.48 145.73C524.52 145.19 525.32 144.43 525.88 143.45C526.46 142.47 526.75 141.32 526.75 140C526.75 138.66 526.46 137.51 525.88 136.55C525.32 135.57 524.52 134.82 523.48 134.3C522.46 133.76 521.25 133.49 519.85 133.49H515.41V146.51ZM545.535 150.86C543.875 150.86 542.335 150.59 540.915 150.05C539.515 149.51 538.295 148.75 537.255 147.77C536.235 146.79 535.435 145.64 534.855 144.32C534.295 143 534.015 141.56 534.015 140C534.015 138.44 534.295 137 534.855 135.68C535.435 134.36 536.245 133.21 537.285 132.23C538.325 131.25 539.545 130.49 540.945 129.95C542.345 129.41 543.865 129.14 545.505 129.14C547.165 129.14 548.685 129.41 550.065 129.95C551.465 130.49 552.675 131.25 553.695 132.23C554.735 133.21 555.545 134.36 556.125 135.68C556.705 136.98 556.995 138.42 556.995 140C556.995 141.56 556.705 143.01 556.125 144.35C555.545 145.67 554.735 146.82 553.695 147.8C552.675 148.76 551.465 149.51 550.065 150.05C548.685 150.59 547.175 150.86 545.535 150.86ZM545.505 146.72C546.445 146.72 547.305 146.56 548.085 146.24C548.885 145.92 549.585 145.46 550.185 144.86C550.785 144.26 551.245 143.55 551.565 142.73C551.905 141.91 552.075 141 552.075 140C552.075 139 551.905 138.09 551.565 137.27C551.245 136.45 550.785 135.74 550.185 135.14C549.605 134.54 548.915 134.08 548.115 133.76C547.315 133.44 546.445 133.28 545.505 133.28C544.565 133.28 543.695 133.44 542.895 133.76C542.115 134.08 541.425 134.54 540.825 135.14C540.225 135.74 539.755 136.45 539.415 137.27C539.095 138.09 538.935 139 538.935 140C538.935 140.98 539.095 141.89 539.415 142.73C539.755 143.55 540.215 144.26 540.795 144.86C541.395 145.46 542.095 145.92 542.895 146.24C543.695 146.56 544.565 146.72 545.505 146.72ZM567.547 150.86C565.867 150.86 564.257 150.64 562.717 150.2C561.177 149.74 559.937 149.15 558.997 148.43L560.647 144.77C561.547 145.41 562.607 145.94 563.827 146.36C565.067 146.76 566.317 146.96 567.577 146.96C568.537 146.96 569.307 146.87 569.887 146.69C570.487 146.49 570.927 146.22 571.207 145.88C571.487 145.54 571.627 145.15 571.627 144.71C571.627 144.15 571.407 143.71 570.967 143.39C570.527 143.05 569.947 142.78 569.227 142.58C568.507 142.36 567.707 142.16 566.827 141.98C565.967 141.78 565.097 141.54 564.217 141.26C563.357 140.98 562.567 140.62 561.847 140.18C561.127 139.74 560.537 139.16 560.077 138.44C559.637 137.72 559.417 136.8 559.417 135.68C559.417 134.48 559.737 133.39 560.377 132.41C561.037 131.41 562.017 130.62 563.317 130.04C564.637 129.44 566.287 129.14 568.267 129.14C569.587 129.14 570.887 129.3 572.167 129.62C573.447 129.92 574.577 130.38 575.557 131L574.057 134.69C573.077 134.13 572.097 133.72 571.117 133.46C570.137 133.18 569.177 133.04 568.237 133.04C567.297 133.04 566.527 133.15 565.927 133.37C565.327 133.59 564.897 133.88 564.637 134.24C564.377 134.58 564.247 134.98 564.247 135.44C564.247 135.98 564.467 136.42 564.907 136.76C565.347 137.08 565.927 137.34 566.647 137.54C567.367 137.74 568.157 137.94 569.017 138.14C569.897 138.34 570.767 138.57 571.627 138.83C572.507 139.09 573.307 139.44 574.027 139.88C574.747 140.32 575.327 140.9 575.767 141.62C576.227 142.34 576.457 143.25 576.457 144.35C576.457 145.53 576.127 146.61 575.467 147.59C574.807 148.57 573.817 149.36 572.497 149.96C571.197 150.56 569.547 150.86 567.547 150.86ZM588.274 150.5V129.5H592.294L601.234 144.32H599.104L607.894 129.5H611.884L611.944 150.5H607.384L607.354 136.49H608.194L601.174 148.28H598.984L591.814 136.49H592.834V150.5H588.274ZM621.397 137.96H631.507V141.74H621.397V137.96ZM621.757 146.6H633.187V150.5H616.927V129.5H632.797V133.4H621.757V146.6ZM643.954 150.86C642.274 150.86 640.664 150.64 639.124 150.2C637.584 149.74 636.344 149.15 635.404 148.43L637.054 144.77C637.954 145.41 639.014 145.94 640.234 146.36C641.474 146.76 642.724 146.96 643.984 146.96C644.944 146.96 645.714 146.87 646.294 146.69C646.894 146.49 647.334 146.22 647.614 145.88C647.894 145.54 648.034 145.15 648.034 144.71C648.034 144.15 647.814 143.71 647.374 143.39C646.934 143.05 646.354 142.78 645.634 142.58C644.914 142.36 644.114 142.16 643.234 141.98C642.374 141.78 641.504 141.54 640.624 141.26C639.764 140.98 638.974 140.62 638.254 140.18C637.534 139.74 636.944 139.16 636.484 138.44C636.044 137.72 635.824 136.8 635.824 135.68C635.824 134.48 636.144 133.39 636.784 132.41C637.444 131.41 638.424 130.62 639.724 130.04C641.044 129.44 642.694 129.14 644.674 129.14C645.994 129.14 647.294 129.3 648.574 129.62C649.854 129.92 650.984 130.38 651.964 131L650.464 134.69C649.484 134.13 648.504 133.72 647.524 133.46C646.544 133.18 645.584 133.04 644.644 133.04C643.704 133.04 642.934 133.15 642.334 133.37C641.734 133.59 641.304 133.88 641.044 134.24C640.784 134.58 640.654 134.98 640.654 135.44C640.654 135.98 640.874 136.42 641.314 136.76C641.754 137.08 642.334 137.34 643.054 137.54C643.774 137.74 644.564 137.94 645.424 138.14C646.304 138.34 647.174 138.57 648.034 138.83C648.914 139.09 649.714 139.44 650.434 139.88C651.154 140.32 651.734 140.9 652.174 141.62C652.634 142.34 652.864 143.25 652.864 144.35C652.864 145.53 652.534 146.61 651.874 147.59C651.214 148.57 650.224 149.36 648.904 149.96C647.604 150.56 645.954 150.86 643.954 150.86ZM660.654 137.96H670.764V141.74H660.654V137.96ZM661.014 146.6H672.444V150.5H656.184V129.5H672.054V133.4H661.014V146.6ZM683.211 150.86C681.531 150.86 679.921 150.64 678.381 150.2C676.841 149.74 675.601 149.15 674.661 148.43L676.311 144.77C677.211 145.41 678.271 145.94 679.491 146.36C680.731 146.76 681.981 146.96 683.241 146.96C684.201 146.96 684.971 146.87 685.551 146.69C686.151 146.49 686.591 146.22 686.871 145.88C687.151 145.54 687.291 145.15 687.291 144.71C687.291 144.15 687.071 143.71 686.631 143.39C686.191 143.05 685.611 142.78 684.891 142.58C684.171 142.36 683.371 142.16 682.491 141.98C681.631 141.78 680.761 141.54 679.881 141.26C679.021 140.98 678.231 140.62 677.511 140.18C676.791 139.74 676.201 139.16 675.741 138.44C675.301 137.72 675.081 136.8 675.081 135.68C675.081 134.48 675.401 133.39 676.041 132.41C676.701 131.41 677.681 130.62 678.981 130.04C680.301 129.44 681.951 129.14 683.931 129.14C685.251 129.14 686.551 129.3 687.831 129.62C689.111 129.92 690.241 130.38 691.221 131L689.721 134.69C688.741 134.13 687.761 133.72 686.781 133.46C685.801 133.18 684.841 133.04 683.901 133.04C682.961 133.04 682.191 133.15 681.591 133.37C680.991 133.59 680.561 133.88 680.301 134.24C680.041 134.58 679.911 134.98 679.911 135.44C679.911 135.98 680.131 136.42 680.571 136.76C681.011 137.08 681.591 137.34 682.311 137.54C683.031 137.74 683.821 137.94 684.681 138.14C685.561 138.34 686.431 138.57 687.291 138.83C688.171 139.09 688.971 139.44 689.691 139.88C690.411 140.32 690.991 140.9 691.431 141.62C691.891 142.34 692.121 143.25 692.121 144.35C692.121 145.53 691.791 146.61 691.131 147.59C690.471 148.57 689.481 149.36 688.161 149.96C686.861 150.56 685.211 150.86 683.211 150.86Z" fill="white"/>
<defs>
<filter id="filter0_d_11_183" x="896" y="0" width="516" height="605" filterUnits="userSpaceOnUse" color-interpolation-filters="sRGB">
<feFlood flood-opacity="0" result="BackgroundImageFix"/>
<feColorMatrix in="SourceAlpha" type="matrix" values="0 0 0 0 0 0 0 0 0 0 0 0 0 0 0 0 0 0 127 0" result="hardAlpha"/>
<feOffset/>
<feGaussianBlur stdDeviation="18.75"/>
<feComposite in2="hardAlpha" operator="out"/>
<feColorMatrix type="matrix" values="0 0 0 0 0.788235 0 0 0 0 0.0117647 0 0 0 0 0.00784314 0 0 0 0.22 0"/>
<feBlend mode="normal" in2="BackgroundImageFix" result="effect1_dropShadow_11_183"/>
<feBlend mode="normal" in="SourceGraphic" in2="effect1_dropShadow_11_183" result="shape"/>
</filter>
<filter id="filter1_d_11_183" x="0" y="173" width="904" height="432" filterUnits="userSpaceOnUse" color-interpolation-filters="sRGB">
<feFlood flood-opacity="0" result="BackgroundImageFix"/>
<feColorMatrix in="SourceAlpha" type="matrix" values="0 0 0 0 0 0 0 0 0 0 0 0 0 0 0 0 0 0 127 0" result="hardAlpha"/>
<feOffset/>
<feGaussianBlur stdDeviation="18.75"/>
<feComposite in2="hardAlpha" operator="out"/>
<feColorMatrix type="matrix" values="0 0 0 0 0.788235 0 0 0 0 0.0117647 0 0 0 0 0.00784314 0 0 0 0.22 0"/>
<feBlend mode="normal" in2="BackgroundImageFix" result="effect1_dropShadow_11_183"/>
<feBlend mode="normal" in="SourceGraphic" in2="effect1_dropShadow_11_183" result="shape"/>
</filter>
</defs>
</svg>
