<svg width="904" height="988" viewBox="0 0 904 988" fill="none" xmlns="http://www.w3.org/2000/svg">
<g filter="url(#filter0_d_15_295)">
<rect x="37.5" y="593" width="829" height="357" fill="white"/>
</g>
<path d="M360.881 863.163V847.263H363.761V863.163H360.881ZM362.321 844.203C361.761 844.203 361.291 844.023 360.911 843.663C360.551 843.303 360.371 842.863 360.371 842.343C360.371 841.803 360.551 841.353 360.911 840.993C361.291 840.633 361.761 840.453 362.321 840.453C362.881 840.453 363.341 840.633 363.701 840.993C364.081 841.333 364.271 841.763 364.271 842.283C364.271 842.823 364.091 843.283 363.731 843.663C363.371 844.023 362.901 844.203 362.321 844.203ZM377.75 847.113C379.05 847.113 380.19 847.363 381.17 847.863C382.17 848.363 382.95 849.123 383.51 850.143C384.07 851.163 384.35 852.453 384.35 854.013V863.163H381.47V854.343C381.47 852.803 381.09 851.643 380.33 850.863C379.59 850.083 378.54 849.693 377.18 849.693C376.16 849.693 375.27 849.893 374.51 850.293C373.75 850.693 373.16 851.283 372.74 852.063C372.34 852.843 372.14 853.813 372.14 854.973V863.163H369.26V847.263H372.02V851.553L371.57 850.413C372.09 849.373 372.89 848.563 373.97 847.983C375.05 847.403 376.31 847.113 377.75 847.113ZM396.61 863.343C394.99 863.343 393.54 862.993 392.26 862.293C391 861.593 390.01 860.633 389.29 859.413C388.57 858.193 388.21 856.793 388.21 855.213C388.21 853.633 388.57 852.233 389.29 851.013C390.01 849.793 391 848.843 392.26 848.163C393.54 847.463 394.99 847.113 396.61 847.113C398.05 847.113 399.33 847.403 400.45 847.983C401.59 848.543 402.47 849.383 403.09 850.503L400.9 851.913C400.38 851.133 399.74 850.563 398.98 850.203C398.24 849.823 397.44 849.633 396.58 849.633C395.54 849.633 394.61 849.863 393.79 850.323C392.97 850.783 392.32 851.433 391.84 852.273C391.36 853.093 391.12 854.073 391.12 855.213C391.12 856.353 391.36 857.343 391.84 858.183C392.32 859.023 392.97 859.673 393.79 860.133C394.61 860.593 395.54 860.823 396.58 860.823C397.44 860.823 398.24 860.643 398.98 860.283C399.74 859.903 400.38 859.323 400.9 858.543L403.09 859.923C402.47 861.023 401.59 861.873 400.45 862.473C399.33 863.053 398.05 863.343 396.61 863.343ZM406.613 863.163V840.903H409.493V863.163H406.613ZM421.682 863.343C420.322 863.343 419.122 863.093 418.082 862.593C417.062 862.093 416.262 861.333 415.682 860.313C415.122 859.273 414.842 857.973 414.842 856.413V847.263H417.722V856.083C417.722 857.643 418.092 858.813 418.832 859.593C419.592 860.373 420.652 860.763 422.012 860.763C423.012 860.763 423.882 860.563 424.622 860.163C425.362 859.743 425.932 859.143 426.332 858.363C426.732 857.563 426.932 856.603 426.932 855.483V847.263H429.812V863.163H427.082V858.873L427.532 860.013C427.012 861.073 426.232 861.893 425.192 862.473C424.152 863.053 422.982 863.343 421.682 863.343ZM435.985 869.163C435.225 869.163 434.485 869.033 433.765 868.773C433.045 868.533 432.425 868.173 431.905 867.693L433.135 865.533C433.535 865.913 433.975 866.203 434.455 866.403C434.935 866.603 435.445 866.703 435.985 866.703C436.685 866.703 437.265 866.523 437.725 866.163C438.185 865.803 438.615 865.163 439.015 864.243L440.005 862.053L440.305 861.693L446.545 847.263H449.365L441.655 864.753C441.195 865.873 440.675 866.753 440.095 867.393C439.535 868.033 438.915 868.483 438.235 868.743C437.555 869.023 436.805 869.163 435.985 869.163ZM439.765 863.673L432.505 847.263H435.505L441.685 861.423L439.765 863.673ZM458.693 863.343C456.993 863.343 455.493 862.993 454.193 862.293C452.913 861.593 451.913 860.633 451.193 859.413C450.493 858.193 450.143 856.793 450.143 855.213C450.143 853.633 450.483 852.233 451.163 851.013C451.863 849.793 452.813 848.843 454.013 848.163C455.233 847.463 456.603 847.113 458.123 847.113C459.663 847.113 461.023 847.453 462.203 848.133C463.383 848.813 464.303 849.773 464.963 851.013C465.643 852.233 465.983 853.663 465.983 855.303C465.983 855.423 465.973 855.563 465.953 855.723C465.953 855.883 465.943 856.033 465.923 856.173H452.393V854.103H464.423L463.253 854.823C463.273 853.803 463.063 852.893 462.623 852.093C462.183 851.293 461.573 850.673 460.793 850.233C460.033 849.773 459.143 849.543 458.123 849.543C457.123 849.543 456.233 849.773 455.453 850.233C454.673 850.673 454.063 851.303 453.623 852.123C453.183 852.923 452.963 853.843 452.963 854.883V855.363C452.963 856.423 453.203 857.373 453.683 858.213C454.183 859.033 454.873 859.673 455.753 860.133C456.633 860.593 457.643 860.823 458.783 860.823C459.723 860.823 460.573 860.663 461.333 860.343C462.113 860.023 462.793 859.543 463.373 858.903L464.963 860.763C464.243 861.603 463.343 862.243 462.263 862.683C461.203 863.123 460.013 863.343 458.693 863.343ZM478.459 863.163V842.163H481.459V863.163H478.459ZM493.601 863.163L484.361 842.163H487.601L496.091 861.543H494.231L502.781 842.163H505.781L496.571 863.163H493.601ZM504.605 863.163L514.115 842.163H517.085L526.625 863.163H523.475L514.985 843.843H516.185L507.695 863.163H504.605ZM508.655 857.913L509.465 855.513H521.285L522.155 857.913H508.655Z" fill="#C90302"/>
<path d="M517.66 828.704L527.56 800.444H530.17L520.27 828.704H517.66ZM537.074 825.704L546.584 804.704H549.554L559.094 825.704H555.944L547.454 806.384H548.654L540.164 825.704H537.074ZM541.124 820.454L541.934 818.054H553.754L554.624 820.454H541.124ZM570.296 809.654C571.596 809.654 572.736 809.904 573.716 810.404C574.716 810.904 575.496 811.664 576.056 812.684C576.616 813.704 576.896 814.994 576.896 816.554V825.704H574.016V816.884C574.016 815.344 573.636 814.184 572.876 813.404C572.136 812.624 571.086 812.234 569.726 812.234C568.706 812.234 567.816 812.434 567.056 812.834C566.296 813.234 565.706 813.824 565.286 814.604C564.886 815.384 564.686 816.354 564.686 817.514V825.704H561.806V809.804H564.566V814.094L564.116 812.954C564.636 811.914 565.436 811.104 566.516 810.524C567.596 809.944 568.856 809.654 570.296 809.654ZM588.916 825.884C587.556 825.884 586.356 825.634 585.316 825.134C584.296 824.634 583.496 823.874 582.916 822.854C582.356 821.814 582.076 820.514 582.076 818.954V809.804H584.956V818.624C584.956 820.184 585.326 821.354 586.066 822.134C586.826 822.914 587.886 823.304 589.246 823.304C590.246 823.304 591.116 823.104 591.856 822.704C592.596 822.284 593.166 821.684 593.566 820.904C593.966 820.104 594.166 819.144 594.166 818.024V809.804H597.046V825.704H594.316V821.414L594.766 822.554C594.246 823.614 593.466 824.434 592.426 825.014C591.386 825.594 590.216 825.884 588.916 825.884ZM612.399 825.704V822.344L612.249 821.714V815.984C612.249 814.764 611.889 813.824 611.169 813.164C610.469 812.484 609.409 812.144 607.989 812.144C607.049 812.144 606.129 812.304 605.229 812.624C604.329 812.924 603.569 813.334 602.949 813.854L601.749 811.694C602.569 811.034 603.549 810.534 604.689 810.194C605.849 809.834 607.059 809.654 608.319 809.654C610.499 809.654 612.179 810.184 613.359 811.244C614.539 812.304 615.129 813.924 615.129 816.104V825.704H612.399ZM607.179 825.884C605.999 825.884 604.959 825.684 604.059 825.284C603.179 824.884 602.499 824.334 602.019 823.634C601.539 822.914 601.299 822.104 601.299 821.204C601.299 820.344 601.499 819.564 601.899 818.864C602.319 818.164 602.989 817.604 603.909 817.184C604.849 816.764 606.109 816.554 607.689 816.554H612.729V818.624H607.809C606.369 818.624 605.399 818.864 604.899 819.344C604.399 819.824 604.149 820.404 604.149 821.084C604.149 821.864 604.459 822.494 605.079 822.974C605.699 823.434 606.559 823.664 607.659 823.664C608.739 823.664 609.679 823.424 610.479 822.944C611.299 822.464 611.889 821.764 612.249 820.844L612.819 822.824C612.439 823.764 611.769 824.514 610.809 825.074C609.849 825.614 608.639 825.884 607.179 825.884ZM620.459 825.704V803.444H623.339V825.704H620.459Z" fill="#C90302"/>
<path d="M293.384 840.384V780.224H299.784V840.384H293.384ZM295.688 833.472C292.104 833.472 288.67 833.003 285.384 832.064C282.099 831.083 279.454 829.824 277.448 828.288L280.968 820.48C282.888 821.845 285.15 822.976 287.752 823.872C290.398 824.725 293.064 825.152 295.752 825.152C297.8 825.152 299.443 824.96 300.68 824.576C301.96 824.149 302.899 823.573 303.496 822.848C304.094 822.123 304.392 821.291 304.392 820.352C304.392 819.157 303.923 818.219 302.984 817.536C302.046 816.811 300.808 816.235 299.272 815.808C297.736 815.339 296.03 814.912 294.152 814.528C292.318 814.101 290.462 813.589 288.584 812.992C286.75 812.395 285.064 811.627 283.528 810.688C281.992 809.749 280.734 808.512 279.752 806.976C278.814 805.44 278.344 803.477 278.344 801.088C278.344 798.528 279.027 796.203 280.392 794.112C281.8 791.979 283.891 790.293 286.664 789.056C289.48 787.776 293 787.136 297.224 787.136C300.04 787.136 302.814 787.477 305.544 788.16C308.275 788.8 310.686 789.781 312.776 791.104L309.576 798.976C307.486 797.781 305.395 796.907 303.304 796.352C301.214 795.755 299.166 795.456 297.16 795.456C295.155 795.456 293.512 795.691 292.232 796.16C290.952 796.629 290.035 797.248 289.48 798.016C288.926 798.741 288.648 799.595 288.648 800.576C288.648 801.728 289.118 802.667 290.056 803.392C290.995 804.075 292.232 804.629 293.768 805.056C295.304 805.483 296.99 805.909 298.824 806.336C300.702 806.763 302.558 807.253 304.392 807.808C306.27 808.363 307.976 809.109 309.512 810.048C311.048 810.987 312.286 812.224 313.224 813.76C314.206 815.296 314.696 817.237 314.696 819.584C314.696 822.101 313.992 824.405 312.584 826.496C311.176 828.587 309.064 830.272 306.248 831.552C303.475 832.832 299.955 833.472 295.688 833.472ZM333.305 833.472C330.191 833.472 327.097 833.067 324.025 832.256C320.953 831.403 318.351 830.208 316.217 828.672L320.249 820.736C321.956 821.973 323.94 822.955 326.201 823.68C328.463 824.405 330.745 824.768 333.049 824.768C335.652 824.768 337.7 824.256 339.193 823.232C340.687 822.208 341.433 820.8 341.433 819.008C341.433 817.301 340.772 815.957 339.449 814.976C338.127 813.995 335.993 813.504 333.049 813.504H328.313V806.656L340.793 792.512L341.945 796.224H318.457V787.904H349.817V794.624L337.401 808.768L332.153 805.76H335.161C340.665 805.76 344.825 806.997 347.641 809.472C350.457 811.947 351.865 815.125 351.865 819.008C351.865 821.525 351.204 823.893 349.881 826.112C348.559 828.288 346.532 830.059 343.801 831.424C341.071 832.789 337.572 833.472 333.305 833.472ZM357.036 842.56L361.26 827.2L362.668 832.96C360.834 832.96 359.319 832.427 358.124 831.36C356.972 830.293 356.396 828.821 356.396 826.944C356.396 825.067 356.994 823.573 358.188 822.464C359.383 821.355 360.855 820.8 362.604 820.8C364.396 820.8 365.868 821.376 367.02 822.528C368.172 823.637 368.748 825.109 368.748 826.944C368.748 827.499 368.706 828.053 368.62 828.608C368.535 829.12 368.364 829.76 368.108 830.528C367.895 831.253 367.532 832.192 367.02 833.344L363.372 842.56H357.036ZM372.89 823.296V816.32L394.01 787.904H404.89L384.218 816.32L379.162 814.848H414.426V823.296H372.89ZM397.018 832.704V823.296L397.338 814.848V806.464H407.13V832.704H397.018ZM436.712 833.472C432.958 833.472 429.672 832.917 426.856 831.808C424.04 830.656 421.843 829.056 420.264 827.008C418.686 824.917 417.896 822.485 417.896 819.712C417.896 816.939 418.664 814.592 420.2 812.672C421.779 810.709 423.976 809.237 426.792 808.256C429.608 807.232 432.915 806.72 436.712 806.72C440.552 806.72 443.88 807.232 446.696 808.256C449.555 809.237 451.752 810.709 453.288 812.672C454.867 814.592 455.656 816.939 455.656 819.712C455.656 822.485 454.867 824.917 453.288 827.008C451.71 829.056 449.491 830.656 446.632 831.808C443.816 832.917 440.51 833.472 436.712 833.472ZM436.712 825.856C439.315 825.856 441.363 825.28 442.856 824.128C444.392 822.976 445.16 821.397 445.16 819.392C445.16 817.387 444.392 815.829 442.856 814.72C441.363 813.568 439.315 812.992 436.712 812.992C434.152 812.992 432.126 813.568 430.632 814.72C429.139 815.829 428.392 817.387 428.392 819.392C428.392 821.397 429.139 822.976 430.632 824.128C432.126 825.28 434.152 825.856 436.712 825.856ZM436.712 811.968C433.256 811.968 430.227 811.499 427.624 810.56C425.064 809.621 423.059 808.256 421.608 806.464C420.2 804.629 419.496 802.453 419.496 799.936C419.496 797.291 420.222 795.029 421.672 793.152C423.123 791.232 425.15 789.76 427.752 788.736C430.355 787.669 433.342 787.136 436.712 787.136C440.168 787.136 443.176 787.669 445.736 788.736C448.339 789.76 450.366 791.232 451.816 793.152C453.31 795.029 454.056 797.291 454.056 799.936C454.056 802.453 453.331 804.629 451.88 806.464C450.472 808.256 448.467 809.621 445.864 810.56C443.262 811.499 440.211 811.968 436.712 811.968ZM436.712 805.888C438.888 805.888 440.595 805.397 441.832 804.416C443.112 803.435 443.752 802.091 443.752 800.384C443.752 798.592 443.091 797.205 441.768 796.224C440.488 795.243 438.803 794.752 436.712 794.752C434.664 794.752 433 795.243 431.72 796.224C430.44 797.205 429.8 798.592 429.8 800.384C429.8 802.091 430.419 803.435 431.656 804.416C432.894 805.397 434.579 805.888 436.712 805.888ZM479.602 833.472C475.933 833.472 472.648 832.576 469.746 830.784C466.845 828.949 464.562 826.304 462.898 822.848C461.234 819.392 460.402 815.211 460.402 810.304C460.402 805.397 461.234 801.216 462.898 797.76C464.562 794.304 466.845 791.68 469.746 789.888C472.648 788.053 475.933 787.136 479.602 787.136C483.314 787.136 486.6 788.053 489.458 789.888C492.36 791.68 494.642 794.304 496.306 797.76C497.97 801.216 498.802 805.397 498.802 810.304C498.802 815.211 497.97 819.392 496.306 822.848C494.642 826.304 492.36 828.949 489.458 830.784C486.6 832.576 483.314 833.472 479.602 833.472ZM479.602 824.704C481.352 824.704 482.866 824.213 484.146 823.232C485.469 822.251 486.493 820.693 487.218 818.56C487.986 816.427 488.37 813.675 488.37 810.304C488.37 806.933 487.986 804.181 487.218 802.048C486.493 799.915 485.469 798.357 484.146 797.376C482.866 796.395 481.352 795.904 479.602 795.904C477.896 795.904 476.381 796.395 475.058 797.376C473.778 798.357 472.754 799.915 471.986 802.048C471.261 804.181 470.898 806.933 470.898 810.304C470.898 813.675 471.261 816.427 471.986 818.56C472.754 820.693 473.778 822.251 475.058 823.232C476.381 824.213 477.896 824.704 479.602 824.704Z" fill="#C90302"/>
<path d="M350.662 698V677H359.752C361.632 677 363.252 677.31 364.612 677.93C365.972 678.53 367.022 679.4 367.762 680.54C368.502 681.68 368.872 683.04 368.872 684.62C368.872 686.18 368.502 687.53 367.762 688.67C367.022 689.81 365.972 690.69 364.612 691.31C363.252 691.91 361.632 692.21 359.752 692.21H353.362L355.522 690.02V698H350.662ZM355.522 690.56L353.362 688.25H359.482C360.982 688.25 362.102 687.93 362.842 687.29C363.582 686.65 363.952 685.76 363.952 684.62C363.952 683.46 363.582 682.56 362.842 681.92C362.102 681.28 360.982 680.96 359.482 680.96H353.362L355.522 678.65V690.56ZM372.342 698V677H377.202V694.04H387.732V698H372.342ZM387.804 698L397.164 677H401.964L411.354 698H406.254L398.574 679.46H400.494L392.784 698H387.804ZM392.484 693.5L393.774 689.81H404.574L405.894 693.5H392.484ZM413.533 698V677H417.553L429.943 692.12H427.993V677H432.793V698H428.803L416.383 682.88H418.333V698H413.533ZM453.158 698.36C451.478 698.36 449.868 698.14 448.328 697.7C446.788 697.24 445.548 696.65 444.608 695.93L446.258 692.27C447.158 692.91 448.218 693.44 449.438 693.86C450.678 694.26 451.928 694.46 453.188 694.46C454.148 694.46 454.918 694.37 455.498 694.19C456.098 693.99 456.538 693.72 456.818 693.38C457.098 693.04 457.238 692.65 457.238 692.21C457.238 691.65 457.018 691.21 456.578 690.89C456.138 690.55 455.558 690.28 454.838 690.08C454.118 689.86 453.318 689.66 452.438 689.48C451.578 689.28 450.708 689.04 449.828 688.76C448.968 688.48 448.178 688.12 447.458 687.68C446.738 687.24 446.148 686.66 445.688 685.94C445.248 685.22 445.028 684.3 445.028 683.18C445.028 681.98 445.348 680.89 445.988 679.91C446.648 678.91 447.628 678.12 448.928 677.54C450.248 676.94 451.898 676.64 453.878 676.64C455.198 676.64 456.498 676.8 457.778 677.12C459.058 677.42 460.188 677.88 461.168 678.5L459.668 682.19C458.688 681.63 457.708 681.22 456.728 680.96C455.748 680.68 454.788 680.54 453.848 680.54C452.908 680.54 452.138 680.65 451.538 680.87C450.938 681.09 450.508 681.38 450.248 681.74C449.988 682.08 449.858 682.48 449.858 682.94C449.858 683.48 450.078 683.92 450.518 684.26C450.958 684.58 451.538 684.84 452.258 685.04C452.978 685.24 453.768 685.44 454.628 685.64C455.508 685.84 456.378 686.07 457.238 686.33C458.118 686.59 458.918 686.94 459.638 687.38C460.358 687.82 460.938 688.4 461.378 689.12C461.838 689.84 462.068 690.75 462.068 691.85C462.068 693.03 461.738 694.11 461.078 695.09C460.418 696.07 459.428 696.86 458.108 697.46C456.808 698.06 455.158 698.36 453.158 698.36ZM465.388 698V677H469.408L478.348 691.82H476.218L485.008 677H488.998L489.058 698H484.498L484.468 683.99H485.308L478.288 695.78H476.098L468.928 683.99H469.948V698H465.388ZM491.281 698L500.641 677H505.441L514.831 698H509.731L502.051 679.46H503.971L496.261 698H491.281ZM495.961 693.5L497.251 689.81H508.051L509.371 693.5H495.961ZM517.01 698V677H526.1C527.98 677 529.6 677.31 530.96 677.93C532.32 678.53 533.37 679.4 534.11 680.54C534.85 681.68 535.22 683.04 535.22 684.62C535.22 686.18 534.85 687.53 534.11 688.67C533.37 689.79 532.32 690.65 530.96 691.25C529.6 691.85 527.98 692.15 526.1 692.15H519.71L521.87 690.02V698H517.01ZM530.36 698L525.11 690.38H530.3L535.61 698H530.36ZM521.87 690.56L519.71 688.28H525.83C527.33 688.28 528.45 687.96 529.19 687.32C529.93 686.66 530.3 685.76 530.3 684.62C530.3 683.46 529.93 682.56 529.19 681.92C528.45 681.28 527.33 680.96 525.83 680.96H519.71L521.87 678.65V690.56ZM543.127 698V680.96H536.407V677H554.707V680.96H547.987V698H543.127Z" fill="#C90302"/>
<path d="M284.378 719.181L620.28 719.181" stroke="#C90302" stroke-width="4"/>
<g filter="url(#filter1_d_15_295)">
<rect x="37.5" y="173" width="829" height="357" fill="white"/>
</g>
<path d="M365.058 280V259H374.148C376.028 259 377.648 259.31 379.008 259.93C380.368 260.53 381.418 261.4 382.158 262.54C382.898 263.68 383.268 265.04 383.268 266.62C383.268 268.18 382.898 269.53 382.158 270.67C381.418 271.81 380.368 272.69 379.008 273.31C377.648 273.91 376.028 274.21 374.148 274.21H367.758L369.918 272.02V280H365.058ZM369.918 272.56L367.758 270.25H373.878C375.378 270.25 376.498 269.93 377.238 269.29C377.978 268.65 378.348 267.76 378.348 266.62C378.348 265.46 377.978 264.56 377.238 263.92C376.498 263.28 375.378 262.96 373.878 262.96H367.758L369.918 260.65V272.56ZM386.738 280V259H391.598V276.04H402.128V280H386.738ZM402.2 280L411.56 259H416.36L425.75 280H420.65L412.97 261.46H414.89L407.18 280H402.2ZM406.88 275.5L408.17 271.81H418.97L420.29 275.5H406.88ZM427.929 280V259H431.949L444.339 274.12H442.389V259H447.189V280H443.199L430.779 264.88H432.729V280H427.929ZM460.654 280V259H469.744C471.624 259 473.244 259.31 474.604 259.93C475.964 260.53 477.014 261.4 477.754 262.54C478.494 263.68 478.864 265.04 478.864 266.62C478.864 268.18 478.494 269.53 477.754 270.67C477.014 271.81 475.964 272.69 474.604 273.31C473.244 273.91 471.624 274.21 469.744 274.21H463.354L465.514 272.02V280H460.654ZM465.514 272.56L463.354 270.25H469.474C470.974 270.25 472.094 269.93 472.834 269.29C473.574 268.65 473.944 267.76 473.944 266.62C473.944 265.46 473.574 264.56 472.834 263.92C472.094 263.28 470.974 262.96 469.474 262.96H463.354L465.514 260.65V272.56ZM482.333 280V259H487.193V276.04H497.723V280H482.333ZM509.534 280.36C506.554 280.36 504.224 279.53 502.544 277.87C500.864 276.21 500.024 273.84 500.024 270.76V259H504.884V270.58C504.884 272.58 505.294 274.02 506.114 274.9C506.934 275.78 508.084 276.22 509.564 276.22C511.044 276.22 512.194 275.78 513.014 274.9C513.834 274.02 514.244 272.58 514.244 270.58V259H519.044V270.76C519.044 273.84 518.204 276.21 516.524 277.87C514.844 279.53 512.514 280.36 509.534 280.36ZM530.747 280.36C529.067 280.36 527.457 280.14 525.917 279.7C524.377 279.24 523.137 278.65 522.197 277.93L523.847 274.27C524.747 274.91 525.807 275.44 527.027 275.86C528.267 276.26 529.517 276.46 530.777 276.46C531.737 276.46 532.507 276.37 533.087 276.19C533.687 275.99 534.127 275.72 534.407 275.38C534.687 275.04 534.827 274.65 534.827 274.21C534.827 273.65 534.607 273.21 534.167 272.89C533.727 272.55 533.147 272.28 532.427 272.08C531.707 271.86 530.907 271.66 530.027 271.48C529.167 271.28 528.297 271.04 527.417 270.76C526.557 270.48 525.767 270.12 525.047 269.68C524.327 269.24 523.737 268.66 523.277 267.94C522.837 267.22 522.617 266.3 522.617 265.18C522.617 263.98 522.937 262.89 523.577 261.91C524.237 260.91 525.217 260.12 526.517 259.54C527.837 258.94 529.487 258.64 531.467 258.64C532.787 258.64 534.087 258.8 535.367 259.12C536.647 259.42 537.777 259.88 538.757 260.5L537.257 264.19C536.277 263.63 535.297 263.22 534.317 262.96C533.337 262.68 532.377 262.54 531.437 262.54C530.497 262.54 529.727 262.65 529.127 262.87C528.527 263.09 528.097 263.38 527.837 263.74C527.577 264.08 527.447 264.48 527.447 264.94C527.447 265.48 527.667 265.92 528.107 266.26C528.547 266.58 529.127 266.84 529.847 267.04C530.567 267.24 531.357 267.44 532.217 267.64C533.097 267.84 533.967 268.07 534.827 268.33C535.707 268.59 536.507 268.94 537.227 269.38C537.947 269.82 538.527 270.4 538.967 271.12C539.427 271.84 539.657 272.75 539.657 273.85C539.657 275.03 539.327 276.11 538.667 277.09C538.007 278.07 537.017 278.86 535.697 279.46C534.397 280.06 532.747 280.36 530.747 280.36Z" fill="#C90302"/>
<path d="M284.404 295L620.307 295" stroke="#C90302" stroke-width="4"/>
<path d="M540.153 411L550.053 382.74H552.663L542.763 411H540.153ZM559.567 408L569.077 387H572.047L581.587 408H578.437L569.947 388.68H571.147L562.657 408H559.567ZM563.617 402.75L564.427 400.35H576.247L577.117 402.75H563.617ZM592.789 391.95C594.089 391.95 595.229 392.2 596.209 392.7C597.209 393.2 597.989 393.96 598.549 394.98C599.109 396 599.389 397.29 599.389 398.85V408H596.509V399.18C596.509 397.64 596.129 396.48 595.369 395.7C594.629 394.92 593.579 394.53 592.219 394.53C591.199 394.53 590.309 394.73 589.549 395.13C588.789 395.53 588.199 396.12 587.779 396.9C587.379 397.68 587.179 398.65 587.179 399.81V408H584.299V392.1H587.059V396.39L586.609 395.25C587.129 394.21 587.929 393.4 589.009 392.82C590.089 392.24 591.349 391.95 592.789 391.95ZM611.409 408.18C610.049 408.18 608.849 407.93 607.809 407.43C606.789 406.93 605.989 406.17 605.409 405.15C604.849 404.11 604.569 402.81 604.569 401.25V392.1H607.449V400.92C607.449 402.48 607.819 403.65 608.559 404.43C609.319 405.21 610.379 405.6 611.739 405.6C612.739 405.6 613.609 405.4 614.349 405C615.089 404.58 615.659 403.98 616.059 403.2C616.459 402.4 616.659 401.44 616.659 400.32V392.1H619.539V408H616.809V403.71L617.259 404.85C616.739 405.91 615.959 406.73 614.919 407.31C613.879 407.89 612.709 408.18 611.409 408.18ZM634.892 408V404.64L634.742 404.01V398.28C634.742 397.06 634.382 396.12 633.662 395.46C632.962 394.78 631.902 394.44 630.482 394.44C629.542 394.44 628.622 394.6 627.722 394.92C626.822 395.22 626.062 395.63 625.442 396.15L624.242 393.99C625.062 393.33 626.042 392.83 627.182 392.49C628.342 392.13 629.552 391.95 630.812 391.95C632.992 391.95 634.672 392.48 635.852 393.54C637.032 394.6 637.622 396.22 637.622 398.4V408H634.892ZM629.672 408.18C628.492 408.18 627.452 407.98 626.552 407.58C625.672 407.18 624.992 406.63 624.512 405.93C624.032 405.21 623.792 404.4 623.792 403.5C623.792 402.64 623.992 401.86 624.392 401.16C624.812 400.46 625.482 399.9 626.402 399.48C627.342 399.06 628.602 398.85 630.182 398.85H635.222V400.92H630.302C628.862 400.92 627.892 401.16 627.392 401.64C626.892 402.12 626.642 402.7 626.642 403.38C626.642 404.16 626.952 404.79 627.572 405.27C628.192 405.73 629.052 405.96 630.152 405.96C631.232 405.96 632.172 405.72 632.972 405.24C633.792 404.76 634.382 404.06 634.742 403.14L635.312 405.12C634.932 406.06 634.262 406.81 633.302 407.37C632.342 407.91 631.132 408.18 629.672 408.18ZM642.952 408V385.74H645.832V408H642.952Z" fill="#C90302"/>
<path d="M370.881 445V429.1H373.761V445H370.881ZM372.321 426.04C371.761 426.04 371.291 425.86 370.911 425.5C370.551 425.14 370.371 424.7 370.371 424.18C370.371 423.64 370.551 423.19 370.911 422.83C371.291 422.47 371.761 422.29 372.321 422.29C372.881 422.29 373.341 422.47 373.701 422.83C374.081 423.17 374.271 423.6 374.271 424.12C374.271 424.66 374.091 425.12 373.731 425.5C373.371 425.86 372.901 426.04 372.321 426.04ZM387.75 428.95C389.05 428.95 390.19 429.2 391.17 429.7C392.17 430.2 392.95 430.96 393.51 431.98C394.07 433 394.35 434.29 394.35 435.85V445H391.47V436.18C391.47 434.64 391.09 433.48 390.33 432.7C389.59 431.92 388.54 431.53 387.18 431.53C386.16 431.53 385.27 431.73 384.51 432.13C383.75 432.53 383.16 433.12 382.74 433.9C382.34 434.68 382.14 435.65 382.14 436.81V445H379.26V429.1H382.02V433.39L381.57 432.25C382.09 431.21 382.89 430.4 383.97 429.82C385.05 429.24 386.31 428.95 387.75 428.95ZM406.61 445.18C404.99 445.18 403.54 444.83 402.26 444.13C401 443.43 400.01 442.47 399.29 441.25C398.57 440.03 398.21 438.63 398.21 437.05C398.21 435.47 398.57 434.07 399.29 432.85C400.01 431.63 401 430.68 402.26 430C403.54 429.3 404.99 428.95 406.61 428.95C408.05 428.95 409.33 429.24 410.45 429.82C411.59 430.38 412.47 431.22 413.09 432.34L410.9 433.75C410.38 432.97 409.74 432.4 408.98 432.04C408.24 431.66 407.44 431.47 406.58 431.47C405.54 431.47 404.61 431.7 403.79 432.16C402.97 432.62 402.32 433.27 401.84 434.11C401.36 434.93 401.12 435.91 401.12 437.05C401.12 438.19 401.36 439.18 401.84 440.02C402.32 440.86 402.97 441.51 403.79 441.97C404.61 442.43 405.54 442.66 406.58 442.66C407.44 442.66 408.24 442.48 408.98 442.12C409.74 441.74 410.38 441.16 410.9 440.38L413.09 441.76C412.47 442.86 411.59 443.71 410.45 444.31C409.33 444.89 408.05 445.18 406.61 445.18ZM416.613 445V422.74H419.493V445H416.613ZM431.682 445.18C430.322 445.18 429.122 444.93 428.082 444.43C427.062 443.93 426.262 443.17 425.682 442.15C425.122 441.11 424.842 439.81 424.842 438.25V429.1H427.722V437.92C427.722 439.48 428.092 440.65 428.832 441.43C429.592 442.21 430.652 442.6 432.012 442.6C433.012 442.6 433.882 442.4 434.622 442C435.362 441.58 435.932 440.98 436.332 440.2C436.732 439.4 436.932 438.44 436.932 437.32V429.1H439.812V445H437.082V440.71L437.532 441.85C437.012 442.91 436.232 443.73 435.192 444.31C434.152 444.89 432.982 445.18 431.682 445.18ZM445.985 451C445.225 451 444.485 450.87 443.765 450.61C443.045 450.37 442.425 450.01 441.905 449.53L443.135 447.37C443.535 447.75 443.975 448.04 444.455 448.24C444.935 448.44 445.445 448.54 445.985 448.54C446.685 448.54 447.265 448.36 447.725 448C448.185 447.64 448.615 447 449.015 446.08L450.005 443.89L450.305 443.53L456.545 429.1H459.365L451.655 446.59C451.195 447.71 450.675 448.59 450.095 449.23C449.535 449.87 448.915 450.32 448.235 450.58C447.555 450.86 446.805 451 445.985 451ZM449.765 445.51L442.505 429.1H445.505L451.685 443.26L449.765 445.51ZM468.693 445.18C466.993 445.18 465.493 444.83 464.193 444.13C462.913 443.43 461.913 442.47 461.193 441.25C460.493 440.03 460.143 438.63 460.143 437.05C460.143 435.47 460.483 434.07 461.163 432.85C461.863 431.63 462.813 430.68 464.013 430C465.233 429.3 466.603 428.95 468.123 428.95C469.663 428.95 471.023 429.29 472.203 429.97C473.383 430.65 474.303 431.61 474.963 432.85C475.643 434.07 475.983 435.5 475.983 437.14C475.983 437.26 475.973 437.4 475.953 437.56C475.953 437.72 475.943 437.87 475.923 438.01H462.393V435.94H474.423L473.253 436.66C473.273 435.64 473.063 434.73 472.623 433.93C472.183 433.13 471.573 432.51 470.793 432.07C470.033 431.61 469.143 431.38 468.123 431.38C467.123 431.38 466.233 431.61 465.453 432.07C464.673 432.51 464.063 433.14 463.623 433.96C463.183 434.76 462.963 435.68 462.963 436.72V437.2C462.963 438.26 463.203 439.21 463.683 440.05C464.183 440.87 464.873 441.51 465.753 441.97C466.633 442.43 467.643 442.66 468.783 442.66C469.723 442.66 470.573 442.5 471.333 442.18C472.113 441.86 472.793 441.38 473.373 440.74L474.963 442.6C474.243 443.44 473.343 444.08 472.263 444.52C471.203 444.96 470.013 445.18 468.693 445.18ZM488.459 445V424H491.459V445H488.459ZM503.601 445L494.361 424H497.601L506.091 443.38H504.231L512.781 424H515.781L506.571 445H503.601ZM514.605 445L524.115 424H527.085L536.625 445H533.475L524.985 425.68H526.185L517.695 445H514.605ZM518.655 439.75L519.465 437.35H531.285L532.155 439.75H518.655Z" fill="#C90302"/>
<path d="M286.621 415.68V355.52H293.021V415.68H286.621ZM288.925 408.768C285.341 408.768 281.906 408.299 278.621 407.36C275.335 406.379 272.69 405.12 270.685 403.584L274.205 395.776C276.125 397.141 278.386 398.272 280.989 399.168C283.634 400.021 286.301 400.448 288.989 400.448C291.037 400.448 292.679 400.256 293.917 399.872C295.197 399.445 296.135 398.869 296.733 398.144C297.33 397.419 297.629 396.587 297.629 395.648C297.629 394.453 297.159 393.515 296.221 392.832C295.282 392.107 294.045 391.531 292.509 391.104C290.973 390.635 289.266 390.208 287.389 389.824C285.554 389.397 283.698 388.885 281.821 388.288C279.986 387.691 278.301 386.923 276.765 385.984C275.229 385.045 273.97 383.808 272.989 382.272C272.05 380.736 271.581 378.773 271.581 376.384C271.581 373.824 272.263 371.499 273.629 369.408C275.037 367.275 277.127 365.589 279.901 364.352C282.717 363.072 286.237 362.432 290.461 362.432C293.277 362.432 296.05 362.773 298.781 363.456C301.511 364.096 303.922 365.077 306.013 366.4L302.813 374.272C300.722 373.077 298.631 372.203 296.541 371.648C294.45 371.051 292.402 370.752 290.397 370.752C288.391 370.752 286.749 370.987 285.469 371.456C284.189 371.925 283.271 372.544 282.717 373.312C282.162 374.037 281.885 374.891 281.885 375.872C281.885 377.024 282.354 377.963 283.293 378.688C284.231 379.371 285.469 379.925 287.005 380.352C288.541 380.779 290.226 381.205 292.061 381.632C293.938 382.059 295.794 382.549 297.629 383.104C299.506 383.659 301.213 384.405 302.749 385.344C304.285 386.283 305.522 387.52 306.461 389.056C307.442 390.592 307.933 392.533 307.933 394.88C307.933 397.397 307.229 399.701 305.821 401.792C304.413 403.883 302.301 405.568 299.485 406.848C296.711 408.128 293.191 408.768 288.925 408.768ZM318.488 408V367.04L322.968 371.52H309.528V363.2H328.856V408H318.488ZM355.839 408.768C352.169 408.768 348.884 407.872 345.983 406.08C343.081 404.245 340.799 401.6 339.135 398.144C337.471 394.688 336.639 390.507 336.639 385.6C336.639 380.693 337.471 376.512 339.135 373.056C340.799 369.6 343.081 366.976 345.983 365.184C348.884 363.349 352.169 362.432 355.839 362.432C359.551 362.432 362.836 363.349 365.695 365.184C368.596 366.976 370.879 369.6 372.543 373.056C374.207 376.512 375.039 380.693 375.039 385.6C375.039 390.507 374.207 394.688 372.543 398.144C370.879 401.6 368.596 404.245 365.695 406.08C362.836 407.872 359.551 408.768 355.839 408.768ZM355.839 400C357.588 400 359.103 399.509 360.383 398.528C361.705 397.547 362.729 395.989 363.455 393.856C364.223 391.723 364.607 388.971 364.607 385.6C364.607 382.229 364.223 379.477 363.455 377.344C362.729 375.211 361.705 373.653 360.383 372.672C359.103 371.691 357.588 371.2 355.839 371.2C354.132 371.2 352.617 371.691 351.295 372.672C350.015 373.653 348.991 375.211 348.223 377.344C347.497 379.477 347.135 382.229 347.135 385.6C347.135 388.971 347.497 391.723 348.223 393.856C348.991 395.989 350.015 397.547 351.295 398.528C352.617 399.509 354.132 400 355.839 400ZM379.648 417.856L383.872 402.496L385.28 408.256C383.445 408.256 381.93 407.723 380.736 406.656C379.584 405.589 379.008 404.117 379.008 402.24C379.008 400.363 379.605 398.869 380.8 397.76C381.994 396.651 383.466 396.096 385.216 396.096C387.008 396.096 388.48 396.672 389.632 397.824C390.784 398.933 391.36 400.405 391.36 402.24C391.36 402.795 391.317 403.349 391.232 403.904C391.146 404.416 390.976 405.056 390.72 405.824C390.506 406.549 390.144 407.488 389.632 408.64L385.984 417.856H379.648ZM414.401 408.768C410.732 408.768 407.447 407.872 404.545 406.08C401.644 404.245 399.361 401.6 397.697 398.144C396.033 394.688 395.201 390.507 395.201 385.6C395.201 380.693 396.033 376.512 397.697 373.056C399.361 369.6 401.644 366.976 404.545 365.184C407.447 363.349 410.732 362.432 414.401 362.432C418.113 362.432 421.399 363.349 424.257 365.184C427.159 366.976 429.441 369.6 431.105 373.056C432.769 376.512 433.601 380.693 433.601 385.6C433.601 390.507 432.769 394.688 431.105 398.144C429.441 401.6 427.159 404.245 424.257 406.08C421.399 407.872 418.113 408.768 414.401 408.768ZM414.401 400C416.151 400 417.665 399.509 418.945 398.528C420.268 397.547 421.292 395.989 422.017 393.856C422.785 391.723 423.169 388.971 423.169 385.6C423.169 382.229 422.785 379.477 422.017 377.344C421.292 375.211 420.268 373.653 418.945 372.672C417.665 371.691 416.151 371.2 414.401 371.2C412.695 371.2 411.18 371.691 409.857 372.672C408.577 373.653 407.553 375.211 406.785 377.344C406.06 379.477 405.697 382.229 405.697 385.6C405.697 388.971 406.06 391.723 406.785 393.856C407.553 395.989 408.577 397.547 409.857 398.528C411.18 399.509 412.695 400 414.401 400ZM457.839 408.768C454.169 408.768 450.884 407.872 447.983 406.08C445.081 404.245 442.799 401.6 441.135 398.144C439.471 394.688 438.639 390.507 438.639 385.6C438.639 380.693 439.471 376.512 441.135 373.056C442.799 369.6 445.081 366.976 447.983 365.184C450.884 363.349 454.169 362.432 457.839 362.432C461.551 362.432 464.836 363.349 467.695 365.184C470.596 366.976 472.879 369.6 474.543 373.056C476.207 376.512 477.039 380.693 477.039 385.6C477.039 390.507 476.207 394.688 474.543 398.144C472.879 401.6 470.596 404.245 467.695 406.08C464.836 407.872 461.551 408.768 457.839 408.768ZM457.839 400C459.588 400 461.103 399.509 462.383 398.528C463.705 397.547 464.729 395.989 465.455 393.856C466.223 391.723 466.607 388.971 466.607 385.6C466.607 382.229 466.223 379.477 465.455 377.344C464.729 375.211 463.705 373.653 462.383 372.672C461.103 371.691 459.588 371.2 457.839 371.2C456.132 371.2 454.617 371.691 453.295 372.672C452.015 373.653 450.991 375.211 450.223 377.344C449.497 379.477 449.135 382.229 449.135 385.6C449.135 388.971 449.497 391.723 450.223 393.856C450.991 395.989 452.015 397.547 453.295 398.528C454.617 399.509 456.132 400 457.839 400ZM501.276 408.768C497.607 408.768 494.322 407.872 491.42 406.08C488.519 404.245 486.236 401.6 484.572 398.144C482.908 394.688 482.076 390.507 482.076 385.6C482.076 380.693 482.908 376.512 484.572 373.056C486.236 369.6 488.519 366.976 491.42 365.184C494.322 363.349 497.607 362.432 501.276 362.432C504.988 362.432 508.274 363.349 511.132 365.184C514.034 366.976 516.316 369.6 517.98 373.056C519.644 376.512 520.476 380.693 520.476 385.6C520.476 390.507 519.644 394.688 517.98 398.144C516.316 401.6 514.034 404.245 511.132 406.08C508.274 407.872 504.988 408.768 501.276 408.768ZM501.276 400C503.026 400 504.54 399.509 505.82 398.528C507.143 397.547 508.167 395.989 508.892 393.856C509.66 391.723 510.044 388.971 510.044 385.6C510.044 382.229 509.66 379.477 508.892 377.344C508.167 375.211 507.143 373.653 505.82 372.672C504.54 371.691 503.026 371.2 501.276 371.2C499.57 371.2 498.055 371.691 496.732 372.672C495.452 373.653 494.428 375.211 493.66 377.344C492.935 379.477 492.572 382.229 492.572 385.6C492.572 388.971 492.935 391.723 493.66 393.856C494.428 395.989 495.452 397.547 496.732 398.528C498.055 399.509 499.57 400 501.276 400Z" fill="#C90302"/>
<rect x="37.5" width="829" height="146" fill="#C90302"/>
<path d="M217.246 41.46H227.356V45.24H217.246V41.46ZM217.606 50.1H229.036V54H212.776V33H228.646V36.9H217.606V50.1ZM242.383 37.62C243.663 37.62 244.803 37.88 245.803 38.4C246.823 38.9 247.623 39.68 248.203 40.74C248.783 41.78 249.073 43.12 249.073 44.76V54H244.393V45.48C244.393 44.18 244.103 43.22 243.523 42.6C242.963 41.98 242.163 41.67 241.123 41.67C240.383 41.67 239.713 41.83 239.113 42.15C238.533 42.45 238.073 42.92 237.733 43.56C237.413 44.2 237.253 45.02 237.253 46.02V54H232.573V37.86H237.043V42.33L236.203 40.98C236.783 39.9 237.613 39.07 238.693 38.49C239.773 37.91 241.003 37.62 242.383 37.62ZM261.811 54V31.74H266.491V54H261.811ZM280.735 54V50.85L280.435 50.16V44.52C280.435 43.52 280.125 42.74 279.505 42.18C278.905 41.62 277.975 41.34 276.715 41.34C275.855 41.34 275.005 41.48 274.165 41.76C273.345 42.02 272.645 42.38 272.065 42.84L270.385 39.57C271.265 38.95 272.325 38.47 273.565 38.13C274.805 37.79 276.065 37.62 277.345 37.62C279.805 37.62 281.715 38.2 283.075 39.36C284.435 40.52 285.115 42.33 285.115 44.79V54H280.735ZM275.815 54.24C274.555 54.24 273.475 54.03 272.575 53.61C271.675 53.17 270.985 52.58 270.505 51.84C270.025 51.1 269.785 50.27 269.785 49.35C269.785 48.39 270.015 47.55 270.475 46.83C270.955 46.11 271.705 45.55 272.725 45.15C273.745 44.73 275.075 44.52 276.715 44.52H281.005V47.25H277.225C276.125 47.25 275.365 47.43 274.945 47.79C274.545 48.15 274.345 48.6 274.345 49.14C274.345 49.74 274.575 50.22 275.035 50.58C275.515 50.92 276.165 51.09 276.985 51.09C277.765 51.09 278.465 50.91 279.085 50.55C279.705 50.17 280.155 49.62 280.435 48.9L281.155 51.06C280.815 52.1 280.195 52.89 279.295 53.43C278.395 53.97 277.235 54.24 275.815 54.24ZM305.647 54.24C303.907 54.24 302.357 53.89 300.997 53.19C299.637 52.47 298.567 51.48 297.787 50.22C297.027 48.96 296.647 47.53 296.647 45.93C296.647 44.31 297.027 42.88 297.787 41.64C298.567 40.38 299.637 39.4 300.997 38.7C302.357 37.98 303.907 37.62 305.647 37.62C307.347 37.62 308.827 37.98 310.087 38.7C311.347 39.4 312.277 40.41 312.877 41.73L309.247 43.68C308.827 42.92 308.297 42.36 307.657 42C307.037 41.64 306.357 41.46 305.617 41.46C304.817 41.46 304.097 41.64 303.457 42C302.817 42.36 302.307 42.87 301.927 43.53C301.567 44.19 301.387 44.99 301.387 45.93C301.387 46.87 301.567 47.67 301.927 48.33C302.307 48.99 302.817 49.5 303.457 49.86C304.097 50.22 304.817 50.4 305.617 50.4C306.357 50.4 307.037 50.23 307.657 49.89C308.297 49.53 308.827 48.96 309.247 48.18L312.877 50.16C312.277 51.46 311.347 52.47 310.087 53.19C308.827 53.89 307.347 54.24 305.647 54.24ZM323.046 54.24C321.326 54.24 319.796 53.88 318.456 53.16C317.136 52.44 316.086 51.46 315.306 50.22C314.546 48.96 314.166 47.53 314.166 45.93C314.166 44.31 314.546 42.88 315.306 41.64C316.086 40.38 317.136 39.4 318.456 38.7C319.796 37.98 321.326 37.62 323.046 37.62C324.746 37.62 326.266 37.98 327.606 38.7C328.946 39.4 329.996 40.37 330.756 41.61C331.516 42.85 331.896 44.29 331.896 45.93C331.896 47.53 331.516 48.96 330.756 50.22C329.996 51.46 328.946 52.44 327.606 53.16C326.266 53.88 324.746 54.24 323.046 54.24ZM323.046 50.4C323.826 50.4 324.526 50.22 325.146 49.86C325.766 49.5 326.256 48.99 326.616 48.33C326.976 47.65 327.156 46.85 327.156 45.93C327.156 44.99 326.976 44.19 326.616 43.53C326.256 42.87 325.766 42.36 325.146 42C324.526 41.64 323.826 41.46 323.046 41.46C322.266 41.46 321.566 41.64 320.946 42C320.326 42.36 319.826 42.87 319.446 43.53C319.086 44.19 318.906 44.99 318.906 45.93C318.906 46.85 319.086 47.65 319.446 48.33C319.826 48.99 320.326 49.5 320.946 49.86C321.566 50.22 322.266 50.4 323.046 50.4ZM355.694 37.62C356.974 37.62 358.104 37.88 359.084 38.4C360.084 38.9 360.864 39.68 361.424 40.74C362.004 41.78 362.294 43.12 362.294 44.76V54H357.614V45.48C357.614 44.18 357.344 43.22 356.804 42.6C356.264 41.98 355.504 41.67 354.524 41.67C353.844 41.67 353.234 41.83 352.694 42.15C352.154 42.45 351.734 42.91 351.434 43.53C351.134 44.15 350.984 44.94 350.984 45.9V54H346.304V45.48C346.304 44.18 346.034 43.22 345.494 42.6C344.974 41.98 344.224 41.67 343.244 41.67C342.564 41.67 341.954 41.83 341.414 42.15C340.874 42.45 340.454 42.91 340.154 43.53C339.854 44.15 339.704 44.94 339.704 45.9V54H335.024V37.86H339.494V42.27L338.654 40.98C339.214 39.88 340.004 39.05 341.024 38.49C342.064 37.91 343.244 37.62 344.564 37.62C346.044 37.62 347.334 38 348.434 38.76C349.554 39.5 350.294 40.64 350.654 42.18L349.004 41.73C349.544 40.47 350.404 39.47 351.584 38.73C352.784 37.99 354.154 37.62 355.694 37.62ZM376.029 54.24C374.669 54.24 373.479 53.94 372.459 53.34C371.439 52.74 370.639 51.83 370.059 50.61C369.499 49.37 369.219 47.81 369.219 45.93C369.219 44.03 369.489 42.47 370.029 41.25C370.569 40.03 371.349 39.12 372.369 38.52C373.389 37.92 374.609 37.62 376.029 37.62C377.549 37.62 378.909 37.97 380.109 38.67C381.329 39.35 382.289 40.31 382.989 41.55C383.709 42.79 384.069 44.25 384.069 45.93C384.069 47.63 383.709 49.1 382.989 50.34C382.289 51.58 381.329 52.54 380.109 53.22C378.909 53.9 377.549 54.24 376.029 54.24ZM366.489 59.82V37.86H370.959V41.16L370.869 45.96L371.169 50.73V59.82H366.489ZM375.219 50.4C375.999 50.4 376.689 50.22 377.289 49.86C377.909 49.5 378.399 48.99 378.759 48.33C379.139 47.65 379.329 46.85 379.329 45.93C379.329 44.99 379.139 44.19 378.759 43.53C378.399 42.87 377.909 42.36 377.289 42C376.689 41.64 375.999 41.46 375.219 41.46C374.439 41.46 373.739 41.64 373.119 42C372.499 42.36 372.009 42.87 371.649 43.53C371.289 44.19 371.109 44.99 371.109 45.93C371.109 46.85 371.289 47.65 371.649 48.33C372.009 48.99 372.499 49.5 373.119 49.86C373.739 50.22 374.439 50.4 375.219 50.4ZM387.202 54V37.86H391.672V42.42L391.042 41.1C391.522 39.96 392.292 39.1 393.352 38.52C394.412 37.92 395.702 37.62 397.222 37.62V41.94C397.022 41.92 396.842 41.91 396.682 41.91C396.522 41.89 396.352 41.88 396.172 41.88C394.892 41.88 393.852 42.25 393.052 42.99C392.272 43.71 391.882 44.84 391.882 46.38V54H387.202ZM408.85 54V50.85L408.55 50.16V44.52C408.55 43.52 408.24 42.74 407.62 42.18C407.02 41.62 406.09 41.34 404.83 41.34C403.97 41.34 403.12 41.48 402.28 41.76C401.46 42.02 400.76 42.38 400.18 42.84L398.5 39.57C399.38 38.95 400.44 38.47 401.68 38.13C402.92 37.79 404.18 37.62 405.46 37.62C407.92 37.62 409.83 38.2 411.19 39.36C412.55 40.52 413.23 42.33 413.23 44.79V54H408.85ZM403.93 54.24C402.67 54.24 401.59 54.03 400.69 53.61C399.79 53.17 399.1 52.58 398.62 51.84C398.14 51.1 397.9 50.27 397.9 49.35C397.9 48.39 398.13 47.55 398.59 46.83C399.07 46.11 399.82 45.55 400.84 45.15C401.86 44.73 403.19 44.52 404.83 44.52H409.12V47.25H405.34C404.24 47.25 403.48 47.43 403.06 47.79C402.66 48.15 402.46 48.6 402.46 49.14C402.46 49.74 402.69 50.22 403.15 50.58C403.63 50.92 404.28 51.09 405.1 51.09C405.88 51.09 406.58 50.91 407.2 50.55C407.82 50.17 408.27 49.62 408.55 48.9L409.27 51.06C408.93 52.1 408.31 52.89 407.41 53.43C406.51 53.97 405.35 54.24 403.93 54.24ZM432.892 54.24C431.372 54.24 430.002 53.9 428.782 53.22C427.562 52.52 426.592 51.55 425.872 50.31C425.172 49.07 424.822 47.61 424.822 45.93C424.822 44.23 425.172 42.76 425.872 41.52C426.592 40.28 427.562 39.32 428.782 38.64C430.002 37.96 431.372 37.62 432.892 37.62C434.252 37.62 435.442 37.92 436.462 38.52C437.482 39.12 438.272 40.03 438.832 41.25C439.392 42.47 439.672 44.03 439.672 45.93C439.672 47.81 439.402 49.37 438.862 50.61C438.322 51.83 437.542 52.74 436.522 53.34C435.522 53.94 434.312 54.24 432.892 54.24ZM433.702 50.4C434.462 50.4 435.152 50.22 435.772 49.86C436.392 49.5 436.882 48.99 437.242 48.33C437.622 47.65 437.812 46.85 437.812 45.93C437.812 44.99 437.622 44.19 437.242 43.53C436.882 42.87 436.392 42.36 435.772 42C435.152 41.64 434.462 41.46 433.702 41.46C432.922 41.46 432.222 41.64 431.602 42C430.982 42.36 430.482 42.87 430.102 43.53C429.742 44.19 429.562 44.99 429.562 45.93C429.562 46.85 429.742 47.65 430.102 48.33C430.482 48.99 430.982 49.5 431.602 49.86C432.222 50.22 432.922 50.4 433.702 50.4ZM437.932 54V50.7L438.022 45.9L437.722 41.13V31.74H442.402V54H437.932ZM454.743 54.24C452.903 54.24 451.283 53.88 449.883 53.16C448.503 52.44 447.433 51.46 446.673 50.22C445.913 48.96 445.533 47.53 445.533 45.93C445.533 44.31 445.903 42.88 446.643 41.64C447.403 40.38 448.433 39.4 449.733 38.7C451.033 37.98 452.503 37.62 454.143 37.62C455.723 37.62 457.143 37.96 458.403 38.64C459.683 39.3 460.693 40.26 461.433 41.52C462.173 42.76 462.543 44.25 462.543 45.99C462.543 46.17 462.533 46.38 462.513 46.62C462.493 46.84 462.473 47.05 462.453 47.25H449.343V44.52H459.993L458.193 45.33C458.193 44.49 458.023 43.76 457.683 43.14C457.343 42.52 456.873 42.04 456.273 41.7C455.673 41.34 454.973 41.16 454.173 41.16C453.373 41.16 452.663 41.34 452.043 41.7C451.443 42.04 450.973 42.53 450.633 43.17C450.293 43.79 450.123 44.53 450.123 45.39V46.11C450.123 46.99 450.313 47.77 450.693 48.45C451.093 49.11 451.643 49.62 452.343 49.98C453.063 50.32 453.903 50.49 454.863 50.49C455.723 50.49 456.473 50.36 457.113 50.1C457.773 49.84 458.373 49.45 458.913 48.93L461.403 51.63C460.663 52.47 459.733 53.12 458.613 53.58C457.493 54.02 456.203 54.24 454.743 54.24ZM465.659 54V31.74H470.339V54H465.659ZM492.719 54.24C491.359 54.24 490.169 53.94 489.149 53.34C488.129 52.74 487.329 51.83 486.749 50.61C486.189 49.37 485.909 47.81 485.909 45.93C485.909 44.03 486.179 42.47 486.719 41.25C487.259 40.03 488.039 39.12 489.059 38.52C490.079 37.92 491.299 37.62 492.719 37.62C494.239 37.62 495.599 37.97 496.799 38.67C498.019 39.35 498.979 40.31 499.679 41.55C500.399 42.79 500.759 44.25 500.759 45.93C500.759 47.63 500.399 49.1 499.679 50.34C498.979 51.58 498.019 52.54 496.799 53.22C495.599 53.9 494.239 54.24 492.719 54.24ZM483.179 59.82V37.86H487.649V41.16L487.559 45.96L487.859 50.73V59.82H483.179ZM491.909 50.4C492.689 50.4 493.379 50.22 493.979 49.86C494.599 49.5 495.089 48.99 495.449 48.33C495.829 47.65 496.019 46.85 496.019 45.93C496.019 44.99 495.829 44.19 495.449 43.53C495.089 42.87 494.599 42.36 493.979 42C493.379 41.64 492.689 41.46 491.909 41.46C491.129 41.46 490.429 41.64 489.809 42C489.189 42.36 488.699 42.87 488.339 43.53C487.979 44.19 487.799 44.99 487.799 45.93C487.799 46.85 487.979 47.65 488.339 48.33C488.699 48.99 489.189 49.5 489.809 49.86C490.429 50.22 491.129 50.4 491.909 50.4ZM503.891 54V31.74H508.571V54H503.891ZM522.815 54V50.85L522.515 50.16V44.52C522.515 43.52 522.205 42.74 521.585 42.18C520.985 41.62 520.055 41.34 518.795 41.34C517.935 41.34 517.085 41.48 516.245 41.76C515.425 42.02 514.725 42.38 514.145 42.84L512.465 39.57C513.345 38.95 514.405 38.47 515.645 38.13C516.885 37.79 518.145 37.62 519.425 37.62C521.885 37.62 523.795 38.2 525.155 39.36C526.515 40.52 527.195 42.33 527.195 44.79V54H522.815ZM517.895 54.24C516.635 54.24 515.555 54.03 514.655 53.61C513.755 53.17 513.065 52.58 512.585 51.84C512.105 51.1 511.865 50.27 511.865 49.35C511.865 48.39 512.095 47.55 512.555 46.83C513.035 46.11 513.785 45.55 514.805 45.15C515.825 44.73 517.155 44.52 518.795 44.52H523.085V47.25H519.305C518.205 47.25 517.445 47.43 517.025 47.79C516.625 48.15 516.425 48.6 516.425 49.14C516.425 49.74 516.655 50.22 517.115 50.58C517.595 50.92 518.245 51.09 519.065 51.09C519.845 51.09 520.545 50.91 521.165 50.55C521.785 50.17 522.235 49.62 522.515 48.9L523.235 51.06C522.895 52.1 522.275 52.89 521.375 53.43C520.475 53.97 519.315 54.24 517.895 54.24ZM541.241 37.62C542.521 37.62 543.661 37.88 544.661 38.4C545.681 38.9 546.481 39.68 547.061 40.74C547.641 41.78 547.931 43.12 547.931 44.76V54H543.251V45.48C543.251 44.18 542.961 43.22 542.381 42.6C541.821 41.98 541.021 41.67 539.981 41.67C539.241 41.67 538.571 41.83 537.971 42.15C537.391 42.45 536.931 42.92 536.591 43.56C536.271 44.2 536.111 45.02 536.111 46.02V54H531.431V37.86H535.901V42.33L535.061 40.98C535.641 39.9 536.471 39.07 537.551 38.49C538.631 37.91 539.861 37.62 541.241 37.62ZM570.569 54V50.85L570.269 50.16V44.52C570.269 43.52 569.959 42.74 569.339 42.18C568.739 41.62 567.809 41.34 566.549 41.34C565.689 41.34 564.839 41.48 563.999 41.76C563.179 42.02 562.479 42.38 561.899 42.84L560.219 39.57C561.099 38.95 562.159 38.47 563.399 38.13C564.639 37.79 565.899 37.62 567.179 37.62C569.639 37.62 571.549 38.2 572.909 39.36C574.269 40.52 574.949 42.33 574.949 44.79V54H570.569ZM565.649 54.24C564.389 54.24 563.309 54.03 562.409 53.61C561.509 53.17 560.819 52.58 560.339 51.84C559.859 51.1 559.619 50.27 559.619 49.35C559.619 48.39 559.849 47.55 560.309 46.83C560.789 46.11 561.539 45.55 562.559 45.15C563.579 44.73 564.909 44.52 566.549 44.52H570.839V47.25H567.059C565.959 47.25 565.199 47.43 564.779 47.79C564.379 48.15 564.179 48.6 564.179 49.14C564.179 49.74 564.409 50.22 564.869 50.58C565.349 50.92 565.999 51.09 566.819 51.09C567.599 51.09 568.299 50.91 568.919 50.55C569.539 50.17 569.989 49.62 570.269 48.9L570.989 51.06C570.649 52.1 570.029 52.89 569.129 53.43C568.229 53.97 567.069 54.24 565.649 54.24ZM588.994 37.62C590.274 37.62 591.414 37.88 592.414 38.4C593.434 38.9 594.234 39.68 594.814 40.74C595.394 41.78 595.684 43.12 595.684 44.76V54H591.004V45.48C591.004 44.18 590.714 43.22 590.134 42.6C589.574 41.98 588.774 41.67 587.734 41.67C586.994 41.67 586.324 41.83 585.724 42.15C585.144 42.45 584.684 42.92 584.344 43.56C584.024 44.2 583.864 45.02 583.864 46.02V54H579.184V37.86H583.654V42.33L582.814 40.98C583.394 39.9 584.224 39.07 585.304 38.49C586.384 37.91 587.614 37.62 588.994 37.62ZM606.737 54.24C605.397 54.24 604.197 53.98 603.137 53.46C602.097 52.94 601.287 52.15 600.707 51.09C600.127 50.01 599.837 48.64 599.837 46.98V37.86H604.517V46.29C604.517 47.63 604.797 48.62 605.357 49.26C605.937 49.88 606.747 50.19 607.787 50.19C608.507 50.19 609.147 50.04 609.707 49.74C610.267 49.42 610.707 48.94 611.027 48.3C611.347 47.64 611.507 46.82 611.507 45.84V37.86H616.187V54H611.747V49.56L612.557 50.85C612.017 51.97 611.217 52.82 610.157 53.4C609.117 53.96 607.977 54.24 606.737 54.24ZM630.422 54V50.85L630.122 50.16V44.52C630.122 43.52 629.812 42.74 629.192 42.18C628.592 41.62 627.662 41.34 626.402 41.34C625.542 41.34 624.692 41.48 623.852 41.76C623.032 42.02 622.332 42.38 621.752 42.84L620.072 39.57C620.952 38.95 622.012 38.47 623.252 38.13C624.492 37.79 625.752 37.62 627.032 37.62C629.492 37.62 631.402 38.2 632.762 39.36C634.122 40.52 634.802 42.33 634.802 44.79V54H630.422ZM625.502 54.24C624.242 54.24 623.162 54.03 622.262 53.61C621.362 53.17 620.672 52.58 620.192 51.84C619.712 51.1 619.472 50.27 619.472 49.35C619.472 48.39 619.702 47.55 620.162 46.83C620.642 46.11 621.392 45.55 622.412 45.15C623.432 44.73 624.762 44.52 626.402 44.52H630.692V47.25H626.912C625.812 47.25 625.052 47.43 624.632 47.79C624.232 48.15 624.032 48.6 624.032 49.14C624.032 49.74 624.262 50.22 624.722 50.58C625.202 50.92 625.852 51.09 626.672 51.09C627.452 51.09 628.152 50.91 628.772 50.55C629.392 50.17 629.842 49.62 630.122 48.9L630.842 51.06C630.502 52.1 629.882 52.89 628.982 53.43C628.082 53.97 626.922 54.24 625.502 54.24ZM639.038 54V31.74H643.718V54H639.038ZM647.251 58.62L649.231 51.42L649.891 54.12C649.031 54.12 648.321 53.87 647.761 53.37C647.221 52.87 646.951 52.18 646.951 51.3C646.951 50.42 647.231 49.72 647.791 49.2C648.351 48.68 649.041 48.42 649.861 48.42C650.701 48.42 651.391 48.69 651.931 49.23C652.471 49.75 652.741 50.44 652.741 51.3C652.741 51.56 652.721 51.82 652.681 52.08C652.641 52.32 652.561 52.62 652.441 52.98C652.341 53.32 652.171 53.76 651.931 54.3L650.221 58.62H647.251ZM671.009 54.24C669.109 54.24 667.629 53.76 666.569 52.8C665.509 51.82 664.979 50.37 664.979 48.45V34.29H669.659V48.39C669.659 49.07 669.839 49.6 670.199 49.98C670.559 50.34 671.049 50.52 671.669 50.52C672.409 50.52 673.039 50.32 673.559 49.92L674.819 53.22C674.339 53.56 673.759 53.82 673.079 54C672.419 54.16 671.729 54.24 671.009 54.24ZM662.489 41.82V38.22H673.679V41.82H662.489ZM684.958 54.24C683.118 54.24 681.498 53.88 680.098 53.16C678.718 52.44 677.648 51.46 676.888 50.22C676.128 48.96 675.748 47.53 675.748 45.93C675.748 44.31 676.118 42.88 676.858 41.64C677.618 40.38 678.648 39.4 679.948 38.7C681.248 37.98 682.718 37.62 684.358 37.62C685.938 37.62 687.358 37.96 688.618 38.64C689.898 39.3 690.908 40.26 691.648 41.52C692.388 42.76 692.758 44.25 692.758 45.99C692.758 46.17 692.748 46.38 692.728 46.62C692.708 46.84 692.688 47.05 692.668 47.25H679.558V44.52H690.208L688.408 45.33C688.408 44.49 688.238 43.76 687.898 43.14C687.558 42.52 687.088 42.04 686.488 41.7C685.888 41.34 685.188 41.16 684.388 41.16C683.588 41.16 682.878 41.34 682.258 41.7C681.658 42.04 681.188 42.53 680.848 43.17C680.508 43.79 680.338 44.53 680.338 45.39V46.11C680.338 46.99 680.528 47.77 680.908 48.45C681.308 49.11 681.858 49.62 682.558 49.98C683.278 50.32 684.118 50.49 685.078 50.49C685.938 50.49 686.688 50.36 687.328 50.1C687.988 49.84 688.588 49.45 689.128 48.93L691.618 51.63C690.878 52.47 689.948 53.12 688.828 53.58C687.708 54.02 686.418 54.24 684.958 54.24ZM213.592 113V85.064H227.944C230.632 85.064 232.968 85.512 234.952 86.408C236.936 87.272 238.472 88.504 239.56 90.104C240.648 91.704 241.192 93.608 241.192 95.816C241.192 97.992 240.648 99.88 239.56 101.48C238.472 103.048 236.936 104.264 234.952 105.128C232.968 105.96 230.632 106.376 227.944 106.376H219.688L224.632 101.96V113H213.592ZM230.056 113L223.144 102.824H234.808L241.816 113H230.056ZM224.632 103.16L220.648 98.456H227.08C228.136 98.456 228.904 98.216 229.384 97.736C229.896 97.224 230.152 96.584 230.152 95.816C230.152 95.048 229.896 94.424 229.384 93.944C228.904 93.432 228.136 93.176 227.08 93.176H220.648L224.632 88.472V103.16ZM255.406 95.144H267.55V102.536H255.406V95.144ZM256.174 105.08H269.71V113H245.326V85.064H269.182V92.984H256.174V105.08ZM301.049 110.168C299.865 110.936 298.553 111.592 297.113 112.136C295.673 112.648 294.217 113.032 292.745 113.288C291.305 113.576 289.961 113.72 288.713 113.72C285.353 113.72 282.425 113.096 279.929 111.848C277.465 110.568 275.545 108.824 274.169 106.616C272.825 104.376 272.153 101.848 272.153 99.032C272.153 96.184 272.857 93.656 274.265 91.448C275.705 89.24 277.689 87.512 280.217 86.264C282.745 84.984 285.657 84.344 288.953 84.344C291.897 84.344 294.441 84.824 296.585 85.784C298.761 86.744 300.569 88.152 302.009 90.008L294.761 96.008C293.961 94.984 293.065 94.232 292.073 93.752C291.113 93.24 290.073 92.984 288.953 92.984C287.833 92.984 286.841 93.224 285.977 93.704C285.145 94.184 284.489 94.872 284.009 95.768C283.529 96.664 283.289 97.752 283.289 99.032C283.289 100.28 283.513 101.352 283.961 102.248C284.409 103.144 285.049 103.848 285.881 104.36C286.713 104.84 287.721 105.08 288.905 105.08C289.961 105.08 290.953 104.92 291.881 104.6C292.841 104.248 293.849 103.72 294.905 103.016L301.049 110.168ZM291.497 110.312V98.408H301.049V110.168L291.497 110.312ZM302.106 113L314.394 85.064H325.242L337.53 113H326.826L318.042 90.056H321.642L312.666 113H302.106ZM310.074 108.68L312.858 101.288H325.002L327.786 108.68H310.074ZM339.217 113V85.064H350.257V104.84H362.401V113H339.217ZM362.34 113L374.628 85.064H385.476L397.764 113H387.06L378.276 90.056H381.876L372.9 113H362.34ZM370.308 108.68L373.092 101.288H385.236L388.02 108.68H370.308ZM399.451 113V85.064H408.523L419.419 102.344H414.907L425.419 85.064H434.491L434.587 113H424.555L424.459 99.752H425.899L419.419 110.456H414.523L407.659 99.752H409.483V113H399.451ZM454.598 113.72C451.462 113.72 448.662 113.096 446.198 111.848C443.734 110.568 441.798 108.824 440.39 106.616C438.982 104.376 438.278 101.848 438.278 99.032C438.278 96.184 438.982 93.656 440.39 91.448C441.798 89.24 443.734 87.512 446.198 86.264C448.662 84.984 451.462 84.344 454.598 84.344C457.734 84.344 460.518 84.984 462.95 86.264C465.414 87.512 467.35 89.24 468.758 91.448C470.166 93.656 470.87 96.184 470.87 99.032C470.87 101.848 470.166 104.376 468.758 106.616C467.35 108.824 465.414 110.568 462.95 111.848C460.518 113.096 457.734 113.72 454.598 113.72ZM454.598 105.08C455.622 105.08 456.518 104.824 457.286 104.312C458.054 103.8 458.646 103.096 459.062 102.2C459.51 101.272 459.734 100.216 459.734 99.032C459.734 97.848 459.51 96.808 459.062 95.912C458.646 94.984 458.054 94.264 457.286 93.752C456.518 93.24 455.622 92.984 454.598 92.984C453.606 92.984 452.71 93.24 451.91 93.752C451.142 94.264 450.534 94.984 450.086 95.912C449.638 96.808 449.414 97.848 449.414 99.032C449.414 100.216 449.638 101.272 450.086 102.2C450.534 103.096 451.142 103.8 451.91 104.312C452.71 104.824 453.606 105.08 454.598 105.08ZM499.217 103.928C499.217 105.688 498.689 107.32 497.633 108.824C496.609 110.296 495.057 111.48 492.977 112.376C490.929 113.272 488.337 113.72 485.201 113.72C482.865 113.72 480.561 113.464 478.289 112.952C476.017 112.44 474.129 111.784 472.625 110.984L476.129 103.208C477.537 104.008 479.089 104.632 480.785 105.08C482.481 105.496 484.161 105.704 485.825 105.704C486.817 105.704 487.489 105.608 487.841 105.416C488.225 105.224 488.417 105.016 488.417 104.792C488.417 104.408 488.129 104.104 487.553 103.88C487.009 103.656 486.273 103.464 485.345 103.304C484.449 103.144 483.457 102.952 482.369 102.728C481.281 102.504 480.177 102.216 479.057 101.864C477.969 101.48 476.961 100.968 476.033 100.328C475.137 99.688 474.401 98.856 473.825 97.832C473.281 96.808 473.009 95.544 473.009 94.04C473.009 92.248 473.553 90.632 474.641 89.192C475.761 87.72 477.361 86.552 479.441 85.688C481.553 84.792 484.081 84.344 487.025 84.344C488.913 84.344 490.817 84.552 492.737 84.968C494.689 85.352 496.433 85.96 497.969 86.792L494.705 94.52C493.361 93.752 492.001 93.208 490.625 92.888C489.281 92.536 487.953 92.36 486.641 92.36C485.681 92.36 484.961 92.472 484.481 92.696C484.033 92.888 483.809 93.16 483.809 93.512C483.809 93.864 484.081 94.152 484.625 94.376C485.201 94.568 485.937 94.744 486.833 94.904C487.761 95.064 488.769 95.256 489.857 95.48C490.977 95.672 492.081 95.944 493.169 96.296C494.257 96.648 495.249 97.144 496.145 97.784C497.073 98.424 497.809 99.24 498.353 100.232C498.929 101.224 499.217 102.456 499.217 103.928ZM510.55 113V92H520.09C522.37 92 524.38 92.44 526.12 93.32C527.86 94.18 529.22 95.39 530.2 96.95C531.18 98.51 531.67 100.36 531.67 102.5C531.67 104.62 531.18 106.47 530.2 108.05C529.22 109.61 527.86 110.83 526.12 111.71C524.38 112.57 522.37 113 520.09 113H510.55ZM515.41 109.01H519.85C521.25 109.01 522.46 108.75 523.48 108.23C524.52 107.69 525.32 106.93 525.88 105.95C526.46 104.97 526.75 103.82 526.75 102.5C526.75 101.16 526.46 100.01 525.88 99.05C525.32 98.07 524.52 97.32 523.48 96.8C522.46 96.26 521.25 95.99 519.85 95.99H515.41V109.01ZM545.535 113.36C543.875 113.36 542.335 113.09 540.915 112.55C539.515 112.01 538.295 111.25 537.255 110.27C536.235 109.29 535.435 108.14 534.855 106.82C534.295 105.5 534.015 104.06 534.015 102.5C534.015 100.94 534.295 99.5 534.855 98.18C535.435 96.86 536.245 95.71 537.285 94.73C538.325 93.75 539.545 92.99 540.945 92.45C542.345 91.91 543.865 91.64 545.505 91.64C547.165 91.64 548.685 91.91 550.065 92.45C551.465 92.99 552.675 93.75 553.695 94.73C554.735 95.71 555.545 96.86 556.125 98.18C556.705 99.48 556.995 100.92 556.995 102.5C556.995 104.06 556.705 105.51 556.125 106.85C555.545 108.17 554.735 109.32 553.695 110.3C552.675 111.26 551.465 112.01 550.065 112.55C548.685 113.09 547.175 113.36 545.535 113.36ZM545.505 109.22C546.445 109.22 547.305 109.06 548.085 108.74C548.885 108.42 549.585 107.96 550.185 107.36C550.785 106.76 551.245 106.05 551.565 105.23C551.905 104.41 552.075 103.5 552.075 102.5C552.075 101.5 551.905 100.59 551.565 99.77C551.245 98.95 550.785 98.24 550.185 97.64C549.605 97.04 548.915 96.58 548.115 96.26C547.315 95.94 546.445 95.78 545.505 95.78C544.565 95.78 543.695 95.94 542.895 96.26C542.115 96.58 541.425 97.04 540.825 97.64C540.225 98.24 539.755 98.95 539.415 99.77C539.095 100.59 538.935 101.5 538.935 102.5C538.935 103.48 539.095 104.39 539.415 105.23C539.755 106.05 540.215 106.76 540.795 107.36C541.395 107.96 542.095 108.42 542.895 108.74C543.695 109.06 544.565 109.22 545.505 109.22ZM567.547 113.36C565.867 113.36 564.257 113.14 562.717 112.7C561.177 112.24 559.937 111.65 558.997 110.93L560.647 107.27C561.547 107.91 562.607 108.44 563.827 108.86C565.067 109.26 566.317 109.46 567.577 109.46C568.537 109.46 569.307 109.37 569.887 109.19C570.487 108.99 570.927 108.72 571.207 108.38C571.487 108.04 571.627 107.65 571.627 107.21C571.627 106.65 571.407 106.21 570.967 105.89C570.527 105.55 569.947 105.28 569.227 105.08C568.507 104.86 567.707 104.66 566.827 104.48C565.967 104.28 565.097 104.04 564.217 103.76C563.357 103.48 562.567 103.12 561.847 102.68C561.127 102.24 560.537 101.66 560.077 100.94C559.637 100.22 559.417 99.3 559.417 98.18C559.417 96.98 559.737 95.89 560.377 94.91C561.037 93.91 562.017 93.12 563.317 92.54C564.637 91.94 566.287 91.64 568.267 91.64C569.587 91.64 570.887 91.8 572.167 92.12C573.447 92.42 574.577 92.88 575.557 93.5L574.057 97.19C573.077 96.63 572.097 96.22 571.117 95.96C570.137 95.68 569.177 95.54 568.237 95.54C567.297 95.54 566.527 95.65 565.927 95.87C565.327 96.09 564.897 96.38 564.637 96.74C564.377 97.08 564.247 97.48 564.247 97.94C564.247 98.48 564.467 98.92 564.907 99.26C565.347 99.58 565.927 99.84 566.647 100.04C567.367 100.24 568.157 100.44 569.017 100.64C569.897 100.84 570.767 101.07 571.627 101.33C572.507 101.59 573.307 101.94 574.027 102.38C574.747 102.82 575.327 103.4 575.767 104.12C576.227 104.84 576.457 105.75 576.457 106.85C576.457 108.03 576.127 109.11 575.467 110.09C574.807 111.07 573.817 111.86 572.497 112.46C571.197 113.06 569.547 113.36 567.547 113.36ZM588.274 113V92H592.294L601.234 106.82H599.104L607.894 92H611.884L611.944 113H607.384L607.354 98.99H608.194L601.174 110.78H598.984L591.814 98.99H592.834V113H588.274ZM621.397 100.46H631.507V104.24H621.397V100.46ZM621.757 109.1H633.187V113H616.927V92H632.797V95.9H621.757V109.1ZM643.953 113.36C642.273 113.36 640.663 113.14 639.123 112.7C637.583 112.24 636.343 111.65 635.403 110.93L637.053 107.27C637.953 107.91 639.013 108.44 640.233 108.86C641.473 109.26 642.723 109.46 643.983 109.46C644.943 109.46 645.713 109.37 646.293 109.19C646.893 108.99 647.333 108.72 647.613 108.38C647.893 108.04 648.033 107.65 648.033 107.21C648.033 106.65 647.813 106.21 647.373 105.89C646.933 105.55 646.353 105.28 645.633 105.08C644.913 104.86 644.113 104.66 643.233 104.48C642.373 104.28 641.503 104.04 640.623 103.76C639.763 103.48 638.973 103.12 638.253 102.68C637.533 102.24 636.943 101.66 636.483 100.94C636.043 100.22 635.823 99.3 635.823 98.18C635.823 96.98 636.143 95.89 636.783 94.91C637.443 93.91 638.423 93.12 639.723 92.54C641.043 91.94 642.693 91.64 644.673 91.64C645.993 91.64 647.293 91.8 648.573 92.12C649.853 92.42 650.983 92.88 651.963 93.5L650.463 97.19C649.483 96.63 648.503 96.22 647.523 95.96C646.543 95.68 645.583 95.54 644.643 95.54C643.703 95.54 642.933 95.65 642.333 95.87C641.733 96.09 641.303 96.38 641.043 96.74C640.783 97.08 640.653 97.48 640.653 97.94C640.653 98.48 640.873 98.92 641.313 99.26C641.753 99.58 642.333 99.84 643.053 100.04C643.773 100.24 644.563 100.44 645.423 100.64C646.303 100.84 647.173 101.07 648.033 101.33C648.913 101.59 649.713 101.94 650.433 102.38C651.153 102.82 651.733 103.4 652.173 104.12C652.633 104.84 652.863 105.75 652.863 106.85C652.863 108.03 652.533 109.11 651.873 110.09C651.213 111.07 650.223 111.86 648.903 112.46C647.603 113.06 645.953 113.36 643.953 113.36ZM660.654 100.46H670.764V104.24H660.654V100.46ZM661.014 109.1H672.444V113H656.184V92H672.054V95.9H661.014V109.1ZM683.211 113.36C681.531 113.36 679.921 113.14 678.381 112.7C676.841 112.24 675.601 111.65 674.661 110.93L676.311 107.27C677.211 107.91 678.271 108.44 679.491 108.86C680.731 109.26 681.981 109.46 683.241 109.46C684.201 109.46 684.971 109.37 685.551 109.19C686.151 108.99 686.591 108.72 686.871 108.38C687.151 108.04 687.291 107.65 687.291 107.21C687.291 106.65 687.071 106.21 686.631 105.89C686.191 105.55 685.611 105.28 684.891 105.08C684.171 104.86 683.371 104.66 682.491 104.48C681.631 104.28 680.761 104.04 679.881 103.76C679.021 103.48 678.231 103.12 677.511 102.68C676.791 102.24 676.201 101.66 675.741 100.94C675.301 100.22 675.081 99.3 675.081 98.18C675.081 96.98 675.401 95.89 676.041 94.91C676.701 93.91 677.681 93.12 678.981 92.54C680.301 91.94 681.951 91.64 683.931 91.64C685.251 91.64 686.551 91.8 687.831 92.12C689.111 92.42 690.241 92.88 691.221 93.5L689.721 97.19C688.741 96.63 687.761 96.22 686.781 95.96C685.801 95.68 684.841 95.54 683.901 95.54C682.961 95.54 682.191 95.65 681.591 95.87C680.991 96.09 680.561 96.38 680.301 96.74C680.041 97.08 679.911 97.48 679.911 97.94C679.911 98.48 680.131 98.92 680.571 99.26C681.011 99.58 681.591 99.84 682.311 100.04C683.031 100.24 683.821 100.44 684.681 100.64C685.561 100.84 686.431 101.07 687.291 101.33C688.171 101.59 688.971 101.94 689.691 102.38C690.411 102.82 690.991 103.4 691.431 104.12C691.891 104.84 692.121 105.75 692.121 106.85C692.121 108.03 691.791 109.11 691.131 110.09C690.471 111.07 689.481 111.86 688.161 112.46C686.861 113.06 685.211 113.36 683.211 113.36Z" fill="white"/>
<defs>
<filter id="filter0_d_15_295" x="0" y="555.5" width="904" height="432" filterUnits="userSpaceOnUse" color-interpolation-filters="sRGB">
<feFlood flood-opacity="0" result="BackgroundImageFix"/>
<feColorMatrix in="SourceAlpha" type="matrix" values="0 0 0 0 0 0 0 0 0 0 0 0 0 0 0 0 0 0 127 0" result="hardAlpha"/>
<feOffset/>
<feGaussianBlur stdDeviation="18.75"/>
<feComposite in2="hardAlpha" operator="out"/>
<feColorMatrix type="matrix" values="0 0 0 0 0.788235 0 0 0 0 0.0117647 0 0 0 0 0.00784314 0 0 0 0.22 0"/>
<feBlend mode="normal" in2="BackgroundImageFix" result="effect1_dropShadow_15_295"/>
<feBlend mode="normal" in="SourceGraphic" in2="effect1_dropShadow_15_295" result="shape"/>
</filter>
<filter id="filter1_d_15_295" x="0" y="135.5" width="904" height="432" filterUnits="userSpaceOnUse" color-interpolation-filters="sRGB">
<feFlood flood-opacity="0" result="BackgroundImageFix"/>
<feColorMatrix in="SourceAlpha" type="matrix" values="0 0 0 0 0 0 0 0 0 0 0 0 0 0 0 0 0 0 127 0" result="hardAlpha"/>
<feOffset/>
<feGaussianBlur stdDeviation="18.75"/>
<feComposite in2="hardAlpha" operator="out"/>
<feColorMatrix type="matrix" values="0 0 0 0 0.788235 0 0 0 0 0.0117647 0 0 0 0 0.00784314 0 0 0 0.22 0"/>
<feBlend mode="normal" in2="BackgroundImageFix" result="effect1_dropShadow_15_295"/>
<feBlend mode="normal" in="SourceGraphic" in2="effect1_dropShadow_15_295" result="shape"/>
</filter>
</defs>
</svg>
