<svg width="1412" height="432" viewBox="0 0 1412 432" fill="none" xmlns="http://www.w3.org/2000/svg">
<g filter="url(#filter0_d_20_14)">
<rect x="933.5" y="37.5" width="441" height="357" fill="white"/>
</g>
<path d="M1053.6 144.5V123.5H1062.69C1064.57 123.5 1066.19 123.81 1067.55 124.43C1068.91 125.03 1069.96 125.9 1070.7 127.04C1071.44 128.18 1071.81 129.54 1071.81 131.12C1071.81 132.68 1071.44 134.03 1070.7 135.17C1069.96 136.31 1068.91 137.19 1067.55 137.81C1066.19 138.41 1064.57 138.71 1062.69 138.71H1056.3L1058.46 136.52V144.5H1053.6ZM1058.46 137.06L1056.3 134.75H1062.42C1063.92 134.75 1065.04 134.43 1065.78 133.79C1066.52 133.15 1066.89 132.26 1066.89 131.12C1066.89 129.96 1066.52 129.06 1065.78 128.42C1065.04 127.78 1063.92 127.46 1062.42 127.46H1056.3L1058.46 125.15V137.06ZM1075.28 144.5V123.5H1080.14V140.54H1090.67V144.5H1075.28ZM1090.74 144.5L1100.1 123.5H1104.9L1114.29 144.5H1109.19L1101.51 125.96H1103.43L1095.72 144.5H1090.74ZM1095.42 140L1096.71 136.31H1107.51L1108.83 140H1095.42ZM1116.47 144.5V123.5H1120.49L1132.88 138.62H1130.93V123.5H1135.73V144.5H1131.74L1119.32 129.38H1121.27V144.5H1116.47ZM1156.1 144.86C1154.42 144.86 1152.81 144.64 1151.27 144.2C1149.73 143.74 1148.49 143.15 1147.55 142.43L1149.2 138.77C1150.1 139.41 1151.16 139.94 1152.38 140.36C1153.62 140.76 1154.87 140.96 1156.13 140.96C1157.09 140.96 1157.86 140.87 1158.44 140.69C1159.04 140.49 1159.48 140.22 1159.76 139.88C1160.04 139.54 1160.18 139.15 1160.18 138.71C1160.18 138.15 1159.96 137.71 1159.52 137.39C1159.08 137.05 1158.5 136.78 1157.78 136.58C1157.06 136.36 1156.26 136.16 1155.38 135.98C1154.52 135.78 1153.65 135.54 1152.77 135.26C1151.91 134.98 1151.12 134.62 1150.4 134.18C1149.68 133.74 1149.09 133.16 1148.63 132.44C1148.19 131.72 1147.97 130.8 1147.97 129.68C1147.97 128.48 1148.29 127.39 1148.93 126.41C1149.59 125.41 1150.57 124.62 1151.87 124.04C1153.19 123.44 1154.84 123.14 1156.82 123.14C1158.14 123.14 1159.44 123.3 1160.72 123.62C1162 123.92 1163.13 124.38 1164.11 125L1162.61 128.69C1161.63 128.13 1160.65 127.72 1159.67 127.46C1158.69 127.18 1157.73 127.04 1156.79 127.04C1155.85 127.04 1155.08 127.15 1154.48 127.37C1153.88 127.59 1153.45 127.88 1153.19 128.24C1152.93 128.58 1152.8 128.98 1152.8 129.44C1152.8 129.98 1153.02 130.42 1153.46 130.76C1153.9 131.08 1154.48 131.34 1155.2 131.54C1155.92 131.74 1156.71 131.94 1157.57 132.14C1158.45 132.34 1159.32 132.57 1160.18 132.83C1161.06 133.09 1161.86 133.44 1162.58 133.88C1163.3 134.32 1163.88 134.9 1164.32 135.62C1164.78 136.34 1165.01 137.25 1165.01 138.35C1165.01 139.53 1164.68 140.61 1164.02 141.59C1163.36 142.57 1162.37 143.36 1161.05 143.96C1159.75 144.56 1158.1 144.86 1156.1 144.86ZM1168.33 144.5V123.5H1172.35L1181.29 138.32H1179.16L1187.95 123.5H1191.94L1192 144.5H1187.44L1187.41 130.49H1188.25L1181.23 142.28H1179.04L1171.87 130.49H1172.89V144.5H1168.33ZM1194.22 144.5L1203.58 123.5H1208.38L1217.77 144.5H1212.67L1204.99 125.96H1206.91L1199.2 144.5H1194.22ZM1198.9 140L1200.19 136.31H1210.99L1212.31 140H1198.9ZM1219.95 144.5V123.5H1229.04C1230.92 123.5 1232.54 123.81 1233.9 124.43C1235.26 125.03 1236.31 125.9 1237.05 127.04C1237.79 128.18 1238.16 129.54 1238.16 131.12C1238.16 132.68 1237.79 134.03 1237.05 135.17C1236.31 136.29 1235.26 137.15 1233.9 137.75C1232.54 138.35 1230.92 138.65 1229.04 138.65H1222.65L1224.81 136.52V144.5H1219.95ZM1233.3 144.5L1228.05 136.88H1233.24L1238.55 144.5H1233.3ZM1224.81 137.06L1222.65 134.78H1228.77C1230.27 134.78 1231.39 134.46 1232.13 133.82C1232.87 133.16 1233.24 132.26 1233.24 131.12C1233.24 129.96 1232.87 129.06 1232.13 128.42C1231.39 127.78 1230.27 127.46 1228.77 127.46H1222.65L1224.81 125.15V137.06ZM1246.07 144.5V127.46H1239.35V123.5H1257.65V127.46H1250.93V144.5H1246.07Z" fill="#C90302"/>
<path d="M1065.54 159.5L1244.22 159.5" stroke="#C90302" stroke-width="4"/>
<path d="M1187.66 278.5L1197.56 250.24H1200.17L1190.27 278.5H1187.66ZM1210.25 275.5V254.5H1212.71L1222.13 270.37H1220.81L1230.11 254.5H1232.57L1232.6 275.5H1229.72L1229.69 259.03H1230.38L1222.1 272.95H1220.72L1212.38 259.03H1213.13V275.5H1210.25ZM1245.57 275.68C1243.87 275.68 1242.37 275.33 1241.07 274.63C1239.79 273.93 1238.79 272.97 1238.07 271.75C1237.37 270.53 1237.02 269.13 1237.02 267.55C1237.02 265.97 1237.36 264.57 1238.04 263.35C1238.74 262.13 1239.69 261.18 1240.89 260.5C1242.11 259.8 1243.48 259.45 1245 259.45C1246.54 259.45 1247.9 259.79 1249.08 260.47C1250.26 261.15 1251.18 262.11 1251.84 263.35C1252.52 264.57 1252.86 266 1252.86 267.64C1252.86 267.76 1252.85 267.9 1252.83 268.06C1252.83 268.22 1252.82 268.37 1252.8 268.51H1239.27V266.44H1251.3L1250.13 267.16C1250.15 266.14 1249.94 265.23 1249.5 264.43C1249.06 263.63 1248.45 263.01 1247.67 262.57C1246.91 262.11 1246.02 261.88 1245 261.88C1244 261.88 1243.11 262.11 1242.33 262.57C1241.55 263.01 1240.94 263.64 1240.5 264.46C1240.06 265.26 1239.84 266.18 1239.84 267.22V267.7C1239.84 268.76 1240.08 269.71 1240.56 270.55C1241.06 271.37 1241.75 272.01 1242.63 272.47C1243.51 272.93 1244.52 273.16 1245.66 273.16C1246.6 273.16 1247.45 273 1248.21 272.68C1248.99 272.36 1249.67 271.88 1250.25 271.24L1251.84 273.1C1251.12 273.94 1250.22 274.58 1249.14 275.02C1248.08 275.46 1246.89 275.68 1245.57 275.68ZM1265.35 259.45C1266.65 259.45 1267.79 259.7 1268.77 260.2C1269.77 260.7 1270.55 261.46 1271.11 262.48C1271.67 263.5 1271.95 264.79 1271.95 266.35V275.5H1269.07V266.68C1269.07 265.14 1268.69 263.98 1267.93 263.2C1267.19 262.42 1266.14 262.03 1264.78 262.03C1263.76 262.03 1262.87 262.23 1262.11 262.63C1261.35 263.03 1260.76 263.62 1260.34 264.4C1259.94 265.18 1259.74 266.15 1259.74 267.31V275.5H1256.86V259.6H1259.62V263.89L1259.17 262.75C1259.69 261.71 1260.49 260.9 1261.57 260.32C1262.65 259.74 1263.91 259.45 1265.35 259.45ZM1281.83 275.68C1280.51 275.68 1279.25 275.5 1278.05 275.14C1276.87 274.78 1275.94 274.34 1275.26 273.82L1276.46 271.54C1277.14 272 1277.98 272.39 1278.98 272.71C1279.98 273.03 1281 273.19 1282.04 273.19C1283.38 273.19 1284.34 273 1284.92 272.62C1285.52 272.24 1285.82 271.71 1285.82 271.03C1285.82 270.53 1285.64 270.14 1285.28 269.86C1284.92 269.58 1284.44 269.37 1283.84 269.23C1283.26 269.09 1282.61 268.97 1281.89 268.87C1281.17 268.75 1280.45 268.61 1279.73 268.45C1279.01 268.27 1278.35 268.03 1277.75 267.73C1277.15 267.41 1276.67 266.98 1276.31 266.44C1275.95 265.88 1275.77 265.14 1275.77 264.22C1275.77 263.26 1276.04 262.42 1276.58 261.7C1277.12 260.98 1277.88 260.43 1278.86 260.05C1279.86 259.65 1281.04 259.45 1282.4 259.45C1283.44 259.45 1284.49 259.58 1285.55 259.84C1286.63 260.08 1287.51 260.43 1288.19 260.89L1286.96 263.17C1286.24 262.69 1285.49 262.36 1284.71 262.18C1283.93 262 1283.15 261.91 1282.37 261.91C1281.11 261.91 1280.17 262.12 1279.55 262.54C1278.93 262.94 1278.62 263.46 1278.62 264.1C1278.62 264.64 1278.8 265.06 1279.16 265.36C1279.54 265.64 1280.02 265.86 1280.6 266.02C1281.2 266.18 1281.86 266.32 1282.58 266.44C1283.3 266.54 1284.02 266.68 1284.74 266.86C1285.46 267.02 1286.11 267.25 1286.69 267.55C1287.29 267.85 1287.77 268.27 1288.13 268.81C1288.51 269.35 1288.7 270.07 1288.7 270.97C1288.7 271.93 1288.42 272.76 1287.86 273.46C1287.3 274.16 1286.51 274.71 1285.49 275.11C1284.47 275.49 1283.25 275.68 1281.83 275.68ZM1298.99 275.68C1297.63 275.68 1296.43 275.43 1295.39 274.93C1294.37 274.43 1293.57 273.67 1292.99 272.65C1292.43 271.61 1292.15 270.31 1292.15 268.75V259.6H1295.03V268.42C1295.03 269.98 1295.4 271.15 1296.14 271.93C1296.9 272.71 1297.96 273.1 1299.32 273.1C1300.32 273.1 1301.19 272.9 1301.93 272.5C1302.67 272.08 1303.24 271.48 1303.64 270.7C1304.04 269.9 1304.24 268.94 1304.24 267.82V259.6H1307.12V275.5H1304.39V271.21L1304.84 272.35C1304.32 273.41 1303.54 274.23 1302.5 274.81C1301.46 275.39 1300.29 275.68 1298.99 275.68ZM1322.48 275.5V272.14L1322.33 271.51V265.78C1322.33 264.56 1321.97 263.62 1321.25 262.96C1320.55 262.28 1319.49 261.94 1318.07 261.94C1317.13 261.94 1316.21 262.1 1315.31 262.42C1314.41 262.72 1313.65 263.13 1313.03 263.65L1311.83 261.49C1312.65 260.83 1313.63 260.33 1314.77 259.99C1315.93 259.63 1317.14 259.45 1318.4 259.45C1320.58 259.45 1322.26 259.98 1323.44 261.04C1324.62 262.1 1325.21 263.72 1325.21 265.9V275.5H1322.48ZM1317.26 275.68C1316.08 275.68 1315.04 275.48 1314.14 275.08C1313.26 274.68 1312.58 274.13 1312.1 273.43C1311.62 272.71 1311.38 271.9 1311.38 271C1311.38 270.14 1311.58 269.36 1311.98 268.66C1312.4 267.96 1313.07 267.4 1313.99 266.98C1314.93 266.56 1316.19 266.35 1317.77 266.35H1322.81V268.42H1317.89C1316.45 268.42 1315.48 268.66 1314.98 269.14C1314.48 269.62 1314.23 270.2 1314.23 270.88C1314.23 271.66 1314.54 272.29 1315.16 272.77C1315.78 273.23 1316.64 273.46 1317.74 273.46C1318.82 273.46 1319.76 273.22 1320.56 272.74C1321.38 272.26 1321.97 271.56 1322.33 270.64L1322.9 272.62C1322.52 273.56 1321.85 274.31 1320.89 274.87C1319.93 275.41 1318.72 275.68 1317.26 275.68ZM1330.54 275.5V253.24H1333.42V275.5H1330.54Z" fill="#C90302"/>
<path d="M1072.5 312.5V296.6H1075.38V312.5H1072.5ZM1073.94 293.54C1073.38 293.54 1072.91 293.36 1072.53 293C1072.17 292.64 1071.99 292.2 1071.99 291.68C1071.99 291.14 1072.17 290.69 1072.53 290.33C1072.91 289.97 1073.38 289.79 1073.94 289.79C1074.5 289.79 1074.96 289.97 1075.32 290.33C1075.7 290.67 1075.89 291.1 1075.89 291.62C1075.89 292.16 1075.71 292.62 1075.35 293C1074.99 293.36 1074.52 293.54 1073.94 293.54ZM1089.37 296.45C1090.67 296.45 1091.81 296.7 1092.79 297.2C1093.79 297.7 1094.57 298.46 1095.13 299.48C1095.69 300.5 1095.97 301.79 1095.97 303.35V312.5H1093.09V303.68C1093.09 302.14 1092.71 300.98 1091.95 300.2C1091.21 299.42 1090.16 299.03 1088.8 299.03C1087.78 299.03 1086.89 299.23 1086.13 299.63C1085.37 300.03 1084.78 300.62 1084.36 301.4C1083.96 302.18 1083.76 303.15 1083.76 304.31V312.5H1080.88V296.6H1083.64V300.89L1083.19 299.75C1083.71 298.71 1084.51 297.9 1085.59 297.32C1086.67 296.74 1087.93 296.45 1089.37 296.45ZM1108.23 312.68C1106.61 312.68 1105.16 312.33 1103.88 311.63C1102.62 310.93 1101.63 309.97 1100.91 308.75C1100.19 307.53 1099.83 306.13 1099.83 304.55C1099.83 302.97 1100.19 301.57 1100.91 300.35C1101.63 299.13 1102.62 298.18 1103.88 297.5C1105.16 296.8 1106.61 296.45 1108.23 296.45C1109.67 296.45 1110.95 296.74 1112.07 297.32C1113.21 297.88 1114.09 298.72 1114.71 299.84L1112.52 301.25C1112 300.47 1111.36 299.9 1110.6 299.54C1109.86 299.16 1109.06 298.97 1108.2 298.97C1107.16 298.97 1106.23 299.2 1105.41 299.66C1104.59 300.12 1103.94 300.77 1103.46 301.61C1102.98 302.43 1102.74 303.41 1102.74 304.55C1102.74 305.69 1102.98 306.68 1103.46 307.52C1103.94 308.36 1104.59 309.01 1105.41 309.47C1106.23 309.93 1107.16 310.16 1108.2 310.16C1109.06 310.16 1109.86 309.98 1110.6 309.62C1111.36 309.24 1112 308.66 1112.52 307.88L1114.71 309.26C1114.09 310.36 1113.21 311.21 1112.07 311.81C1110.95 312.39 1109.67 312.68 1108.23 312.68ZM1118.23 312.5V290.24H1121.11V312.5H1118.23ZM1133.3 312.68C1131.94 312.68 1130.74 312.43 1129.7 311.93C1128.68 311.43 1127.88 310.67 1127.3 309.65C1126.74 308.61 1126.46 307.31 1126.46 305.75V296.6H1129.34V305.42C1129.34 306.98 1129.71 308.15 1130.45 308.93C1131.21 309.71 1132.27 310.1 1133.63 310.1C1134.63 310.1 1135.5 309.9 1136.24 309.5C1136.98 309.08 1137.55 308.48 1137.95 307.7C1138.35 306.9 1138.55 305.94 1138.55 304.82V296.6H1141.43V312.5H1138.7V308.21L1139.15 309.35C1138.63 310.41 1137.85 311.23 1136.81 311.81C1135.77 312.39 1134.6 312.68 1133.3 312.68ZM1147.61 318.5C1146.85 318.5 1146.11 318.37 1145.39 318.11C1144.67 317.87 1144.05 317.51 1143.53 317.03L1144.76 314.87C1145.16 315.25 1145.6 315.54 1146.08 315.74C1146.56 315.94 1147.07 316.04 1147.61 316.04C1148.31 316.04 1148.89 315.86 1149.35 315.5C1149.81 315.14 1150.24 314.5 1150.64 313.58L1151.63 311.39L1151.93 311.03L1158.17 296.6H1160.99L1153.28 314.09C1152.82 315.21 1152.3 316.09 1151.72 316.73C1151.16 317.37 1150.54 317.82 1149.86 318.08C1149.18 318.36 1148.43 318.5 1147.61 318.5ZM1151.39 313.01L1144.13 296.6H1147.13L1153.31 310.76L1151.39 313.01ZM1170.31 312.68C1168.61 312.68 1167.11 312.33 1165.81 311.63C1164.53 310.93 1163.53 309.97 1162.81 308.75C1162.11 307.53 1161.76 306.13 1161.76 304.55C1161.76 302.97 1162.1 301.57 1162.78 300.35C1163.48 299.13 1164.43 298.18 1165.63 297.5C1166.85 296.8 1168.22 296.45 1169.74 296.45C1171.28 296.45 1172.64 296.79 1173.82 297.47C1175 298.15 1175.92 299.11 1176.58 300.35C1177.26 301.57 1177.6 303 1177.6 304.64C1177.6 304.76 1177.59 304.9 1177.57 305.06C1177.57 305.22 1177.56 305.37 1177.54 305.51H1164.01V303.44H1176.04L1174.87 304.16C1174.89 303.14 1174.68 302.23 1174.24 301.43C1173.8 300.63 1173.19 300.01 1172.41 299.57C1171.65 299.11 1170.76 298.88 1169.74 298.88C1168.74 298.88 1167.85 299.11 1167.07 299.57C1166.29 300.01 1165.68 300.64 1165.24 301.46C1164.8 302.26 1164.58 303.18 1164.58 304.22V304.7C1164.58 305.76 1164.82 306.71 1165.3 307.55C1165.8 308.37 1166.49 309.01 1167.37 309.47C1168.25 309.93 1169.26 310.16 1170.4 310.16C1171.34 310.16 1172.19 310 1172.95 309.68C1173.73 309.36 1174.41 308.88 1174.99 308.24L1176.58 310.1C1175.86 310.94 1174.96 311.58 1173.88 312.02C1172.82 312.46 1171.63 312.68 1170.31 312.68ZM1190.08 312.5V291.5H1193.08V312.5H1190.08ZM1205.22 312.5L1195.98 291.5H1199.22L1207.71 310.88H1205.85L1214.4 291.5H1217.4L1208.19 312.5H1205.22ZM1216.23 312.5L1225.74 291.5H1228.71L1238.25 312.5H1235.1L1226.61 293.18H1227.81L1219.32 312.5H1216.23ZM1220.28 307.25L1221.09 304.85H1232.91L1233.78 307.25H1220.28Z" fill="#C90302"/>
<path d="M1034.47 276.268C1030.89 276.268 1027.45 275.799 1024.17 274.86C1020.88 273.879 1018.23 272.62 1016.23 271.084L1019.75 263.276C1021.67 264.641 1023.93 265.772 1026.53 266.668C1029.18 267.521 1031.85 267.948 1034.53 267.948C1036.58 267.948 1038.22 267.756 1039.46 267.372C1040.74 266.945 1041.68 266.369 1042.28 265.644C1042.87 264.919 1043.17 264.087 1043.17 263.148C1043.17 261.953 1042.7 261.015 1041.77 260.332C1040.83 259.607 1039.59 259.031 1038.05 258.604C1036.52 258.135 1034.81 257.708 1032.93 257.324C1031.1 256.897 1029.24 256.385 1027.37 255.788C1025.53 255.191 1023.85 254.423 1022.31 253.484C1020.77 252.545 1019.51 251.308 1018.53 249.772C1017.59 248.236 1017.13 246.273 1017.13 243.884C1017.13 241.324 1017.81 238.999 1019.17 236.908C1020.58 234.775 1022.67 233.089 1025.45 231.852C1028.26 230.572 1031.78 229.932 1036.01 229.932C1038.82 229.932 1041.59 230.273 1044.33 230.956C1047.06 231.596 1049.47 232.577 1051.56 233.9L1048.36 241.772C1046.27 240.577 1044.18 239.703 1042.09 239.148C1039.99 238.551 1037.95 238.252 1035.94 238.252C1033.94 238.252 1032.29 238.487 1031.01 238.956C1029.73 239.425 1028.82 240.044 1028.26 240.812C1027.71 241.537 1027.43 242.391 1027.43 243.372C1027.43 244.524 1027.9 245.463 1028.84 246.188C1029.78 246.871 1031.01 247.425 1032.55 247.852C1034.09 248.279 1035.77 248.705 1037.61 249.132C1039.48 249.559 1041.34 250.049 1043.17 250.604C1045.05 251.159 1046.76 251.905 1048.29 252.844C1049.83 253.783 1051.07 255.02 1052.01 256.556C1052.99 258.092 1053.48 260.033 1053.48 262.38C1053.48 264.897 1052.77 267.201 1051.37 269.292C1049.96 271.383 1047.85 273.068 1045.03 274.348C1042.26 275.628 1038.74 276.268 1034.47 276.268ZM1032.04 283.18V223.02H1038.44V283.18H1032.04ZM1057.86 266.092V259.116L1078.98 230.7H1089.86L1069.19 259.116L1064.13 257.644H1099.4V266.092H1057.86ZM1081.99 275.5V266.092L1082.31 257.644V249.26H1092.1V275.5H1081.99ZM1117.73 276.268C1114.61 276.268 1111.52 275.863 1108.45 275.052C1105.42 274.199 1102.82 273.004 1100.64 271.468L1104.74 263.532C1106.44 264.769 1108.41 265.751 1110.62 266.476C1112.89 267.201 1115.17 267.564 1117.47 267.564C1120.07 267.564 1122.12 267.052 1123.62 266.028C1125.11 265.004 1125.86 263.575 1125.86 261.74C1125.86 260.588 1125.56 259.564 1124.96 258.668C1124.36 257.772 1123.3 257.089 1121.76 256.62C1120.27 256.151 1118.15 255.916 1115.42 255.916H1103.97L1106.27 230.7H1133.6V239.02H1109.98L1115.36 234.284L1113.76 252.268L1108.38 247.532H1117.86C1122.29 247.532 1125.86 248.151 1128.54 249.388C1131.27 250.583 1133.26 252.225 1134.5 254.316C1135.73 256.407 1136.35 258.775 1136.35 261.42C1136.35 264.065 1135.69 266.519 1134.37 268.78C1133.05 270.999 1131 272.812 1128.22 274.22C1125.49 275.585 1121.99 276.268 1117.73 276.268ZM1159.76 276.268C1156.09 276.268 1152.8 275.372 1149.9 273.58C1147 271.745 1144.72 269.1 1143.05 265.644C1141.39 262.188 1140.56 258.007 1140.56 253.1C1140.56 248.193 1141.39 244.012 1143.05 240.556C1144.72 237.1 1147 234.476 1149.9 232.684C1152.8 230.849 1156.09 229.932 1159.76 229.932C1163.47 229.932 1166.76 230.849 1169.61 232.684C1172.52 234.476 1174.8 237.1 1176.46 240.556C1178.13 244.012 1178.96 248.193 1178.96 253.1C1178.96 258.007 1178.13 262.188 1176.46 265.644C1174.8 269.1 1172.52 271.745 1169.61 273.58C1166.76 275.372 1163.47 276.268 1159.76 276.268ZM1159.76 267.5C1161.51 267.5 1163.02 267.009 1164.3 266.028C1165.63 265.047 1166.65 263.489 1167.37 261.356C1168.14 259.223 1168.53 256.471 1168.53 253.1C1168.53 249.729 1168.14 246.977 1167.37 244.844C1166.65 242.711 1165.63 241.153 1164.3 240.172C1163.02 239.191 1161.51 238.7 1159.76 238.7C1158.05 238.7 1156.54 239.191 1155.21 240.172C1153.93 241.153 1152.91 242.711 1152.14 244.844C1151.42 246.977 1151.05 249.729 1151.05 253.1C1151.05 256.471 1151.42 259.223 1152.14 261.356C1152.91 263.489 1153.93 265.047 1155.21 266.028C1156.54 267.009 1158.05 267.5 1159.76 267.5Z" fill="#C90302"/>
<g filter="url(#filter1_d_20_14)">
<rect x="37.5" y="37.5" width="829" height="357" fill="white"/>
</g>
<path d="M365.058 144.5V123.5H374.148C376.028 123.5 377.648 123.81 379.008 124.43C380.368 125.03 381.418 125.9 382.158 127.04C382.898 128.18 383.268 129.54 383.268 131.12C383.268 132.68 382.898 134.03 382.158 135.17C381.418 136.31 380.368 137.19 379.008 137.81C377.648 138.41 376.028 138.71 374.148 138.71H367.758L369.918 136.52V144.5H365.058ZM369.918 137.06L367.758 134.75H373.878C375.378 134.75 376.498 134.43 377.238 133.79C377.978 133.15 378.348 132.26 378.348 131.12C378.348 129.96 377.978 129.06 377.238 128.42C376.498 127.78 375.378 127.46 373.878 127.46H367.758L369.918 125.15V137.06ZM386.738 144.5V123.5H391.598V140.54H402.128V144.5H386.738ZM402.2 144.5L411.56 123.5H416.36L425.75 144.5H420.65L412.97 125.96H414.89L407.18 144.5H402.2ZM406.88 140L408.17 136.31H418.97L420.29 140H406.88ZM427.929 144.5V123.5H431.949L444.339 138.62H442.389V123.5H447.189V144.5H443.199L430.779 129.38H432.729V144.5H427.929ZM460.654 144.5V123.5H469.744C471.624 123.5 473.244 123.81 474.604 124.43C475.964 125.03 477.014 125.9 477.754 127.04C478.494 128.18 478.864 129.54 478.864 131.12C478.864 132.68 478.494 134.03 477.754 135.17C477.014 136.31 475.964 137.19 474.604 137.81C473.244 138.41 471.624 138.71 469.744 138.71H463.354L465.514 136.52V144.5H460.654ZM465.514 137.06L463.354 134.75H469.474C470.974 134.75 472.094 134.43 472.834 133.79C473.574 133.15 473.944 132.26 473.944 131.12C473.944 129.96 473.574 129.06 472.834 128.42C472.094 127.78 470.974 127.46 469.474 127.46H463.354L465.514 125.15V137.06ZM482.333 144.5V123.5H487.193V140.54H497.723V144.5H482.333ZM509.534 144.86C506.554 144.86 504.224 144.03 502.544 142.37C500.864 140.71 500.024 138.34 500.024 135.26V123.5H504.884V135.08C504.884 137.08 505.294 138.52 506.114 139.4C506.934 140.28 508.084 140.72 509.564 140.72C511.044 140.72 512.194 140.28 513.014 139.4C513.834 138.52 514.244 137.08 514.244 135.08V123.5H519.044V135.26C519.044 138.34 518.204 140.71 516.524 142.37C514.844 144.03 512.514 144.86 509.534 144.86ZM530.747 144.86C529.067 144.86 527.457 144.64 525.917 144.2C524.377 143.74 523.137 143.15 522.197 142.43L523.847 138.77C524.747 139.41 525.807 139.94 527.027 140.36C528.267 140.76 529.517 140.96 530.777 140.96C531.737 140.96 532.507 140.87 533.087 140.69C533.687 140.49 534.127 140.22 534.407 139.88C534.687 139.54 534.827 139.15 534.827 138.71C534.827 138.15 534.607 137.71 534.167 137.39C533.727 137.05 533.147 136.78 532.427 136.58C531.707 136.36 530.907 136.16 530.027 135.98C529.167 135.78 528.297 135.54 527.417 135.26C526.557 134.98 525.767 134.62 525.047 134.18C524.327 133.74 523.737 133.16 523.277 132.44C522.837 131.72 522.617 130.8 522.617 129.68C522.617 128.48 522.937 127.39 523.577 126.41C524.237 125.41 525.217 124.62 526.517 124.04C527.837 123.44 529.487 123.14 531.467 123.14C532.787 123.14 534.087 123.3 535.367 123.62C536.647 123.92 537.777 124.38 538.757 125L537.257 128.69C536.277 128.13 535.297 127.72 534.317 127.46C533.337 127.18 532.377 127.04 531.437 127.04C530.497 127.04 529.727 127.15 529.127 127.37C528.527 127.59 528.097 127.88 527.837 128.24C527.577 128.58 527.447 128.98 527.447 129.44C527.447 129.98 527.667 130.42 528.107 130.76C528.547 131.08 529.127 131.34 529.847 131.54C530.567 131.74 531.357 131.94 532.217 132.14C533.097 132.34 533.967 132.57 534.827 132.83C535.707 133.09 536.507 133.44 537.227 133.88C537.947 134.32 538.527 134.9 538.967 135.62C539.427 136.34 539.657 137.25 539.657 138.35C539.657 139.53 539.327 140.61 538.667 141.59C538.007 142.57 537.017 143.36 535.697 143.96C534.397 144.56 532.747 144.86 530.747 144.86Z" fill="#C90302"/>
<path d="M284.404 159.5L620.307 159.5" stroke="#C90302" stroke-width="4"/>
<path d="M465.66 278.5L475.56 250.24H478.17L468.27 278.5H465.66ZM488.254 275.5V254.5H490.714L500.134 270.37H498.814L508.114 254.5H510.574L510.604 275.5H507.724L507.694 259.03H508.384L500.104 272.95H498.724L490.384 259.03H491.134V275.5H488.254ZM523.566 275.68C521.866 275.68 520.366 275.33 519.066 274.63C517.786 273.93 516.786 272.97 516.066 271.75C515.366 270.53 515.016 269.13 515.016 267.55C515.016 265.97 515.356 264.57 516.036 263.35C516.736 262.13 517.686 261.18 518.886 260.5C520.106 259.8 521.476 259.45 522.996 259.45C524.536 259.45 525.896 259.79 527.076 260.47C528.256 261.15 529.176 262.11 529.836 263.35C530.516 264.57 530.856 266 530.856 267.64C530.856 267.76 530.846 267.9 530.826 268.06C530.826 268.22 530.816 268.37 530.796 268.51H517.266V266.44H529.296L528.126 267.16C528.146 266.14 527.936 265.23 527.496 264.43C527.056 263.63 526.446 263.01 525.666 262.57C524.906 262.11 524.016 261.88 522.996 261.88C521.996 261.88 521.106 262.11 520.326 262.57C519.546 263.01 518.936 263.64 518.496 264.46C518.056 265.26 517.836 266.18 517.836 267.22V267.7C517.836 268.76 518.076 269.71 518.556 270.55C519.056 271.37 519.746 272.01 520.626 272.47C521.506 272.93 522.516 273.16 523.656 273.16C524.596 273.16 525.446 273 526.206 272.68C526.986 272.36 527.666 271.88 528.246 271.24L529.836 273.1C529.116 273.94 528.216 274.58 527.136 275.02C526.076 275.46 524.886 275.68 523.566 275.68ZM543.345 259.45C544.645 259.45 545.785 259.7 546.765 260.2C547.765 260.7 548.545 261.46 549.105 262.48C549.665 263.5 549.945 264.79 549.945 266.35V275.5H547.065V266.68C547.065 265.14 546.685 263.98 545.925 263.2C545.185 262.42 544.135 262.03 542.775 262.03C541.755 262.03 540.865 262.23 540.105 262.63C539.345 263.03 538.755 263.62 538.335 264.4C537.935 265.18 537.735 266.15 537.735 267.31V275.5H534.855V259.6H537.615V263.89L537.165 262.75C537.685 261.71 538.485 260.9 539.565 260.32C540.645 259.74 541.905 259.45 543.345 259.45ZM559.835 275.68C558.515 275.68 557.255 275.5 556.055 275.14C554.875 274.78 553.945 274.34 553.265 273.82L554.465 271.54C555.145 272 555.985 272.39 556.985 272.71C557.985 273.03 559.005 273.19 560.045 273.19C561.385 273.19 562.345 273 562.925 272.62C563.525 272.24 563.825 271.71 563.825 271.03C563.825 270.53 563.645 270.14 563.285 269.86C562.925 269.58 562.445 269.37 561.845 269.23C561.265 269.09 560.615 268.97 559.895 268.87C559.175 268.75 558.455 268.61 557.735 268.45C557.015 268.27 556.355 268.03 555.755 267.73C555.155 267.41 554.675 266.98 554.315 266.44C553.955 265.88 553.775 265.14 553.775 264.22C553.775 263.26 554.045 262.42 554.585 261.7C555.125 260.98 555.885 260.43 556.865 260.05C557.865 259.65 559.045 259.45 560.405 259.45C561.445 259.45 562.495 259.58 563.555 259.84C564.635 260.08 565.515 260.43 566.195 260.89L564.965 263.17C564.245 262.69 563.495 262.36 562.715 262.18C561.935 262 561.155 261.91 560.375 261.91C559.115 261.91 558.175 262.12 557.555 262.54C556.935 262.94 556.625 263.46 556.625 264.1C556.625 264.64 556.805 265.06 557.165 265.36C557.545 265.64 558.025 265.86 558.605 266.02C559.205 266.18 559.865 266.32 560.585 266.44C561.305 266.54 562.025 266.68 562.745 266.86C563.465 267.02 564.115 267.25 564.695 267.55C565.295 267.85 565.775 268.27 566.135 268.81C566.515 269.35 566.705 270.07 566.705 270.97C566.705 271.93 566.425 272.76 565.865 273.46C565.305 274.16 564.515 274.71 563.495 275.11C562.475 275.49 561.255 275.68 559.835 275.68ZM576.994 275.68C575.634 275.68 574.434 275.43 573.394 274.93C572.374 274.43 571.574 273.67 570.994 272.65C570.434 271.61 570.154 270.31 570.154 268.75V259.6H573.034V268.42C573.034 269.98 573.404 271.15 574.144 271.93C574.904 272.71 575.964 273.1 577.324 273.1C578.324 273.1 579.194 272.9 579.934 272.5C580.674 272.08 581.244 271.48 581.644 270.7C582.044 269.9 582.244 268.94 582.244 267.82V259.6H585.124V275.5H582.394V271.21L582.844 272.35C582.324 273.41 581.544 274.23 580.504 274.81C579.464 275.39 578.294 275.68 576.994 275.68ZM600.477 275.5V272.14L600.327 271.51V265.78C600.327 264.56 599.967 263.62 599.247 262.96C598.547 262.28 597.487 261.94 596.067 261.94C595.127 261.94 594.207 262.1 593.307 262.42C592.407 262.72 591.647 263.13 591.027 263.65L589.827 261.49C590.647 260.83 591.627 260.33 592.767 259.99C593.927 259.63 595.137 259.45 596.397 259.45C598.577 259.45 600.257 259.98 601.437 261.04C602.617 262.1 603.207 263.72 603.207 265.9V275.5H600.477ZM595.257 275.68C594.077 275.68 593.037 275.48 592.137 275.08C591.257 274.68 590.577 274.13 590.097 273.43C589.617 272.71 589.377 271.9 589.377 271C589.377 270.14 589.577 269.36 589.977 268.66C590.397 267.96 591.067 267.4 591.987 266.98C592.927 266.56 594.187 266.35 595.767 266.35H600.807V268.42H595.887C594.447 268.42 593.477 268.66 592.977 269.14C592.477 269.62 592.227 270.2 592.227 270.88C592.227 271.66 592.537 272.29 593.157 272.77C593.777 273.23 594.637 273.46 595.737 273.46C596.817 273.46 597.757 273.22 598.557 272.74C599.377 272.26 599.967 271.56 600.327 270.64L600.897 272.62C600.517 273.56 599.847 274.31 598.887 274.87C597.927 275.41 596.717 275.68 595.257 275.68ZM608.537 275.5V253.24H611.417V275.5H608.537Z" fill="#C90302"/>
<path d="M263.782 276.268C260.198 276.268 256.763 275.799 253.478 274.86C250.193 273.879 247.547 272.62 245.542 271.084L249.062 263.276C250.982 264.641 253.243 265.772 255.846 266.668C258.491 267.521 261.158 267.948 263.846 267.948C265.894 267.948 267.537 267.756 268.774 267.372C270.054 266.945 270.993 266.369 271.59 265.644C272.187 264.919 272.486 264.087 272.486 263.148C272.486 261.953 272.017 261.015 271.078 260.332C270.139 259.607 268.902 259.031 267.366 258.604C265.83 258.135 264.123 257.708 262.246 257.324C260.411 256.897 258.555 256.385 256.678 255.788C254.843 255.191 253.158 254.423 251.622 253.484C250.086 252.545 248.827 251.308 247.846 249.772C246.907 248.236 246.438 246.273 246.438 243.884C246.438 241.324 247.121 238.999 248.486 236.908C249.894 234.775 251.985 233.089 254.758 231.852C257.574 230.572 261.094 229.932 265.318 229.932C268.134 229.932 270.907 230.273 273.638 230.956C276.369 231.596 278.779 232.577 280.87 233.9L277.67 241.772C275.579 240.577 273.489 239.703 271.398 239.148C269.307 238.551 267.259 238.252 265.254 238.252C263.249 238.252 261.606 238.487 260.326 238.956C259.046 239.425 258.129 240.044 257.574 240.812C257.019 241.537 256.742 242.391 256.742 243.372C256.742 244.524 257.211 245.463 258.15 246.188C259.089 246.871 260.326 247.425 261.862 247.852C263.398 248.279 265.083 248.705 266.918 249.132C268.795 249.559 270.651 250.049 272.486 250.604C274.363 251.159 276.07 251.905 277.606 252.844C279.142 253.783 280.379 255.02 281.318 256.556C282.299 258.092 282.79 260.033 282.79 262.38C282.79 264.897 282.086 267.201 280.678 269.292C279.27 271.383 277.158 273.068 274.342 274.348C271.569 275.628 268.049 276.268 263.782 276.268ZM261.35 283.18V223.02H267.75V283.18H261.35ZM293.345 275.5V234.54L297.826 239.02H284.386V230.7H303.714V275.5H293.345ZM311.88 285.356L316.104 269.996L317.512 275.756C315.677 275.756 314.163 275.223 312.968 274.156C311.816 273.089 311.24 271.617 311.24 269.74C311.24 267.863 311.837 266.369 313.032 265.26C314.227 264.151 315.699 263.596 317.448 263.596C319.24 263.596 320.712 264.172 321.864 265.324C323.016 266.433 323.592 267.905 323.592 269.74C323.592 270.295 323.549 270.849 323.464 271.404C323.379 271.916 323.208 272.556 322.952 273.324C322.739 274.049 322.376 274.988 321.864 276.14L318.216 285.356H311.88ZM346.634 276.268C342.964 276.268 339.679 275.372 336.778 273.58C333.876 271.745 331.594 269.1 329.93 265.644C328.266 262.188 327.434 258.007 327.434 253.1C327.434 248.193 328.266 244.012 329.93 240.556C331.594 237.1 333.876 234.476 336.778 232.684C339.679 230.849 342.964 229.932 346.634 229.932C350.346 229.932 353.631 230.849 356.49 232.684C359.391 234.476 361.674 237.1 363.338 240.556C365.002 244.012 365.834 248.193 365.834 253.1C365.834 258.007 365.002 262.188 363.338 265.644C361.674 269.1 359.391 271.745 356.49 273.58C353.631 275.372 350.346 276.268 346.634 276.268ZM346.634 267.5C348.383 267.5 349.898 267.009 351.178 266.028C352.5 265.047 353.524 263.489 354.25 261.356C355.018 259.223 355.402 256.471 355.402 253.1C355.402 249.729 355.018 246.977 354.25 244.844C353.524 242.711 352.5 241.153 351.178 240.172C349.898 239.191 348.383 238.7 346.634 238.7C344.927 238.7 343.412 239.191 342.09 240.172C340.81 241.153 339.786 242.711 339.018 244.844C338.292 246.977 337.93 249.729 337.93 253.1C337.93 256.471 338.292 259.223 339.018 261.356C339.786 263.489 340.81 265.047 342.09 266.028C343.412 267.009 344.927 267.5 346.634 267.5ZM390.071 276.268C386.402 276.268 383.116 275.372 380.215 273.58C377.314 271.745 375.031 269.1 373.367 265.644C371.703 262.188 370.871 258.007 370.871 253.1C370.871 248.193 371.703 244.012 373.367 240.556C375.031 237.1 377.314 234.476 380.215 232.684C383.116 230.849 386.402 229.932 390.071 229.932C393.783 229.932 397.068 230.849 399.927 232.684C402.828 234.476 405.111 237.1 406.775 240.556C408.439 244.012 409.271 248.193 409.271 253.1C409.271 258.007 408.439 262.188 406.775 265.644C405.111 269.1 402.828 271.745 399.927 273.58C397.068 275.372 393.783 276.268 390.071 276.268ZM390.071 267.5C391.82 267.5 393.335 267.009 394.615 266.028C395.938 265.047 396.962 263.489 397.687 261.356C398.455 259.223 398.839 256.471 398.839 253.1C398.839 249.729 398.455 246.977 397.687 244.844C396.962 242.711 395.938 241.153 394.615 240.172C393.335 239.191 391.82 238.7 390.071 238.7C388.364 238.7 386.85 239.191 385.527 240.172C384.247 241.153 383.223 242.711 382.455 244.844C381.73 246.977 381.367 249.729 381.367 253.1C381.367 256.471 381.73 259.223 382.455 261.356C383.223 263.489 384.247 265.047 385.527 266.028C386.85 267.009 388.364 267.5 390.071 267.5ZM433.509 276.268C429.839 276.268 426.554 275.372 423.653 273.58C420.751 271.745 418.469 269.1 416.805 265.644C415.141 262.188 414.309 258.007 414.309 253.1C414.309 248.193 415.141 244.012 416.805 240.556C418.469 237.1 420.751 234.476 423.653 232.684C426.554 230.849 429.839 229.932 433.509 229.932C437.221 229.932 440.506 230.849 443.365 232.684C446.266 234.476 448.549 237.1 450.213 240.556C451.877 244.012 452.709 248.193 452.709 253.1C452.709 258.007 451.877 262.188 450.213 265.644C448.549 269.1 446.266 271.745 443.365 273.58C440.506 275.372 437.221 276.268 433.509 276.268ZM433.509 267.5C435.258 267.5 436.773 267.009 438.053 266.028C439.375 265.047 440.399 263.489 441.125 261.356C441.893 259.223 442.277 256.471 442.277 253.1C442.277 249.729 441.893 246.977 441.125 244.844C440.399 242.711 439.375 241.153 438.053 240.172C436.773 239.191 435.258 238.7 433.509 238.7C431.802 238.7 430.287 239.191 428.965 240.172C427.685 241.153 426.661 242.711 425.893 244.844C425.167 246.977 424.805 249.729 424.805 253.1C424.805 256.471 425.167 259.223 425.893 261.356C426.661 263.489 427.685 265.047 428.965 266.028C430.287 267.009 431.802 267.5 433.509 267.5Z" fill="#C90302"/>
<path d="M390.501 312.5V296.6H393.381V312.5H390.501ZM391.941 293.54C391.381 293.54 390.911 293.36 390.531 293C390.171 292.64 389.991 292.2 389.991 291.68C389.991 291.14 390.171 290.69 390.531 290.33C390.911 289.97 391.381 289.79 391.941 289.79C392.501 289.79 392.961 289.97 393.321 290.33C393.701 290.67 393.891 291.1 393.891 291.62C393.891 292.16 393.711 292.62 393.351 293C392.991 293.36 392.521 293.54 391.941 293.54ZM407.37 296.45C408.67 296.45 409.81 296.7 410.79 297.2C411.79 297.7 412.57 298.46 413.13 299.48C413.69 300.5 413.97 301.79 413.97 303.35V312.5H411.09V303.68C411.09 302.14 410.71 300.98 409.95 300.2C409.21 299.42 408.16 299.03 406.8 299.03C405.78 299.03 404.89 299.23 404.13 299.63C403.37 300.03 402.78 300.62 402.36 301.4C401.96 302.18 401.76 303.15 401.76 304.31V312.5H398.88V296.6H401.64V300.89L401.19 299.75C401.71 298.71 402.51 297.9 403.59 297.32C404.67 296.74 405.93 296.45 407.37 296.45ZM426.23 312.68C424.61 312.68 423.16 312.33 421.88 311.63C420.62 310.93 419.63 309.97 418.91 308.75C418.19 307.53 417.83 306.13 417.83 304.55C417.83 302.97 418.19 301.57 418.91 300.35C419.63 299.13 420.62 298.18 421.88 297.5C423.16 296.8 424.61 296.45 426.23 296.45C427.67 296.45 428.95 296.74 430.07 297.32C431.21 297.88 432.09 298.72 432.71 299.84L430.52 301.25C430 300.47 429.36 299.9 428.6 299.54C427.86 299.16 427.06 298.97 426.2 298.97C425.16 298.97 424.23 299.2 423.41 299.66C422.59 300.12 421.94 300.77 421.46 301.61C420.98 302.43 420.74 303.41 420.74 304.55C420.74 305.69 420.98 306.68 421.46 307.52C421.94 308.36 422.59 309.01 423.41 309.47C424.23 309.93 425.16 310.16 426.2 310.16C427.06 310.16 427.86 309.98 428.6 309.62C429.36 309.24 430 308.66 430.52 307.88L432.71 309.26C432.09 310.36 431.21 311.21 430.07 311.81C428.95 312.39 427.67 312.68 426.23 312.68ZM436.234 312.5V290.24H439.114V312.5H436.234ZM451.303 312.68C449.943 312.68 448.743 312.43 447.703 311.93C446.683 311.43 445.883 310.67 445.303 309.65C444.743 308.61 444.463 307.31 444.463 305.75V296.6H447.343V305.42C447.343 306.98 447.713 308.15 448.453 308.93C449.213 309.71 450.273 310.1 451.633 310.1C452.633 310.1 453.503 309.9 454.243 309.5C454.983 309.08 455.553 308.48 455.953 307.7C456.353 306.9 456.553 305.94 456.553 304.82V296.6H459.433V312.5H456.703V308.21L457.153 309.35C456.633 310.41 455.853 311.23 454.813 311.81C453.773 312.39 452.603 312.68 451.303 312.68ZM465.606 318.5C464.846 318.5 464.106 318.37 463.386 318.11C462.666 317.87 462.046 317.51 461.526 317.03L462.756 314.87C463.156 315.25 463.596 315.54 464.076 315.74C464.556 315.94 465.066 316.04 465.606 316.04C466.306 316.04 466.886 315.86 467.346 315.5C467.806 315.14 468.236 314.5 468.636 313.58L469.626 311.39L469.926 311.03L476.166 296.6H478.986L471.276 314.09C470.816 315.21 470.296 316.09 469.716 316.73C469.156 317.37 468.536 317.82 467.856 318.08C467.176 318.36 466.426 318.5 465.606 318.5ZM469.386 313.01L462.126 296.6H465.126L471.306 310.76L469.386 313.01ZM488.314 312.68C486.614 312.68 485.114 312.33 483.814 311.63C482.534 310.93 481.534 309.97 480.814 308.75C480.114 307.53 479.764 306.13 479.764 304.55C479.764 302.97 480.104 301.57 480.784 300.35C481.484 299.13 482.434 298.18 483.634 297.5C484.854 296.8 486.224 296.45 487.744 296.45C489.284 296.45 490.644 296.79 491.824 297.47C493.004 298.15 493.924 299.11 494.584 300.35C495.264 301.57 495.604 303 495.604 304.64C495.604 304.76 495.594 304.9 495.574 305.06C495.574 305.22 495.564 305.37 495.544 305.51H482.014V303.44H494.044L492.874 304.16C492.894 303.14 492.684 302.23 492.244 301.43C491.804 300.63 491.194 300.01 490.414 299.57C489.654 299.11 488.764 298.88 487.744 298.88C486.744 298.88 485.854 299.11 485.074 299.57C484.294 300.01 483.684 300.64 483.244 301.46C482.804 302.26 482.584 303.18 482.584 304.22V304.7C482.584 305.76 482.824 306.71 483.304 307.55C483.804 308.37 484.494 309.01 485.374 309.47C486.254 309.93 487.264 310.16 488.404 310.16C489.344 310.16 490.194 310 490.954 309.68C491.734 309.36 492.414 308.88 492.994 308.24L494.584 310.1C493.864 310.94 492.964 311.58 491.884 312.02C490.824 312.46 489.634 312.68 488.314 312.68ZM508.08 312.5V291.5H511.08V312.5H508.08ZM523.222 312.5L513.982 291.5H517.222L525.712 310.88H523.852L532.402 291.5H535.402L526.192 312.5H523.222ZM534.226 312.5L543.736 291.5H546.706L556.246 312.5H553.096L544.606 293.18H545.806L537.316 312.5H534.226ZM538.276 307.25L539.086 304.85H550.906L551.776 307.25H538.276Z" fill="#C90302"/>
<defs>
<filter id="filter0_d_20_14" x="896" y="0" width="516" height="432" filterUnits="userSpaceOnUse" color-interpolation-filters="sRGB">
<feFlood flood-opacity="0" result="BackgroundImageFix"/>
<feColorMatrix in="SourceAlpha" type="matrix" values="0 0 0 0 0 0 0 0 0 0 0 0 0 0 0 0 0 0 127 0" result="hardAlpha"/>
<feOffset/>
<feGaussianBlur stdDeviation="18.75"/>
<feComposite in2="hardAlpha" operator="out"/>
<feColorMatrix type="matrix" values="0 0 0 0 0.788235 0 0 0 0 0.0117647 0 0 0 0 0.00784314 0 0 0 0.22 0"/>
<feBlend mode="normal" in2="BackgroundImageFix" result="effect1_dropShadow_20_14"/>
<feBlend mode="normal" in="SourceGraphic" in2="effect1_dropShadow_20_14" result="shape"/>
</filter>
<filter id="filter1_d_20_14" x="0" y="0" width="904" height="432" filterUnits="userSpaceOnUse" color-interpolation-filters="sRGB">
<feFlood flood-opacity="0" result="BackgroundImageFix"/>
<feColorMatrix in="SourceAlpha" type="matrix" values="0 0 0 0 0 0 0 0 0 0 0 0 0 0 0 0 0 0 127 0" result="hardAlpha"/>
<feOffset/>
<feGaussianBlur stdDeviation="18.75"/>
<feComposite in2="hardAlpha" operator="out"/>
<feColorMatrix type="matrix" values="0 0 0 0 0.788235 0 0 0 0 0.0117647 0 0 0 0 0.00784314 0 0 0 0.22 0"/>
<feBlend mode="normal" in2="BackgroundImageFix" result="effect1_dropShadow_20_14"/>
<feBlend mode="normal" in="SourceGraphic" in2="effect1_dropShadow_20_14" result="shape"/>
</filter>
</defs>
</svg>
