<svg width="262" height="198" viewBox="0 0 262 198" fill="none" xmlns="http://www.w3.org/2000/svg">
<circle cx="3.30012" cy="3.3" r="3.3" fill="white"/>
<circle cx="3.30012" cy="35.2" r="3.3" fill="white"/>
<circle cx="3.30012" cy="67.1" r="3.3" fill="white"/>
<circle cx="3.30012" cy="99" r="3.3" fill="white"/>
<circle cx="3.30012" cy="130.9" r="3.3" fill="white"/>
<circle cx="3.30012" cy="162.8" r="3.3" fill="white"/>
<circle cx="3.30012" cy="194.7" r="3.3" fill="white"/>
<circle cx="35.1999" cy="3.3" r="3.3" fill="white"/>
<circle cx="35.1999" cy="35.2" r="3.3" fill="white"/>
<circle cx="35.1999" cy="67.1" r="3.3" fill="white"/>
<circle cx="35.1999" cy="99" r="3.3" fill="white"/>
<circle cx="35.1999" cy="130.9" r="3.3" fill="white"/>
<circle cx="35.1999" cy="162.8" r="3.3" fill="white"/>
<circle cx="35.1999" cy="194.7" r="3.3" fill="white"/>
<circle cx="67.1001" cy="3.3" r="3.3" fill="white"/>
<circle cx="67.1001" cy="35.2" r="3.3" fill="white"/>
<circle cx="67.1001" cy="67.1" r="3.3" fill="white"/>
<circle cx="67.1001" cy="99" r="3.3" fill="white"/>
<circle cx="67.1001" cy="130.9" r="3.3" fill="white"/>
<circle cx="67.1001" cy="162.8" r="3.3" fill="white"/>
<circle cx="67.1001" cy="194.7" r="3.3" fill="white"/>
<circle cx="99.0001" cy="3.3" r="3.3" fill="white"/>
<circle cx="99.0001" cy="35.2" r="3.3" fill="white"/>
<circle cx="99.0001" cy="67.1" r="3.3" fill="white"/>
<circle cx="99.0001" cy="99" r="3.3" fill="white"/>
<circle cx="99.0001" cy="130.9" r="3.3" fill="white"/>
<circle cx="99.0001" cy="162.8" r="3.3" fill="white"/>
<circle cx="99.0001" cy="194.7" r="3.3" fill="white"/>
<circle cx="130.9" cy="3.3" r="3.3" fill="white"/>
<circle cx="130.9" cy="35.2" r="3.3" fill="white"/>
<circle cx="130.9" cy="67.1" r="3.3" fill="white"/>
<circle cx="130.9" cy="99" r="3.3" fill="white"/>
<circle cx="130.9" cy="130.9" r="3.3" fill="white"/>
<circle cx="130.9" cy="162.8" r="3.3" fill="white"/>
<circle cx="130.9" cy="194.7" r="3.3" fill="white"/>
<circle cx="162.8" cy="3.3" r="3.3" fill="white"/>
<circle cx="162.8" cy="35.2" r="3.3" fill="white"/>
<circle cx="162.8" cy="67.1" r="3.3" fill="white"/>
<circle cx="162.8" cy="99" r="3.3" fill="white"/>
<circle cx="162.8" cy="130.9" r="3.3" fill="white"/>
<circle cx="162.8" cy="162.8" r="3.3" fill="white"/>
<circle cx="162.8" cy="194.7" r="3.3" fill="white"/>
<circle cx="194.7" cy="3.3" r="3.3" fill="white"/>
<circle cx="194.7" cy="35.2" r="3.3" fill="white"/>
<circle cx="194.7" cy="67.1" r="3.3" fill="white"/>
<circle cx="194.7" cy="99" r="3.3" fill="white"/>
<circle cx="194.7" cy="130.9" r="3.3" fill="white"/>
<circle cx="194.7" cy="162.8" r="3.3" fill="white"/>
<circle cx="194.7" cy="194.7" r="3.3" fill="white"/>
<circle cx="226.6" cy="3.3" r="3.3" fill="white"/>
<circle cx="226.6" cy="35.2" r="3.3" fill="white"/>
<circle cx="226.6" cy="67.1" r="3.3" fill="white"/>
<circle cx="226.6" cy="99" r="3.3" fill="white"/>
<circle cx="226.6" cy="130.9" r="3.3" fill="white"/>
<circle cx="226.6" cy="162.8" r="3.3" fill="white"/>
<circle cx="226.6" cy="194.7" r="3.3" fill="white"/>
<circle cx="258.5" cy="3.3" r="3.3" fill="white"/>
<circle cx="258.5" cy="35.2" r="3.3" fill="white"/>
<circle cx="258.5" cy="67.1" r="3.3" fill="white"/>
<circle cx="258.5" cy="99" r="3.3" fill="white"/>
<circle cx="258.5" cy="130.9" r="3.3" fill="white"/>
<circle cx="258.5" cy="162.8" r="3.3" fill="white"/>
<circle cx="258.5" cy="194.7" r="3.3" fill="white"/>
</svg>
