<svg width="270" height="196" viewBox="0 0 270 196" fill="none" xmlns="http://www.w3.org/2000/svg">
<g opacity="0.4">
<circle cx="3.87572" cy="3.8756" r="3.8756" fill="#282828"/>
<circle cx="3.87572" cy="41.3396" r="3.8756" fill="#282828"/>
<circle cx="3.87572" cy="78.8039" r="3.8756" fill="#282828"/>
<circle cx="3.87572" cy="116.268" r="3.8756" fill="#282828"/>
<circle cx="3.87572" cy="153.732" r="3.8756" fill="#282828"/>
<circle cx="3.87572" cy="191.196" r="3.8756" fill="#282828"/>
<circle cx="41.3396" cy="3.8756" r="3.8756" fill="#282828"/>
<circle cx="41.3396" cy="41.3396" r="3.8756" fill="#282828"/>
<circle cx="41.3396" cy="78.8039" r="3.8756" fill="#282828"/>
<circle cx="41.3396" cy="116.268" r="3.8756" fill="#282828"/>
<circle cx="41.3396" cy="153.732" r="3.8756" fill="#282828"/>
<circle cx="41.3396" cy="191.196" r="3.8756" fill="#282828"/>
<circle cx="78.8038" cy="3.8756" r="3.8756" fill="#282828"/>
<circle cx="78.8038" cy="41.3396" r="3.8756" fill="#282828"/>
<circle cx="78.8038" cy="78.8039" r="3.8756" fill="#282828"/>
<circle cx="78.8038" cy="116.268" r="3.8756" fill="#282828"/>
<circle cx="78.8038" cy="153.732" r="3.8756" fill="#282828"/>
<circle cx="78.8038" cy="191.196" r="3.8756" fill="#282828"/>
<circle cx="116.268" cy="3.8756" r="3.8756" fill="#282828"/>
<circle cx="116.268" cy="41.3396" r="3.8756" fill="#282828"/>
<circle cx="116.268" cy="78.8039" r="3.8756" fill="#282828"/>
<circle cx="116.268" cy="116.268" r="3.8756" fill="#282828"/>
<circle cx="116.268" cy="153.732" r="3.8756" fill="#282828"/>
<circle cx="116.268" cy="191.196" r="3.8756" fill="#282828"/>
<circle cx="153.732" cy="3.8756" r="3.8756" fill="#282828"/>
<circle cx="153.732" cy="41.3396" r="3.8756" fill="#282828"/>
<circle cx="153.732" cy="78.8039" r="3.8756" fill="#282828"/>
<circle cx="153.732" cy="116.268" r="3.8756" fill="#282828"/>
<circle cx="153.732" cy="153.732" r="3.8756" fill="#282828"/>
<circle cx="153.732" cy="191.196" r="3.8756" fill="#282828"/>
<circle cx="191.196" cy="3.8756" r="3.8756" fill="#282828"/>
<circle cx="191.196" cy="41.3396" r="3.8756" fill="#282828"/>
<circle cx="191.196" cy="78.8039" r="3.8756" fill="#282828"/>
<circle cx="191.196" cy="116.268" r="3.8756" fill="#282828"/>
<circle cx="191.196" cy="153.732" r="3.8756" fill="#282828"/>
<circle cx="191.196" cy="191.196" r="3.8756" fill="#282828"/>
<circle cx="228.66" cy="3.8756" r="3.8756" fill="#282828"/>
<circle cx="228.66" cy="41.3396" r="3.8756" fill="#282828"/>
<circle cx="228.66" cy="78.8039" r="3.8756" fill="#282828"/>
<circle cx="228.66" cy="116.268" r="3.8756" fill="#282828"/>
<circle cx="228.66" cy="153.732" r="3.8756" fill="#282828"/>
<circle cx="228.66" cy="191.196" r="3.8756" fill="#282828"/>
<circle cx="266.125" cy="3.8756" r="3.8756" fill="#282828"/>
<circle cx="266.125" cy="41.3396" r="3.8756" fill="#282828"/>
<circle cx="266.125" cy="78.8039" r="3.8756" fill="#282828"/>
<circle cx="266.125" cy="116.268" r="3.8756" fill="#282828"/>
<circle cx="266.125" cy="153.732" r="3.8756" fill="#282828"/>
<circle cx="266.125" cy="191.196" r="3.8756" fill="#282828"/>
</g>
</svg>
